<svg width="558" height="452" viewBox="0 0 558 452" fill="none" xmlns="http://www.w3.org/2000/svg">
<mask id="mask0" mask-type="alpha" maskUnits="userSpaceOnUse" x="23" y="44" width="508" height="341">
<path fill-rule="evenodd" clip-rule="evenodd" d="M531 44H23V385H531V44ZM517 58H37V372H517V58Z" fill="#C4C4C4"/>
</mask>
<g mask="url(#mask0)">
<path d="M82.09 93.38L69.99 83.13L113.22 33.25L125.31 43.5L82.09 93.38Z" fill="#7E8E95"/>
<path d="M10.59 166.38L-1.51001 156.13L41.72 106.25L53.81 116.5L10.59 166.38Z" fill="#7E8E95"/>
<path d="M9.64004 114.39L-2.45996 104.14L58.72 33.25L70.81 43.5L9.64004 114.39Z" fill="#D16D4F"/>
<path d="M135.09 93.38L122.99 83.13L166.22 33.25L178.31 43.5L135.09 93.38Z" fill="#D16D4F"/>
<path d="M238.4 93.38L226.3 83.13L269.53 33.25L281.62 43.5L238.4 93.38Z" fill="#D16D4F"/>
<path d="M343.9 93.38L331.8 83.13L375.03 33.25L387.12 43.5L343.9 93.38Z" fill="#D16D4F"/>
<path d="M447.9 93.38L435.8 83.13L479.03 33.25L491.12 43.5L447.9 93.38Z" fill="#D16D4F"/>
<path d="M507.4 139.38L495.3 129.13L538.53 79.25L550.62 89.5L507.4 139.38Z" fill="#D16D4F"/>
<path d="M507.4 249.38L495.3 239.13L538.53 189.25L550.62 199.5L507.4 249.38Z" fill="#D16D4F"/>
<path d="M467.3 403.39L455.21 393.14L538.53 298.25L550.62 308.5L467.3 403.39Z" fill="#D16D4F"/>
<path d="M187.09 93.38L174.99 83.13L218.22 33.25L230.31 43.5L187.09 93.38Z" fill="#7E8E95"/>
<path d="M290.59 93.38L278.49 83.13L321.72 33.25L333.81 43.5L290.59 93.38Z" fill="#7E8E95"/>
<path d="M395.09 93.38L382.99 83.13L426.22 33.25L438.31 43.5L395.09 93.38Z" fill="#7E8E95"/>
<path d="M107.09 398.88L94.99 388.63L138.22 338.75L150.31 349L107.09 398.88Z" fill="#7E8E95"/>
<path d="M34.64 419.89L22.54 409.64L83.72 338.75L95.81 349L34.64 419.89Z" fill="#D16D4F"/>
<path d="M160.09 398.88L147.99 388.63L191.22 338.75L203.31 349L160.09 398.88Z" fill="#D16D4F"/>
<path d="M263.4 398.88L251.3 388.63L294.53 338.75L306.62 349L263.4 398.88Z" fill="#D16D4F"/>
<path d="M368.9 398.88L356.8 388.63L400.03 338.75L412.12 349L368.9 398.88Z" fill="#D16D4F"/>
<path d="M212.09 398.88L199.99 388.63L243.22 338.75L255.31 349L212.09 398.88Z" fill="#7E8E95"/>
<path d="M315.59 398.88L303.49 388.63L346.72 338.75L358.81 349L315.59 398.88Z" fill="#7E8E95"/>
<path d="M420.09 398.88L407.99 388.63L451.22 338.75L463.31 349L420.09 398.88Z" fill="#7E8E95"/>
<path d="M497.09 93.38L484.99 83.13L528.22 33.25L540.31 43.5L497.09 93.38Z" fill="#7E8E95"/>
<path d="M504.42 195.38L492.33 185.13L535.55 135.25L547.64 145.5L504.42 195.38Z" fill="#7E8E95"/>
<path d="M502.42 307.38L490.33 297.13L533.55 247.25L545.64 257.5L502.42 307.38Z" fill="#7E8E95"/>
<path d="M503.75 412.71L491.66 402.46L534.88 352.58L546.98 362.83L503.75 412.71Z" fill="#7E8E95"/>
<path d="M10.07 225.45L-2.02002 215.21L41.2 165.33L53.3 175.58L10.07 225.45Z" fill="#D16D4F"/>
<path d="M10.07 335.45L-2.02002 325.21L41.2 275.33L53.3 285.58L10.07 335.45Z" fill="#D16D4F"/>
<path d="M7.1 281.45L-5 271.21L38.22 221.33L50.32 231.58L7.1 281.45Z" fill="#7E8E95"/>
<path d="M5.1 393.45L-7 383.21L36.22 333.33L48.32 343.58L5.1 393.45Z" fill="#7E8E95"/>
</g>
</svg>
