<svg width="504" height="423" viewBox="0 0 504 423" fill="none" xmlns="http://www.w3.org/2000/svg">
<g clip-path="url(#clip0)">
<path d="M0 0V20.36L17.7 0H0Z" fill="#D16D4F"/>
<path d="M11.33 28.94L0 41.98V63.59L11.33 50.55V28.94Z" fill="#7E8E95"/>
<path d="M43.68 13.34L55.28 0H36.49L24.89 13.34H43.68Z" fill="#7E8E95"/>
<path d="M11.33 72.17L0 85.21V106.82L11.33 93.78V72.17Z" fill="#D16D4F"/>
<path d="M81.26 13.34L92.86 0H74.07L62.47 13.34H81.26Z" fill="#D16D4F"/>
<path d="M11.33 115.4L0 128.43V150.05L11.33 137.01V115.4Z" fill="#7E8E95"/>
<path d="M118.83 13.34L130.43 0H111.64L100.05 13.34H118.83Z" fill="#7E8E95"/>
<path d="M11.33 158.62L0 171.66V193.28L11.33 180.24V158.62Z" fill="#D16D4F"/>
<path d="M156.41 13.34L168.01 0H149.22L137.62 13.34H156.41Z" fill="#D16D4F"/>
<path d="M193.99 13.34L205.59 0H186.8L175.2 13.34H193.99Z" fill="#7E8E95"/>
<path d="M11.33 201.85L0 214.89V236.5L11.33 223.47V201.85Z" fill="#7E8E95"/>
<path d="M231.57 13.34L243.17 0H224.38L212.78 13.34H231.57Z" fill="#D16D4F"/>
<path d="M11.33 245.08L0 258.12V279.73L11.33 266.69V245.08Z" fill="#D16D4F"/>
<path d="M269.14 13.34L280.74 0H261.95L250.35 13.34H269.14Z" fill="#7E8E95"/>
<path d="M11.33 288.31L0 301.34V322.96L11.33 309.92V288.31Z" fill="#7E8E95"/>
<path d="M306.72 13.34L318.32 0H299.53L287.93 13.34H306.72Z" fill="#D16D4F"/>
<path d="M11.33 331.53L0 344.57V366.19L11.33 353.15V331.53Z" fill="#D16D4F"/>
<path d="M344.3 13.34L355.9 0H337.11L325.51 13.34H344.3Z" fill="#7E8E95"/>
<path d="M11.33 374.76L0 387.8V409.41L11.33 396.38V374.76Z" fill="#7E8E95"/>
<path d="M36.84 410.26H18.05L7.05005 422.92H25.84L36.84 410.26Z" fill="#D16D4F"/>
<path d="M381.88 13.34L393.47 0H374.69L363.09 13.34H381.88Z" fill="#D16D4F"/>
<path d="M419.45 13.34L431.05 0H412.26L400.67 13.34H419.45Z" fill="#7E8E95"/>
<path d="M55.63 410.26L44.63 422.92H63.42L74.42 410.26H55.63Z" fill="#7E8E95"/>
<path d="M93.2 410.26L82.21 422.92H101L111.99 410.26H93.2Z" fill="#D16D4F"/>
<path d="M457.03 13.34L468.63 0H449.84L438.24 13.34H457.03Z" fill="#D16D4F"/>
<path d="M130.78 410.26L119.78 422.92H138.57L149.57 410.26H130.78Z" fill="#7E8E95"/>
<path d="M491.33 13.34V17.11L504 2.54V0H487.42L475.82 13.34H491.33Z" fill="#7E8E95"/>
<path d="M168.36 410.26L157.36 422.92H176.15L187.15 410.26H168.36Z" fill="#D16D4F"/>
<path d="M491.33 60.34L504 45.77V24.15L491.33 38.72V60.34Z" fill="#D16D4F"/>
<path d="M491.33 103.56L504 88.99V67.38L491.33 81.95V103.56Z" fill="#7E8E95"/>
<path d="M205.94 410.26L194.94 422.92H213.73L224.72 410.26H205.94Z" fill="#7E8E95"/>
<path d="M243.51 410.26L232.51 422.92H251.3L262.3 410.26H243.51Z" fill="#D16D4F"/>
<path d="M491.33 146.79L504 132.22V110.61L491.33 125.18V146.79Z" fill="#D16D4F"/>
<path d="M491.33 190.02L504 175.45V153.84L491.33 168.41V190.02Z" fill="#7E8E95"/>
<path d="M281.09 410.26L270.09 422.92H288.88L299.88 410.26H281.09Z" fill="#7E8E95"/>
<path d="M318.67 410.26L307.67 422.92H326.46L337.46 410.26H318.67Z" fill="#D16D4F"/>
<path d="M491.33 233.25L504 218.68V197.06L491.33 211.63V233.25Z" fill="#D16D4F"/>
<path d="M356.25 410.26L345.25 422.92H364.04L375.03 410.26H356.25Z" fill="#7E8E95"/>
<path d="M491.33 276.48L504 261.9V240.29L491.33 254.86V276.48Z" fill="#7E8E95"/>
<path d="M491.33 319.7L504 305.13V283.52L491.33 298.09V319.7Z" fill="#D16D4F"/>
<path d="M393.82 410.26L382.82 422.92H401.61L412.61 410.26H393.82Z" fill="#D16D4F"/>
<path d="M431.4 410.26L420.4 422.92H439.19L450.19 410.26H431.4Z" fill="#7E8E95"/>
<path d="M491.33 362.93L504 348.36V326.75L491.33 341.32V362.93Z" fill="#7E8E95"/>
<path d="M468.98 410.26L457.98 422.92H476.77L487.77 410.26H468.98Z" fill="#D16D4F"/>
<path d="M491.33 406.16L504 391.59V369.97L491.33 384.54V406.16Z" fill="#D16D4F"/>
<path d="M504 422.92V413.2L495.56 422.92H504Z" fill="#7E8E95"/>
</g>
<defs>
<clipPath id="clip0">
<rect width="504" height="422.92" fill="white"/>
</clipPath>
</defs>
</svg>
