<?xml version="1.0" encoding="UTF-8" standalone="no"?>
<!-- Generator: Adobe Illustrator 18.0.0, SVG Export Plug-In . SVG Version: 6.00 Build 0)  -->
<!DOCTYPE svg  PUBLIC '-//W3C//DTD SVG 1.1//EN'  'http://www.w3.org/Graphics/SVG/1.1/DTD/svg11.dtd'>
<svg id="Layer_1" xmlns="http://www.w3.org/2000/svg" xml:space="preserve" viewBox="166 -5 50 50" version="1.1" y="0px" x="0px" xmlns:xlink="http://www.w3.org/1999/xlink" enable-background="new 166 -5 50 50">
<path d="m216 5.5c0 0.6-0.5 1-1 1h-9.5c-0.6 0-1-0.5-1-1v-9.5c0-0.6 0.5-1 1-1h9.5c0.6 0 1 0.5 1 1v9.5zm-4.5 8.5v24.4c0 1.9-1.6 3.5-3.5 3.5h-35.4c-2 0-3.5-1.6-3.5-3.5v-35.2c0-1.9 1.6-3.5 3.5-3.5h24.3v-3h-24.3c-3.7 0-6.6 2.9-6.6 6.5v35.2c0 3.7 2.9 6.6 6.6 6.6h35.3c3.6 0 6.6-2.9 6.6-6.5v-24.5h-3zm-27.1 4.3h1.7c0.2 0 0.4 0.2 0.4 0.4v13.8c0 0.2-0.2 0.4-0.4 0.4h-1.8v2.1h12.3v-2h-2.3v-16.7h-10l0.1 2zm10.4-7.5c0 2.3-1.9 4.2-4.2 4.2s-4.2-1.9-4.2-4.2 1.9-4.2 4.2-4.2c2.3 0 4.2 1.9 4.2 4.2z" fill="#80705D"/>
</svg>
