<?xml version="1.0" encoding="UTF-8" standalone="no"?>
<!-- Generator: Adobe Illustrator 18.0.0, SVG Export Plug-In . SVG Version: 6.00 Build 0)  -->
<!DOCTYPE svg  PUBLIC '-//W3C//DTD SVG 1.1//EN'  'http://www.w3.org/Graphics/SVG/1.1/DTD/svg11.dtd'>
<svg id="Layer_1" xmlns="http://www.w3.org/2000/svg" xml:space="preserve" viewBox="0 0 30 10" version="1.1" y="0px" x="0px" xmlns:xlink="http://www.w3.org/1999/xlink" enable-background="new 0 0 30 10">
<g fill="#00334E">
	<path d="m1.9 6.3v3.5h-1.9v-9.7h3.7c1.1 0 2 0.3 2.6 0.9s1 1.3 1 2.2-0.3 1.7-0.9 2.3c-0.7 0.6-1.6 0.8-2.7 0.8h-1.8zm0-1.5h1.8c0.5 0 1-0.1 1.2-0.4 0.3-0.3 0.4-0.7 0.4-1.1 0-0.5-0.1-0.9-0.4-1.2-0.2-0.3-0.6-0.5-1.2-0.5h-1.8v3.2z"/>
	<path d="m17 5.9c0 1.2-0.4 2.2-1.1 3-0.8 0.8-1.7 1.2-2.9 1.2s-2.2-0.4-2.9-1.2-1.1-1.8-1.1-3v-1.8c0-1.2 0.4-2.2 1.1-3 0.6-0.7 1.6-1.1 2.8-1.1s2.2 0.4 2.9 1.2c0.8 0.8 1.2 1.7 1.2 2.9v1.8zm-2-1.8c0-0.8-0.2-1.4-0.6-1.9s-0.9-0.7-1.6-0.7-1.2 0.2-1.5 0.7c-0.4 0.5-0.6 1.1-0.6 1.9v1.8c0 0.8 0.2 1.4 0.6 1.9s0.9 0.7 1.5 0.7c0.7 0 1.2-0.2 1.6-0.7 0.5-0.5 0.6-1.2 0.6-1.9v-1.8z"/>
	<path d="m25.4 5.8h-0.6v4.1h-1.9v-4.1h-0.6l-2.3 4.1h-2.4l3.1-5.2-2.9-4.5h2.4l2.2 4h0.5v-4h1.9v4h0.5l2.2-4h2.4l-2.9 4.4 3 5.2h-2.4l-2.2-4z"/>
</g>
</svg>
