<?xml version="1.0" encoding="UTF-8" standalone="no"?>
<!-- Generator: Adobe Illustrator 18.0.0, SVG Export Plug-In . SVG Version: 6.00 Build 0)  -->
<!DOCTYPE svg  PUBLIC '-//W3C//DTD SVG 1.1//EN'  'http://www.w3.org/Graphics/SVG/1.1/DTD/svg11.dtd'>
<svg id="Layer_1" xmlns="http://www.w3.org/2000/svg" xml:space="preserve" viewBox="0 0 10 10" version="1.1" y="0px" x="0px" xmlns:xlink="http://www.w3.org/1999/xlink" enable-background="new 0 0 10 10">
		<radialGradient id="SVGID_1_" gradientUnits="userSpaceOnUse" cy="1.4221" cx="3.7302" gradientTransform="matrix(.955 -.2966 .2731 .8793 -.2205 1.278)" r="7.806">
		<stop stop-color="#fff" offset=".1296"/>
		<stop stop-color="#FAE3B4" offset=".3597"/>
		<stop stop-color="#F8C979" offset=".622"/>
		<stop stop-color="#B57120" offset=".8355"/>
		<stop stop-color="#663923" offset="1"/>
	</radialGradient>
	<path d="m10 3.8c0-0.4-0.1-0.8-0.3-1.1-0.2-0.4-0.4-0.8-0.7-1.1-0.5-0.6-1.2-1-2-1.2-0.4-0.1-0.8-0.1-1.2-0.1h-0.3-0.2-0.1c-0.2 0-0.4 0-0.6 0.1-0.7 0.1-1.5 0.3-2.2 0.7s-1.3 1-1.7 1.6c-0.4 0.7-0.7 1.6-0.7 2.4 0 0.9 0.4 1.7 1.1 2.3 0.6 0.6 1.5 0.9 2.3 1 0.8 0 1.6-0.1 2.4-0.4s1.4-0.8 1.9-1.5l0.3-0.6c0.1-0.2 0.1-0.4 0.2-0.7 0.1-0.5 0-0.9-0.2-1.4-0.2-0.4-0.5-0.7-0.9-1-0.4-0.2-0.8-0.4-1.3-0.4-0.5-0.1-0.9 0-1.3 0.1s-0.8 0.3-1.1 0.5c-0.4 0.3-0.7 0.7-0.9 1.1v0.1 0.1 0.1 0.4c0 0.3 0.2 0.6 0.4 0.8s0.4 0.4 0.7 0.4c0.1 0.3 0.4 0.3 0.6 0.2 1.5-0.2 2.1-1.3 1.7-2-0.2-0.3-0.7-0.5-1.3-0.3-0.1 0-0.3 0-0.4 0.1-0.1 0-0.1 0-0.1-0.1 0.4-0.3 1-0.4 1.5-0.4 0.6 0.1 1.1 0.4 1.3 0.8 0.1 0.3 0.2 0.6 0.1 0.8 0 0.3-0.1 0.5-0.3 0.7-0.3 0.5-0.8 0.9-1.4 1.1-0.6 0.3-1.2 0.4-1.9 0.3-0.6 0-1.1-0.2-1.5-0.6-0.5-0.4-0.7-1-0.8-1.5 0-0.6 0.1-1.2 0.5-1.7 0.4-0.6 0.8-1.1 1.4-1.4 0.5-0.3 1.2-0.6 1.8-0.7 0.2 0 0.3-0.1 0.5-0.1h0.1 0.1 0.2c0.3 0 0.7 0 1 0.1 0.7 0.2 1.3 0.5 1.7 0.9 0.5 0.4 0.8 1 0.9 1.7s0.1 1.4 0 2c0 0.1 0 0.2 0.1 0.2s0.2 0 0.2-0.1c0.3-0.7 0.5-1.4 0.4-2.2z" fill="url(#SVGID_1_)"/>
		<defs>
			<path id="SVGID_2_" d="m10 3.8c0-0.4-0.1-0.8-0.3-1.1-0.2-0.4-0.4-0.8-0.7-1.1-0.5-0.6-1.2-1-2-1.2-0.4-0.1-0.8-0.1-1.2-0.1h-0.3-0.2-0.1c-0.2 0-0.4 0-0.6 0.1-0.7 0.1-1.5 0.3-2.2 0.7s-1.3 1-1.7 1.6c-0.4 0.7-0.7 1.6-0.7 2.4 0 0.9 0.4 1.7 1.1 2.3 0.6 0.6 1.5 0.9 2.3 1 0.8 0 1.6-0.1 2.4-0.4s1.4-0.8 1.9-1.5l0.3-0.6c0.1-0.2 0.1-0.4 0.2-0.7 0.1-0.5 0-0.9-0.2-1.4-0.2-0.4-0.5-0.7-0.9-1-0.4-0.2-0.8-0.4-1.3-0.4-0.5-0.1-0.9 0-1.3 0.1s-0.8 0.3-1.1 0.5c-0.4 0.3-0.7 0.7-0.9 1.1v0.1 0.1 0.1 0.4c0 0.3 0.2 0.6 0.4 0.8s0.4 0.4 0.7 0.4c0.1 0.3 0.4 0.3 0.6 0.2 1.5-0.2 2.1-1.3 1.7-2-0.2-0.3-0.7-0.5-1.3-0.3-0.1 0-0.3 0-0.4 0.1-0.1 0-0.1 0-0.1-0.1 0.4-0.3 1-0.4 1.5-0.4 0.6 0.1 1.1 0.4 1.3 0.8 0.1 0.3 0.2 0.6 0.1 0.8 0 0.3-0.1 0.5-0.3 0.7-0.3 0.5-0.8 0.9-1.4 1.1-0.6 0.3-1.2 0.4-1.9 0.3-0.6 0-1.1-0.2-1.5-0.6-0.5-0.4-0.7-1-0.8-1.5 0-0.6 0.1-1.2 0.5-1.7 0.4-0.6 0.8-1.1 1.4-1.4 0.5-0.3 1.2-0.6 1.8-0.7 0.2 0 0.3-0.1 0.5-0.1h0.1 0.1 0.2c0.3 0 0.7 0 1 0.1 0.7 0.2 1.3 0.5 1.7 0.9 0.5 0.4 0.8 1 0.9 1.7s0.1 1.4 0 2c0 0.1 0 0.2 0.1 0.2s0.2 0 0.2-0.1c0.3-0.7 0.5-1.4 0.4-2.2z"/>
		</defs>
		<clipPath id="SVGID_3_">
			<use overflow="visible" xlink:href="#SVGID_2_"/>
		</clipPath>
		<path fill="#F4AA56" d="m8.2 4.3c0.9 1.8-1.7 3.8-2.7 4.1-1.6 0.5-4.7 1.7-5.4-2.3 1.5 3.8 8.7 2.2 8.1-1.8z" clip-path="url(#SVGID_3_)"/>
		<path fill="#F4AA56" d="m5.8 4.1c0.6 0.9-0.6 1.7-1.1 1.9-0.6 0.2-2.1 0.3-2.3-1.2-0.4 1 1.2 1.9 2.4 1.5s1.8-1.9 1-2.2z" clip-path="url(#SVGID_3_)"/>
		<path fill="#B57120" d="m1.1 4.9c0.1-3.7 6.3-5.3 7.9-1.9-0.2 0-4.6-1.3-4.9-1.2s-2.9 2.9-3 3.1z" clip-path="url(#SVGID_3_)"/>
		<path fill="#924534" d="m4.2 3.9c1.1-0.8 2.4-0.4 2.7 0.5-0.1 0.2-1.3-1.2-2.7-0.5z" clip-path="url(#SVGID_3_)"/>
		<path fill="#FAE3B4" d="m0.1 5.7c-0.4-2.5 2-4.4 3.3-4.8 1.2-0.6 4.6-1.2 6.2 1.6-0.6-2.8-4.7-2.7-6.3-2.2-1.6 0.6-4.2 2.3-3.2 5.4z" clip-path="url(#SVGID_3_)"/>
		<path fill="#fff" d="m2.4 4.4c0.5-1.8 3.7-2.8 5.2-1.1-0.9-1.8-4.8-1.4-5.2 1.1z" clip-path="url(#SVGID_3_)"/>
		<path fill="#FAE3B4" d="m4.3 3.8c-0.1 0.1-0.3 0.2-0.2 0.2 0.2 0.1 1-0.5 1.6-0.1 0-0.1-0.6-0.4-1.4-0.1z" clip-path="url(#SVGID_3_)"/>
		<linearGradient id="SVGID_4_" y2="2.7174" gradientUnits="userSpaceOnUse" x2="9.101" y1="5.6204" x1=".9183">
			<stop stop-color="#663923" offset=".012121"/>
			<stop stop-color="#B57120" offset=".1576"/>
			<stop stop-color="#FAE3B4" offset=".2788"/>
			<stop stop-color="#FAE3B4" offset=".5818"/>
			<stop stop-color="#F8C979" offset=".7333"/>
			<stop stop-color="#B57120" offset=".8949"/>
		</linearGradient>
		<path d="m1.3 5.8c0 0.1 0.1 0.2 0.1 0.2 0-0.5 0.2-0.9 0.5-1.4 0.2-0.3 0.4-0.6 0.7-0.9 0.2-0.2 0.5-0.5 0.8-0.7 0.4-0.3 0.7-0.5 1.2-0.6 0.4-0.1 0.9-0.2 1.3-0.1 0.3 0 0.6 0.1 1 0.3h0.3c0.6 0.1 1.2 0.4 1.7 0.9 0.3 0.3 0.5 0.7 0.7 1 0-0.6-1.6-3.1-5.1-2.2-1.9 0.5-3.2 2.4-3.2 3.5z" fill="url(#SVGID_4_)"/>
		<linearGradient id="SVGID_5_" y2="6.8118" gradientUnits="userSpaceOnUse" x2="8.9737" y1="9.0251" x1="1.2641">
			<stop stop-color="#663923" offset=".012121"/>
			<stop stop-color="#B57120" offset=".1758"/>
			<stop stop-color="#F8C979" offset=".3758"/>
			<stop stop-color="#fff" offset=".6"/>
			<stop stop-color="#FAE3B4" offset=".6969"/>
			<stop stop-color="#F8C979" offset=".7898"/>
			<stop stop-color="#B57120" offset=".9091"/>
			<stop stop-color="#663923" offset="1"/>
		</linearGradient>
		<path d="m8.6 5.8c0-0.1 0-0.2-0.1-0.2v0.7c0 0.2-0.1 0.5-0.2 0.7 0 0.2-0.1 0.4-0.3 0.5-0.5 0.7-1.1 1.2-1.9 1.6-0.8 0.3-1.6 0.4-2.4 0.3-0.8 0-1.7-0.4-2.3-0.9-0.4-0.4-0.4-0.5-0.8-1.1 0.2 0.5 0.5 0.9 0.9 1.3 0.6 0.6 1.5 0.9 2.3 1 0.8 0 1.6-0.1 2.4-0.4 0.7-0.3 1.4-0.8 1.9-1.5l0.3-0.6c0.1-0.2 0.2-0.4 0.2-0.6 0.1-0.3 0.1-0.5 0-0.8z" fill="url(#SVGID_5_)"/>
		<linearGradient id="SVGID_6_" y2="4.97" gradientUnits="userSpaceOnUse" x2="7.0198" y1="4.97" x1="6.1222">
			<stop stop-color="#F8C979" offset=".012121"/>
			<stop stop-color="#B57120" offset=".5273"/>
			<stop stop-color="#663923" offset="1"/>
		</linearGradient>
		<path d="m6.1 4.7c0 0.1 0 0.1 0.1 0.2 0.3 0.1 0.6 0.2 0.8 0.4v-0.1c-0.1-0.2-0.4-0.5-0.9-0.5z" fill="url(#SVGID_6_)"/>
</svg>
