<?xml version="1.0" encoding="UTF-8" standalone="no"?>
<!-- Generator: Adobe Illustrator 18.0.0, SVG Export Plug-In . SVG Version: 6.00 Build 0)  -->
<!DOCTYPE svg  PUBLIC '-//W3C//DTD SVG 1.1//EN'  'http://www.w3.org/Graphics/SVG/1.1/DTD/svg11.dtd'>
<svg id="Layer_1" xmlns="http://www.w3.org/2000/svg" xml:space="preserve" viewBox="0 0 10 10" version="1.1" y="0px" x="0px" xmlns:xlink="http://www.w3.org/1999/xlink" enable-background="new 0 0 10 10">
	<polyline points="3.7 8.5 5 7.6 3.7 8.5" fill="#fff"/>
	<path d="m6.8 3.2c-0.5-0.5-1.1-0.7-1.8-0.8-0.7 0-1.3 0.3-1.8 0.7-0.5 0.6-0.7 1.2-0.8 1.9 0 0.7 0.3 1.3 0.7 1.8 0.6 0.5 1.2 0.7 1.9 0.8 0.7 0 1.3-0.3 1.8-0.7 0.5-0.6 0.8-1.2 0.8-1.9-0.1-0.7-0.3-1.3-0.8-1.8" fill="#fff"/>
	<polyline points="6.8 3.2 8.5 3.7 6.8 3.2" fill="#fff"/>
	<path d="m6.9 9.6c0.6-0.2 1.1-0.6 1.6-1l-1.7-0.1 0.1 1.1" fill="#BC6100"/>
	<path d="m6.8 8.5l0.1 1.1c0.6-0.2 1.1-0.6 1.6-1l-1.7-0.1m0.1 1.1l-0.1-1.1 1.7 0.1c-0.5 0.4-1 0.8-1.6 1z" fill="#E84F08"/>
	<path d="m8.6 1.6c-0.4-0.5-1-0.9-1.6-1.2l-0.5 1.2h2.1" fill="#D37100"/>
	<path d="m7 0.4l-0.5 1.2h2.1c-0.4-0.5-1-0.9-1.6-1.2m-0.5 1.2l0.5-1.2c0.6 0.3 1.1 0.7 1.6 1.1l-2.1 0.1z" fill="#E84F08"/>
	<path d="m8.5 3.7l1.2-0.5c-0.2-0.6-0.6-1.1-1-1.6-0.1 0.6-0.2 2.1-0.2 2.1" fill="#DEDC00"/>
	<path d="m8.7 1.6c0 0.6-0.1 1.9-0.2 2.1l1.1-0.5c-0.2-0.6-0.5-1.1-0.9-1.6m-0.2 2.1s0.1-1.5 0.2-2.1c0.4 0.5 0.8 1 1 1.6l-1.2 0.5z" fill="#E84F08"/>
	<path d="m10 5.1v-0.1c0-0.6-0.1-1.3-0.3-1.8l-1.2 0.5 1.5 1.4" fill="#D37100"/>
	<path d="m8.5 3.7l1.5 1.4v-0.1c0-0.6-0.1-1.2-0.3-1.8l-1.2 0.5m1.5 1.5l-1.5-1.5 1.2-0.5c0.2 0.6 0.3 1.2 0.3 1.8v0.2z" fill="#E84F08"/>
	<polyline points="7.6 5 8.4 6.5 10 5.2 10 5.1 8.5 3.7 7.6 5" fill="#EE7B00"/>
	<path d="m7.6 5l0.8 1.5 1.6-1.3-1.5-1.5-0.9 1.3m0.8 1.5l-0.9-1.5 0.9-1.3 1.6 1.4-1.6 1.4z" fill="#E84F08"/>
	<polyline points="5 2.4 6.5 1.6 5.1 0 5 0 3.5 1.6 5 2.4" fill="#EE7B00"/>
	<path d="m3.5 1.6l1.5 0.8 1.4-0.9-1.3-1.5-1.6 1.6m1.5 0.9l-1.5-0.9 1.5-1.6 1.4 1.6-1.4 0.9z" fill="#E84F08"/>
	<polyline points="6.8 3.2 8.5 3.7 8.7 1.6 8.6 1.6 6.5 1.6 6.8 3.2" fill="#EE7B00"/>
	<path d="m6.8 3.2l1.7 0.5 0.2-2.1h-2.1l0.2 1.6m1.7 0.5l-1.7-0.5-0.3-1.6h2.2l-0.2 2.1z" fill="#E84F08"/>
	<polyline points="2.4 5 1.5 3.7 0 5 0 5.1 1.6 6.6 2.4 5" fill="#CA4A00"/>
	<path d="m1.5 3.7l-1.5 1.3 1.6 1.5 0.8-1.5-0.9-1.3m0.1 2.9l-1.6-1.5 1.5-1.3 1 1.2-0.9 1.6z" fill="#E84F08"/>
	<polyline points="3.5 1.6 1.8 1.9 1.5 3.7 3.2 3.2 3.5 1.6" fill="#CA4A00"/>
	<path d="m1.8 1.9l-0.3 1.8 1.7-0.5 0.3-1.6-1.7 0.3m-0.3 1.8l0.3-1.9 1.8-0.3-0.4 1.7-1.7 0.5z" fill="#E84F08"/>
	<path d="m3.2 9.7c0.5 0.2 1.1 0.3 1.7 0.3l-1.2-1.5-0.5 1.2" fill="#9C3800"/>
	<path d="m3.2 9.6c0.5 0.3 1.1 0.4 1.6 0.4l-1.1-1.5-0.5 1.1m1.7 0.4c-0.6 0-1.2-0.1-1.7-0.3l0.5-1.2 1.2 1.5z" fill="#E84F08"/>
	<path d="m0.4 7c0.3 0.6 0.6 1.1 1 1.5l0.1-2-1.1 0.5" fill="#C71814"/>
	<path d="m0.4 7c0.2 0.6 0.6 1.1 1 1.5l0.1-1.9-1.1 0.4m1.1 1.6c-0.5-0.5-0.8-1-1.1-1.6l1.2-0.5-0.1 2.1z" fill="#E84F08"/>
	<path d="m1.5 8.6c0.5 0.4 1.1 0.8 1.7 1.1l0.5-1.2-2.2 0.1" fill="#993700"/>
	<path d="m1.5 8.6c0.5 0.4 1.1 0.8 1.7 1l0.5-1.2-2.2 0.2m1.7 1.1c-0.6-0.3-1.2-0.7-1.7-1.1l2.2-0.1-0.5 1.2z" fill="#E84F08"/>
	<polyline points="3.2 6.8 1.6 6.6 1.5 8.5 1.5 8.6 3.7 8.5 3.2 6.8" fill="#CA4A00"/>
	<path d="m1.6 6.6l-0.1 2 2.2-0.1-0.5-1.7-1.6-0.2m-0.1 2l0.1-2 1.6 0.2 0.5 1.7-2.2 0.1z" fill="#E84F08"/>
	<path d="m9.6 7c0.2-0.6 0.4-1.2 0.4-1.8l-1.6 1.3 1.2 0.5" fill="#C3001D"/>
	<path d="m8.4 6.5l1.2 0.5c0.2-0.6 0.4-1.2 0.4-1.8l-1.6 1.3m1.2 0.5l-1.2-0.5 1.6-1.3c0 0.6-0.2 1.2-0.4 1.8z" fill="#E84F08"/>
	<path d="m8.5 8.5c0.5-0.4 0.8-0.9 1.1-1.5l-1.2-0.5 0.1 2" fill="#D37100"/>
	<path d="m8.4 6.5l0.1 2c0.4-0.4 0.8-1 1-1.5l-1.1-0.5m0.1 2.1l-0.1-2.1 1.2 0.5c-0.3 0.6-0.6 1.1-1.1 1.6z" fill="#E84F08"/>
	<path d="m5 0c-0.7 0-1.4 0.2-2.1 0.5l0.6 1.1 1.5-1.6" fill="#EA6200"/>
	<path d="m2.9 0.5l0.6 1.1 1.5-1.6c-0.7 0-1.4 0.2-2.1 0.5m0.6 1.1l-0.6-1.2c0.7-0.3 1.4-0.4 2.1-0.4l-1.5 1.6z" fill="#E84F08"/>
	<path d="m7 0.4c-0.6-0.2-1.2-0.4-1.9-0.4l1.4 1.6 0.5-1.2" fill="#BC6100"/>
	<path d="m5.1 0l1.4 1.5 0.5-1.1c-0.6-0.2-1.2-0.4-1.9-0.4m1.4 1.6l-1.4-1.6c0.7 0 1.3 0.2 2 0.4l-0.6 1.2z" fill="#E84F08"/>
	<path d="m3.5 1.6l-0.6-1.1c-0.5 0.2-1.1 0.6-1.5 1l0.3 0.3 1.8-0.2" fill="#A70011"/>
	<path d="m1.4 1.5l0.3 0.3 1.7-0.3-0.5-1c-0.5 0.2-1 0.6-1.5 1m0.4 0.4l-0.4-0.4c0.4-0.5 1-0.8 1.5-1.1l0.6 1.1-1.7 0.4z" fill="#E84F08"/>
	<path d="m1.8 1.9l-0.4-0.4c-0.4 0.5-0.8 1.1-1.1 1.7l1.2 0.5 0.3-1.8" fill="#C82F06"/>
	<path d="m0.4 3.2l1.1 0.5 0.3-1.8-0.4-0.4c-0.4 0.5-0.8 1.1-1 1.7m1.1 0.5l-1.2-0.5c0.3-0.6 0.6-1.2 1.1-1.7l0.4 0.3-0.3 1.9z" fill="#E84F08"/>
	<path d="m0.3 3.2c-0.2 0.6-0.3 1.2-0.3 1.8l1.5-1.3-1.2-0.5" fill="#9F7800"/>
	<path d="m0.4 3.2c-0.3 0.6-0.4 1.2-0.4 1.8l1.5-1.3-1.1-0.5m-0.4 1.8c0-0.7 0.1-1.3 0.3-1.8l1.2 0.5-1.5 1.3z" fill="#E84F08"/>
	<path d="m0 5.1c0 0.7 0.2 1.4 0.4 2l1.2-0.5-1.6-1.5" fill="#A70011"/>
	<path d="m0 5.1c0 0.6 0.2 1.3 0.4 1.9l1.1-0.5-1.5-1.4m0.4 1.9c-0.2-0.6-0.4-1.3-0.4-1.9l1.6 1.5-1.2 0.4z" fill="#E84F08"/>
	<polyline points="5 7.6 3.7 8.5 4.9 10 4.9 10 5 7.6 5 7.6" fill="#A70011"/>
	<polyline points="6.8 6.8 6.8 6.8 6.8 8.5 8.5 8.6 8.5 8.5 8.4 6.5 6.8 6.8" fill="#EE7B00"/>
	<path d="m6.8 8.5l1.7 0.1-0.1-2-1.6 0.2v1.7m1.7 0.1l-1.7-0.1v-1.7l1.6-0.3 0.1 2.1z" fill="#E84F08"/>
	<polyline points="6.8 6.8 6.8 6.8 6.8 6.8" fill="#EE7B00"/>
	<polyline points="6.6 8.4 6.8 8.5 6.8 6.8 6.8 6.8 6.6 8.4" fill="#F19200"/>
	<polyline points="6.8 6.8 6.8 6.8 6.8 6.8" fill="#F19200"/>
	<path d="m5 7.6l-0.1 2.4h0.1c0.7 0 1.3-0.1 1.9-0.4l-1.9-2" fill="#C3001D"/>
	<path d="m4.9 10h0.1c0.6 0 1.3-0.1 1.9-0.4l-1.9-2-0.1 2.4m0.1 0s-0.1 0 0 0h-0.1l0.1-2.5 1.9 2.1c-0.6 0.3-1.2 0.4-1.9 0.4" fill="#E84F08"/>
	<polyline points="5 7.6 5 7.6 6.9 9.6 6.9 9.6 6.6 8.4 5 7.6" fill="#DC6407"/>
	<polyline points="5 7.5 5 7.6 5 7.5" fill="#DC6407"/>
	<polyline points="6.6 8.4 6.9 9.6 6.9 9.6 6.8 8.5 6.6 8.4" fill="#DB8400"/>
	<polyline points="3.2 3.2 3.2 3.2 3.2 3.2 3.2 3.2" fill="#fff"/>
	<polyline points="3.2 6.8 3.2 6.8 3.2 6.8 3.2 6.8" fill="#fff"/>
	<polyline points="2.4 5 2.4 5 2.4 5 2.4 5 2.4 5" fill="#fff"/>
	<polyline points="5 2.4 5 2.4 5 2.4 5 2.4" fill="#fff"/>
	<path d="m3.2 6.8l0.5 1.7 1.3-0.9c-0.7-0.1-1.3-0.3-1.8-0.8" fill="#CD6000"/>
	<path d="m3.2 6.8l0.5 1.6 1.3-0.8c-0.7 0-1.3-0.3-1.8-0.8m0.5 1.7l-0.5-1.7c0.5 0.5 1.1 0.7 1.8 0.7l-1.3 1z" fill="#E84F08"/>
	<path d="m5 7.6l1.6 0.8 0.2-1.6c-0.5 0.5-1.1 0.8-1.8 0.8" fill="#F6A900"/>
	<path d="m5 7.6l1.5 0.8 0.2-1.5c-0.4 0.4-1 0.6-1.7 0.7m1.6 0.8l-1.6-0.8c0.7 0 1.3-0.3 1.8-0.7l-0.2 1.5z" fill="#EB6E34"/>
	<polyline points="6.8 6.8 6.6 8.4 6.8 6.8" fill="#F6A900"/>
	<polyline points="6.6 8.4 6.5 8.4 6.8 6.8 6.8 6.8 6.6 8.4" fill="#EB6E34"/>
	<polyline points="5 7.6 6.6 8.4 5 7.6" fill="#F6A900"/>
	<polyline points="6.5 8.4 5 7.6 5 7.5 6.6 8.4 6.5 8.4" fill="#EB6E34"/>
	<path d="m7.6 5c0 0.7-0.3 1.3-0.7 1.8l1.6-0.3-0.9-1.5" fill="#F6A900"/>
	<path d="m7.6 5c0 0.7-0.3 1.3-0.7 1.8l1.6-0.3-0.9-1.5m-0.8 1.8c0.5-0.5 0.7-1.1 0.7-1.8l0.9 1.6-1.6 0.2z" fill="#E84F08"/>
	<polyline points="6.8 6.8 8.4 6.5 6.8 6.8" fill="#F6A900"/>
	<polyline points="6.8 6.8 6.8 6.8 8.4 6.5 8.4 6.5 6.8 6.8" fill="#E84F08"/>
	<path d="m6.8 3.2l-0.3-1.6-1.5 0.8c0.7 0.1 1.3 0.3 1.8 0.8" fill="#F6A900"/>
	<path d="m5 2.4c0.7 0 1.3 0.3 1.8 0.7l-0.3-1.5-1.5 0.8m1.8 0.8c-0.5-0.5-1.1-0.7-1.8-0.7l1.5-0.9 0.3 1.6z" fill="#E84F08"/>
	<polyline points="6.8 3.2 6.5 1.6 6.8 3.2" fill="#F6A900"/>
	<polyline points="6.8 3.2 6.5 1.6 6.5 1.6 6.8 3.2 6.8 3.2" fill="#E84F08"/>
	<path d="m2.4 5l-0.8 1.6 1.6 0.2c-0.5-0.5-0.7-1.1-0.8-1.8" fill="#9F7800"/>
	<path d="m1.6 6.6l1.6 0.2c-0.5-0.5-0.8-1.1-0.8-1.8l-0.8 1.6m1.6 0.2l-1.6-0.2 0.8-1.6c0.1 0.7 0.3 1.3 0.8 1.8z" fill="#E84F08"/>
	<path d="m3.2 3.2c0.5-0.5 1.1-0.8 1.8-0.8l-1.5-0.8-0.3 1.6" fill="#E9E561"/>
	<path d="m3.5 1.6l-0.3 1.6c0.5-0.5 1.1-0.8 1.8-0.8l-1.5-0.8m-0.3 1.6l0.3-1.6 1.5 0.8c-0.7 0.1-1.3 0.3-1.8 0.8z" fill="#E84F08"/>
	<path d="m3.2 3.2l-1.7 0.5 0.9 1.3c0.1-0.7 0.3-1.3 0.8-1.8" fill="#F6A900"/>
	<path d="m1.5 3.7l0.9 1.3c0-0.7 0.3-1.3 0.7-1.8l-1.6 0.5m0.9 1.3l-1-1.3 1.7-0.5c-0.4 0.5-0.6 1.1-0.7 1.8z" fill="#E84F08"/>
	<path d="m7.6 5l0.9-1.3-1.7-0.5c0.5 0.5 0.7 1.1 0.8 1.8" fill="#B5CB00"/>
	<path d="m6.8 3.2c0.5 0.5 0.7 1.1 0.8 1.8l0.9-1.3-1.7-0.5m0.7 1.8c0-0.7-0.3-1.3-0.7-1.8l1.7 0.5-1 1.3z" fill="#E84F08"/>
	<polyline points="6.8 6.8 6.8 6.8 6.8 6.8 6.8 6.8" fill="#FDE085"/>
	<polyline points="6.8 6.8 6.8 6.8 6.8 6.8 6.8 6.8" fill="#E84F08"/>
	<polyline points="6.8 6.8 6.8 6.8 6.8 6.8 6.8 6.8" fill="#FDE085"/>
	<polyline points="6.8 6.8 6.8 6.8 6.8 6.8 6.8 6.8 6.8 6.8 6.8 6.8 6.8 6.8" fill="#E84F08"/>
	<polyline points="5 7.6 5 7.5 5 7.6" fill="#FDE085"/>
	<polyline points="5 7.6 5 7.6 5 7.5 5 7.6" fill="#FDE085"/>
	<polyline points="5 7.6 5 7.6 5 7.6 5 7.5 5 7.6" fill="#E84F08"/>
	<polyline points="5 7.6 5 7.6 5 7.5 5 7.6" fill="#FDE085"/>
	<polyline points="5 7.6 5 7.6 5 7.5 5 7.6 5 7.6" fill="#E84F08"/>
	<polyline points="5 7.6 5 7.6 5 7.5 5 7.6" fill="#FDE085"/>
	<path d="m7.6 5c0 1.4-1.1 2.6-2.6 2.6-1.4 0-2.6-1.2-2.6-2.6s1.1-2.5 2.5-2.5c1.5-0.1 2.7 1.1 2.7 2.5" fill="#FDE085"/>
	<path d="m5 2.5c-1.4 0-2.5 1.1-2.5 2.5s1.1 2.5 2.5 2.5 2.5-1.1 2.5-2.5-1.1-2.5-2.5-2.5m0 5.1c-1.4 0-2.6-1.2-2.6-2.6s1.1-2.6 2.6-2.6c1.4 0 2.6 1.1 2.6 2.6 0 1.4-1.2 2.6-2.6 2.6" fill="#E84F08"/>
	<polyline points="7.1 0.6 7.3 1.6 8.1 1.6 7.1 0.6" fill="#F4DABB"/>
	<path d="m8.1 1.6h-0.8s-0.4 1.4-0.5 1.6l1.7 0.5 0.1-1.6-0.5-0.5" fill="#FADFBF"/>
	<path d="m8.1 1.6h-0.8 0.8m0.5 0.5l-0.1 1.6 0.1-1.6zm-1.8 1.1l0.8 0.2-0.8-0.2z" fill="#F8D4BB"/>
	<path d="m6.8 3.2c0.4 0.4 0.7 1 0.7 1.7v0.1l0.9-1.3-1.6-0.5" fill="#EDF1CC"/>
	<path d="m6.8 3.2l1.7 0.5-0.9 1.3v-0.1 0.1c0.1-0.2 0.9-1.3 0.9-1.3l-1.7-0.5" fill="#F8D4BB"/>
	<path d="m6.8 3.2c0.5 0.5 0.7 1.1 0.8 1.8v-0.1c-0.1-0.7-0.3-1.2-0.8-1.7" fill="#F8D4BB"/>
	<path d="m7.8 0.8c0 0.1 0.1 0.1 0.2 0.2-0.1-0.1-0.2-0.1-0.2-0.2m0.3 0.2c0.1 0.1 0.2 0.2 0.3 0.2-0.2 0-0.2-0.1-0.3-0.2" fill="#fff"/>
	<path d="m8 1" fill="#F9D9BC"/>
	<path d="m7.7 0.8c0.3 0.2 0.5 0.3 0.7 0.5l-0.1-0.1c-0.1 0-0.2-0.1-0.2-0.2h-0.1c-0.1-0.1-0.2-0.1-0.3-0.2" fill="#F8D4BB"/>
	<line y1="1.6" x2="8.6" x1="8.6" y2="1.6" fill="#fff"/>
	<polyline points="8.6 1.5 8.6 1.6 8.6 1.6 8.6 1.5" fill="#F8D4BB"/>
	<polyline points="8.6 1.6 8.6 1.6 8.6 1.6 8.7 1.6 8.7 1.6 8.6 1.6" fill="#F8D4BB"/>
	<polyline points="8.7 1.6 8.7 1.6 8.7 1.6 8.7 1.6 8.7 1.6" fill="#F8D4BB"/>
	<polyline points="7.1 0.6 7.3 1.6 7.3 1.6 7.1 0.6 7.1 0.6" fill="#F4DABB"/>
	<path d="m7.3 1.6c0 0.1-0.4 1.4-0.5 1.6 0.1-0.1 0.5-1.6 0.5-1.6" fill="#FADFBF"/>
	<path d="m7.3 1.6m-0.5 1.6z" fill="#F8D4BB"/>
	<polyline points="8.6 2.9 8.5 3.7 8.6 2.9" fill="#F8D4BB"/>
	<polyline points="8.5 3.7 8.5 3.7 8.5 3.7 8.5 3.7 8.5 3.7" fill="#F8D4BB"/>
	<polyline points="8.6 2.1 8.5 3.7 8.5 3.7 8.5 3.7 8.6 2.9 8.6 2.1 8.6 2.1" fill="#F8D4BB"/>
	<path d="m8.3 4l-0.7 1c0-0.1 0.4-0.6 0.7-1" fill="#FADFBF"/>
	<polyline points="8.3 4 7.6 5 8.3 4 8.3 4" fill="#F8D4BB"/>
	<polyline points="7.6 5 7.6 5 7.6 5" fill="#F8D4BB"/>
	<polyline points="6.8 3.2 6.8 3.2 6.8 3.2 6.8 3.2 6.8 3.2" fill="#F8D4BB"/>
	<polyline points="6.8 3.2 6.8 3.2 6.8 3.2 6.8 3.2 6.8 3.2" fill="#F8D4BB"/>
	<path d="m6.8 3.2m1.7 0.5s-0.8 1.1-0.9 1.3l0.7-1c0.1-0.2 0.2-0.3 0.2-0.3z" fill="#F8D4BB"/>
	<path d="m6.8 3.3c0.4 0.5 0.7 1 0.7 1.6 0-0.6-0.2-1.2-0.7-1.6" fill="#FFF7E3"/>
	<path d="m6.8 3.2c0.5 0.5 0.7 1.1 0.7 1.7v0.1c0-0.7-0.2-1.3-0.7-1.8" fill="#F8D4BB"/>
	<polyline points="3.8 1.3 3.5 1.6 5 2.4 3.8 1.3" fill="#F8CB9A"/>
	<polyline points="4.5 2.2 5 2.4 4.5 2.2" fill="#F5BB98"/>
	<path d="m3.5 1.6l-0.4 0.1c0 0.6 0.1 1.3 0.1 1.5v-0.2l0.3-1.4" fill="#EBB58F"/>
	<polyline points="3.2 2.9 3.2 3.2 3.2 2.9" fill="#F5BB98"/>
	<polyline points="3.2 0.7 3.1 0.7 3.5 1.6 3.8 1.3 3.2 0.7" fill="#F6C397"/>
	<polyline points="3.8 1.3 3.5 1.6 3.5 1.6 3.5 1.6 3.8 1.3 3.8 1.3" fill="#F5BB98"/>
	<path d="m3.1 0.8h-0.1c0 0.2 0 0.5 0.1 0.8l0.4-0.1-0.4-0.7" fill="#D89B86"/>
	<polyline points="3.1 0.7 3.1 0.8 3.1 0.8 3.5 1.6 3.1 1.6 3.1 1.7 3.5 1.6 3.5 1.6 3.5 1.6 3.5 1.6 3.1 0.7" fill="#F5BB98"/>
	<polyline points="1.6 6.6 1.5 7.8 1.5 7.8 1.8 8.2 3.2 6.8 1.6 6.6" fill="#EBB58F"/>
	<path d="m1.6 6.6l-0.1 1.2 0.1-1.2m0.3 0l1.3 0.2-1.3-0.2z" fill="#F5BB98"/>
	<path d="m2.4 5v0.2c-0.2 0.2-0.5 0.8-0.7 1.1l-0.1 0.3 1.6 0.2c-0.3-0.3-0.6-0.7-0.7-1.2 0-0.2-0.1-0.4-0.1-0.6" fill="#D8C499"/>
	<path d="m2.4 5s0 0.1-0.1 0.1l0.1-0.1m0.1 0.6c0.1 0.4 0.3 0.8 0.7 1.2l-1.6-0.2 0.1-0.2c0 0.1-0.1 0.2-0.1 0.2l1.6 0.2c-0.3-0.3-0.6-0.7-0.7-1.2" fill="#F5BB98"/>
	<path d="m3.5 1.6l-0.3 1.6c0.4-0.4 0.8-0.6 1.3-0.7h0.5l-1.5-0.9" fill="#F7F5C8"/>
	<path d="m3.5 1.6l-0.3 1.3v0.2c0.4-0.3 0.8-0.5 1.3-0.6-0.5 0.1-0.9 0.3-1.3 0.7l0.3-1.6 1.5 0.8-1.5-0.8" fill="#F5BB98"/>
	<polyline points="3.2 3.2 3.2 3.2 3.2 3.2 3.2 3.2" fill="#F5BB98"/>
	<path d="m5 2.5c-1.4 0-2.5 1.1-2.5 2.4v0.1c0 0.7 0.3 1.3 0.7 1.8l1.8-4.3" fill="#FFF4D4"/>
	<path d="m5 2.4h-0.5c-0.5 0.2-0.9 0.4-1.3 0.8-0.2 0.2-0.7 0.8-0.7 1.7 0-1.4 1.1-2.4 2.5-2.5m-2.5 2.6c0 0.2 0 0.4 0.1 0.6 0.1 0.5 0.4 0.9 0.7 1.2-0.6-0.5-0.8-1.1-0.8-1.8" fill="#F5BB98"/>
	<path d="m2.9 0.4m-1.4 8.1" fill="#fff"/>
	<polyline points="1.5 8.5 1.5 8.5 1.5 8.5 1.5 8.6 1.5 8.6 1.5 8.5 1.5 8.5 1.5 8.5" fill="#F5BB98"/>
	<polyline points="1.5 8.5 1.5 8.5 1.5 8.6 1.5 8.5 1.5 8.5" fill="#F5BB98"/>
	<polyline points="3.8 1.3 3.8 1.3 5 2.4 5 2.4 5 2.4 3.8 1.3" fill="#F8CB9A"/>
	<polyline points="5 2.4 5 2.4 5 2.4 5 2.4 5 2.4 5 2.4" fill="#F5BB98"/>
	<polyline points="3.2 0.7 3.2 0.7 3.8 1.3 3.8 1.3 3.2 0.7" fill="#F6C397"/>
	<polyline points="3.8 1.3 3.8 1.3 3.8 1.3 3.8 1.3 3.8 1.3" fill="#F5BB98"/>
	<polyline points="3.2 6.8 1.8 8.2 1.9 8.2 3.2 6.8 3.2 6.8 3.2 6.8" fill="#EBB58F"/>
	<polyline points="3.2 6.8 3.2 6.8 3.2 6.8 3.2 6.8 3.2 6.8" fill="#F5BB98"/>
	<polyline points="3.2 6.8 3.2 6.8 3.2 6.8 3.2 6.8 3.2 6.8" fill="#F5BB98"/>
	<polyline points="5 2.4 5 2.4 5 2.4 5 2.4" fill="#F5BB98"/>
	<polyline points="3.2 6.8 3.2 6.8 3.2 6.8 3.2 6.8 3.2 6.8" fill="#F5BB98"/>
	<polyline points="5 2.4 5 2.4 5 2.4 5 2.4 5 2.4 5 2.4" fill="#F5BB98"/>
	<polyline points="5 2.5 5 2.5 3.2 6.8 3.2 6.8 5 2.5 5 2.5" fill="#FFF4D4"/>
	<path d="m5 2.4m-1.8 4.4" fill="#F5BB98"/>
	<path d="m3.1 1.7c0 0.7 0.1 1.4 0.1 1.5 0-0.2-0.1-0.9-0.1-1.5" fill="#EBB58F"/>
	<polyline points="3.2 3.2 3.2 3.2 3.2 3.2 3.2 3.2 3.2 3.2" fill="#F5BB98"/>
	<path d="m3 0.8v0.8-0.8" fill="#D89B86"/>
	<polyline points="3.1 1.6 3 1.6 3 1.7 3.1 1.7 3.1 1.6" fill="#F5BB98"/>
	<polyline points="1.6 6.6 1.6 6.6 1.5 7.5 1.6 6.6" fill="#E8A78E"/>
	<polyline points="1.6 6.6 1.6 6.6 1.6 6.6 1.5 7.5 1.5 7.8 1.5 7.8 1.6 6.6" fill="#F5BB98"/>
	<polyline points="1.5 7.8 1.5 7.8 1.5 7.8 1.5 7.8" fill="#EBB58F"/>
	<polyline points="1.6 6.6 1.6 6.6 1.5 7.8 1.5 7.8 1.5 7.8 1.6 6.6 1.6 6.6" fill="#F5BB98"/>
	<polyline points="1.6 6.6 1.6 6.6 1.6 6.6 1.6 6.6 1.6 6.6" fill="#F5BB98"/>
	<path d="m2.4 5.2l-0.7 1.1c0.2-0.3 0.5-0.9 0.7-1.1" fill="#D8C499"/>
	<path d="m2.4 5c-0.1 0.2-0.8 1.5-0.8 1.6 0 0 0.1-0.1 0.1-0.2l0.6-1.2c0.1-0.1 0.1-0.2 0.1-0.2" fill="#F5BB98"/>
	<polyline points="3.2 3.2 3.2 3.2 3.2 3.2 3.2 3.2" fill="#F5BB98"/>
	<path d="m3.1 3.2c-0.2 0.3-0.6 0.8-0.6 1.5 0-0.2 0.1-0.3 0.1-0.5 0.1-0.3 0.3-0.7 0.5-1" fill="#FBDCA2"/>
	<path d="m3.2 3.2c-0.3 0.3-0.5 0.7-0.6 1 0.1-0.4 0.3-0.7 0.6-1m-0.8 1.8" fill="#F5BB98"/>
	<path d="m2.5 4.9v0 0" fill="#FFF4D4"/>
	<path d="m3.2 3.2c-0.3 0.3-0.5 0.6-0.6 1 0 0.2-0.1 0.3-0.1 0.5v0.3-0.1c0-0.9 0.5-1.5 0.7-1.7" fill="#F5BB98"/>
	<path d="m0.3 5l0.1 0.3-0.1-0.3z" fill="#E5A274"/>
	<polyline points="0.4 5.4 0.7 6.9 0.7 6.9 0.4 5.4 0.4 5.4" fill="#D1836E"/>
	<path d="m0.3 5.4m0.4 1.5z" fill="#F2A97F"/>
	<polyline points="5.1 0 5.1 0 5 0 4.8 0.3 5 0.3 5 0.3 5.3 0.3 5.1 0 5.1 0" fill="#F6BA7A"/>
	<polyline points="5 0 5 0 5.1 0 5.1 0 5 0" fill="#F2A477"/>
	<polyline points="5 0 4.8 0.3 4.8 0.3 5 0 5 0 5 0" fill="#F2A477"/>
	<path d="m5.1 0l0.2 0.3 1.5 0.1h-0.1c-0.4-0.3-1-0.4-1.6-0.4" fill="#DBA670"/>
	<path d="m5.1 0l0.2 0.3-0.2-0.3c0.6 0 1.2 0.1 1.7 0.3-0.5-0.2-1.1-0.3-1.7-0.3" fill="#F2A477"/>
	<polyline points="7 0.4 7 0.5 7 0.5 7 0.4 7 0.4" fill="#E8B274"/>
	<path d="m6.9 0.4h0.1-0.1" fill="#DBA670"/>
	<polyline points="7 0.4 7 0.5 7 0.5 7 0.4 7 0.4" fill="#F2A477"/>
	<path d="m8 8.6l-1.1 0.9v0.1c0.6-0.2 1.1-0.6 1.6-1h-0.5" fill="#DBA670"/>
	<polyline points="6.9 9.5 6.9 9.5 6.9 9.6 6.9 9.6 6.9 9.5" fill="#F2A477"/>
	<path d="m8.7 1.6v0.4l0.3 0.4 0.3 0.9 0.4-0.2c-0.1-0.1-0.2-0.2-0.2-0.3-0.2-0.4-0.5-0.8-0.8-1.2" fill="#EDEB8C"/>
	<path d="m8.7 1.6v0.4c-0.1-0.1-0.1-0.3 0-0.4m0.8 1.2c0 0.1 0.1 0.2 0.1 0.4 0-0.2-0.1-0.3-0.1-0.4" fill="#F2A477"/>
	<path d="m9.6 3.2l-0.3 0.2 0.5 1.5 0.2 0.2v-0.1c0-0.6-0.1-1.2-0.4-1.8" fill="#E8B274"/>
	<path d="m9.6 3.2l-0.3 0.1 0.3-0.1c0.3 0.6 0.4 1.2 0.4 1.8 0-0.7-0.1-1.3-0.4-1.8m0.4 1.8v0 0.1-0.1" fill="#F2A477"/>
	<polyline points="9.7 4.9 9.8 5 9.7 5.4 10 5.2 10 5.2 10 5.1 9.7 4.9" fill="#F6BA7A"/>
	<polyline points="9.7 4.9 9.7 4.9 10 5.1 10 5.2 10 5.1 10 5.1 9.7 4.9" fill="#F2A477"/>
	<polyline points="8.7 1.6 8.6 2.1 8.7 1.6" fill="#F2A477"/>
	<path d="m10 5.2l-0.3 0.2-0.2 1.2-0.2 0.3 0.3 0.1c0-0.1 0-0.1 0.1-0.2 0.1-0.5 0.3-1 0.3-1.6" fill="#DC8570"/>
	<path d="m10 5.2l-0.3 0.2 0.3-0.2c0 0.6-0.1 1.1-0.3 1.6 0.1-0.5 0.3-1 0.3-1.6" fill="#F2A477"/>
	<path d="m9.3 6.9l-0.4 0.9-0.4 0.3v0.4c0.5-0.4 0.8-0.9 1.1-1.5l-0.3-0.1" fill="#E8B274"/>
	<polyline points="9.3 6.9 9.3 6.9 9.6 7 9.6 7 9.3 6.9" fill="#F2A477"/>
	<polyline points="8.5 8.1 8 8.5 8.5 8.6 8.5 8.5 8.5 8.1" fill="#F6BA7A"/>
	<path d="m8.5 8.1v0.4-0.4m-0.5 0.4h0.5-0.5z" fill="#F2A477"/>
	<path d="m3.3 9.3l-0.1 0.3c0.5 0.3 1.1 0.4 1.6 0.4l-0.2-0.4-1.3-0.3" fill="#CA8B64"/>
	<path d="m3.3 9.3l-0.1 0.3c0.5 0.2 1.1 0.4 1.7 0.4l-0.3-0.4 0.2 0.4c-0.6 0-1.1-0.1-1.6-0.3l0.1-0.4" fill="#F2A477"/>
	<path d="m2.2 8.5h-0.7c0.4 0.5 0.9 0.8 1.5 1 0.1 0 0.2 0.1 0.2 0.1l0.1-0.3-0.5-0.1-0.6-0.7" fill="#CB8C62"/>
	<path d="m2.2 8.5h-0.7 0.7m1.1 0.8l-0.1 0.3c-0.1 0-0.2 0-0.2-0.1 0.1 0 0.2 0.1 0.2 0.1l0.1-0.3z" fill="#F2A477"/>
	<polyline points="1.8 8.2 1.5 8.5 1.5 8.6 2.2 8.5 1.8 8.2" fill="#E39C6C"/>
	<polyline points="2.2 8.5 1.5 8.6 1.5 8.6 2.2 8.5 2.2 8.5" fill="#F2A477"/>
	<polyline points="4.6 9.6 4.9 10 4.9 10 4.9 9.7 4.6 9.6" fill="#CC7C65"/>
	<path d="m6.8 9.5l-1.8 0.2h-0.1v0.3h0.1c0.3 0 0.6 0 0.9-0.1 0.3 0 0.5-0.1 0.8-0.2 0 0 0.1-0.1 0.1-0.2" fill="#DC8570"/>
	<path d="m6.8 9.5m-0.1 0.2c-0.3 0.1-0.5 0.2-0.8 0.2 0.3 0 0.5-0.1 0.8-0.2m-1.8 0v0.3h0.1-0.1v-0.3zm1 0.2m-0.9 0.1z" fill="#F2A477"/>
	<polyline points="6.9 9.5 6.9 9.5 6.8 9.5 6.9 9.6 6.9 9.6 6.9 9.5" fill="#EBAC79"/>
	<polyline points="6.9 9.5 6.9 9.5 6.9 9.6 6.9 9.6 6.9 9.5" fill="#ECBC79"/>
	<path d="m0.7 6.9l-0.3 0.1c0.2 0.6 0.6 1.1 1 1.5v-0.7l-0.7-0.9" fill="#E0896D"/>
	<path d="m0.7 6.9l-0.3 0.1 0.3-0.1m0.8 0.9v0.7-0.7z" fill="#F2A477"/>
	<polyline points="0.7 6.9 0.4 7 0.4 7 0.7 6.9 0.7 6.9 0.7 6.9" fill="#F2A477"/>
	<path d="m7 0.5l1.1 1.1h0.5c-0.3-0.3-0.6-0.6-0.9-0.8s-0.6-0.3-0.7-0.3" fill="#F9EBDC"/>
	<polyline points="8.6 1.6 8.1 1.6 8.6 2 8.6 1.6 8.6 1.6" fill="#FCEEDE"/>
	<path d="m8.6 1.6h-0.5 0.5v0.4-0.4z" fill="#FBE8DC"/>
	<path d="m7 0.4v0.1-0.1c0.1 0 0.4 0.2 0.7 0.4-0.2-0.1-0.4-0.2-0.7-0.4" fill="#F9EBDC"/>
	<polyline points="8.6 1.6 8.6 2 8.6 2.1 8.7 1.6 8.6 1.6" fill="#FBE8DC"/>
	<polyline points="1.5 7.8 1.5 8.5 1.8 8.2 1.5 7.8" fill="#F3D9C4"/>
	<polyline points="1.5 7.8 1.5 8.5 1.5 8.5 1.5 7.8 1.5 7.8" fill="#F9DCC9"/>
	<polyline points="1.5 7.8 1.5 8.5 1.5 8.5 1.8 8.2 1.8 8.2 1.5 8.5 1.5 7.8 1.5 7.8" fill="#F3D9C4"/>
	<polyline points="1.5 7.8 1.5 8.5 1.5 8.5 1.5 7.8 1.5 7.8" fill="#F9DCC9"/>
	<path d="m2.9 0.5c-0.6 0.3-1.1 0.6-1.5 1l0.2 0.2 0.7-0.7 0.7-0.2c-0.1-0.2-0.1-0.3-0.1-0.3" fill="#CC7C65"/>
	<path d="m2.9 0.5m-1.4 1.1l0.1 0.1-0.1-0.1z" fill="#F2A477"/>
	<path d="m1.4 1.5c-0.4 0.5-0.8 1.1-1 1.7l0.4 0.2 0.4-1.2 0.4-0.4-0.2-0.3" fill="#E18F6C"/>
	<polyline points="1.4 1.5 1.4 1.5 1.6 1.7 1.6 1.7 1.4 1.5" fill="#F2A477"/>
	<path d="m0.4 3.2c-0.1 0-0.1 0.1 0 0-0.3 0.6-0.4 1.1-0.4 1.6v0.2l0.3-0.3 0.4-1.3-0.3-0.2" fill="#CBB178"/>
	<path d="m0.4 3.2l0.4 0.2-0.4-0.2m-0.1 0.1c-0.2 0.5-0.3 1-0.3 1.5 0-0.5 0.1-1 0.3-1.5m0.1 1.4l-0.4 0.3 0.4-0.3zm-0.4 0.1m0 0.1m0 0.1" fill="#F2A477"/>
	<path d="m3 0.5v0.3h0.1l-0.1-0.3" fill="#EBCBBE"/>
	<polyline points="2.9 0.5 3 0.5 3.1 0.7 3.1 0.7 3 0.5 2.9 0.5" fill="#F9DCC9"/>
	<path d="m2.9 0.5v0.3c0.1-0.1 0.1-0.2 0-0.3" fill="#EBCBBE"/>
	<polyline points="2.9 0.5 2.9 0.5 2.9 0.5 2.9 0.5 3 0.5 2.9 0.5 3 0.5 2.9 0.5" fill="#F9DCC9"/>
	<path d="m5 0c-0.5 0-1 0.1-1.4 0.2l-0.6 0.3 0.2 0.2 0.6-0.3 0.9-0.1 0.3-0.3" fill="#FBE8D7"/>
	<path d="m5 0l-0.2 0.3 0.2-0.3m-1.4 0.2c-0.2 0.1-0.5 0.2-0.6 0.3l0.6-0.3" fill="#FAE4D6"/>
	<polyline points="3 0.5 3.1 0.7 3.2 0.7 3 0.5" fill="#FDF5EF"/>
	<polyline points="3 0.5 3.1 0.7 3.1 0.7 3.1 0.7 3 0.5 3 0.5" fill="#FDF5EF"/>
	<polyline points="3 0.5 2.9 0.5 3 0.5 3.2 0.7 3.2 0.7 3 0.5" fill="#FDF5EF"/>
	<polyline points="3 0.5 2.9 0.5 3 0.5 3 0.5" fill="#FDF5EF"/>
	<polyline points="2.9 0.5 2.9 0.5 3 0.5 3 0.5 2.9 0.5" fill="#FDF5EF"/>
	<polyline points="0.3 4.7 0 5 0 5 0 5 0 5 0.3 5.3 0.3 5 0.3 4.7" fill="#F1CFB6"/>
	<polyline points="0 5 0 5 0 5 0 5 0 5" fill="#F8D4BB"/>
	<polyline points="0.4 4.7 0 5 0 5 0.3 4.7 0.4 4.7" fill="#F8D4BB"/>
	<path d="m0 5.1c0 0.4 0.1 0.8 0.2 1.2 0 0.2 0.1 0.5 0.2 0.7l0.2-0.1-0.3-1.5-0.3-0.3" fill="#E6BFAF"/>
	<path d="m0 5c0 0.4 0.1 0.8 0.2 1.2-0.1-0.3-0.2-0.7-0.2-1.2l0.3 0.3-0.3-0.3m0.7 1.9l-0.3 0.1 0.3-0.1z" fill="#F8D4BB"/>
	<path d="m5 0c0.6 0 1.2 0.1 1.7 0.3-0.5-0.2-1.1-0.3-1.7-0.3m-1.5 0.2c-0.2 0.1-0.4 0.2-0.6 0.2 0.2 0 0.4-0.1 0.6-0.2" fill="#fff"/>
	<path d="m6.7 0.3" fill="#C7DB8C"/>
	<path d="m7 0.4m0 0.1z" fill="#E8B274"/>
	<path d="m7 0.4s0.3 0.2 0.7 0.4c-0.2-0.1-0.4-0.3-0.7-0.4z" fill="#F2A477"/>
	<path d="m5.1 0m-0.1 0.3h-0.2 0.2 0.3-0.3z" fill="#F6BA7A"/>
	<path d="m5.1 0z" fill="#F2A477"/>
	<polyline points="4.7 0.3 3.8 0.4 3.2 0.7 3.2 0.7 3.8 0.4 4.7 0.3 4.7 0.3" fill="#F3AC75"/>
	<path d="m5 0c-0.5 0-1 0.1-1.5 0.2-0.2 0.1-0.4 0.2-0.6 0.2 0.9-0.4 1.9-0.4 2.1-0.4m-0.2 0.3z" fill="#F2A477"/>
	<path d="m5.3 0.3l1.6 0.1 0.1 0.1-0.1-0.1h0.1c-0.1 0-0.1-0.1-0.2-0.1h0.1-1.6" fill="#DBA670"/>
	<path d="m5.1 0c0.6 0 1.2 0.1 1.8 0.4 0.1 0 0.1 0.1 0.2 0.1-0.1 0-0.2-0.1-0.3-0.1h-0.1c-0.5-0.3-1.1-0.4-1.6-0.4m0.2 0.3zm1.7 0.2z" fill="#F2A477"/>
	<polyline points="2.9 0.4 2.9 0.4 2.9 0.4 2.9 0.4" fill="#F2A477"/>
	<path d="m2.9 0.4v0 0m-2.6 2.9c-0.1 0.4-0.2 0.7-0.3 1.1 0.1-0.4 0.2-0.7 0.3-1.1m-0.3 1.1m0 0.6zc0 0.4 0 0.8 0.1 1.1-0.1-0.3-0.1-0.7-0.1-1.1z" fill="#fff"/>
	<polyline points="0 5 0 5 0 5 0 5 0 5" fill="#F2A477"/>
	<path d="m0.4 7c0.2 0.6 0.6 1.1 1 1.5-0.4-0.4-0.7-0.9-1-1.5" fill="#E0896D"/>
	<path d="m0.4 7c0.2 0.6 0.6 1.1 1 1.5-0.4-0.4-0.7-0.9-1-1.5" fill="#F2A477"/>
	<polyline points="2.9 0.4 2.9 0.4 2.9 0.4" fill="#F2A477"/>
	<path d="m2.8 0.5c-0.5 0.3-1 0.6-1.4 1 0.4-0.4 0.9-0.7 1.4-1" fill="#CC7C65"/>
	<path d="m2.9 0.4v0c-0.6 0.3-1.1 0.7-1.5 1.1 0.4-0.4 0.9-0.7 1.5-1.1v0" fill="#F2A477"/>
	<path d="m1.4 1.5c-0.4 0.5-0.8 1.1-1 1.7 0.2-0.6 0.6-1.2 1-1.7" fill="#E18F6C"/>
	<path d="m1.4 1.5c-0.4 0.5-0.8 1.1-1.1 1.7 0.3-0.6 0.7-1.2 1.1-1.7" fill="#F2A477"/>
	<path d="m0.4 3.2c-0.1 0-0.1 0.1 0 0-0.1 0.1-0.1 0 0 0m-0.4 1.6zm0 0.1m0 0.1" fill="#CBB178"/>
	<path d="m0.3 3.2v0.1c-0.1 0.4-0.2 0.7-0.3 1.1v0.6c0-0.5 0.1-1.1 0.3-1.5v-0.3" fill="#F2A477"/>
	<path d="m0 5c0 0.4 0 0.8 0.1 1.1 0.1 0.4 0.2 0.7 0.3 0.9 0 0-0.2-0.5-0.3-1-0.1-0.4-0.1-0.9-0.1-1" fill="#F2A477"/>
	<polyline points="0.4 4.7 0.4 4.7 0.3 5 0.4 4.7" fill="#E39C6C"/>
	<polyline points="3 0.8 2.4 1.1 1.6 1.7 1.7 1.7 2.4 1.1 3 0.8 3 0.8" fill="#CC7C65"/>
	<polyline points="1.6 1.7 1.7 1.7 1.6 1.7" fill="#F2A477"/>
	<polyline points="1.6 1.7 1.2 2.1 0.8 3.4 0.8 3.4 1.2 2.2 1.6 1.8 1.6 1.7" fill="#E18F6C"/>
	<polyline points="1.6 1.7 1.6 1.7 1.6 1.8 1.7 1.7 1.6 1.7" fill="#F2A477"/>
	<polyline points="0.8 3.4 0.4 4.7 0.4 4.7 0.8 3.4 0.8 3.4" fill="#CBB178"/>
	<path d="m0.8 3.4m-0.4 1.3z" fill="#F2A477"/>
	<path d="m8.4 1.3c0.1 0.1 0.2 0.1 0.2 0.2-0.1 0-0.1-0.1-0.2-0.2" fill="#F2A477"/>
	<path d="m9.5 2.8c0 0.1 0.1 0.2 0.2 0.4 0.2 0.6 0.3 1.2 0.3 1.8 0-0.8-0.2-1.6-0.5-2.2m0.5 2.2m0 0.2c0 0.6-0.1 1.1-0.3 1.6 0.2-0.5 0.3-1.1 0.3-1.6m-7 4.4c0.6 0.2 1.3 0.4 2 0.4h-0.1c-0.6 0-1.1-0.1-1.7-0.3-0.1-0.1-0.2-0.1-0.2-0.1m2 0.4z" fill="#fff"/>
	<path d="m10 5.1" fill="#DC8570"/>
	<path d="m6.6 9.7c-0.2 0.1-0.3 0.1-0.5 0.2 0.2-0.1 0.3-0.1 0.5-0.2m-0.5 0.2" fill="#fff"/>
	<path d="m8.5 8.6c-0.5 0.4-1 0.8-1.6 1 0.6-0.2 1.1-0.6 1.6-1" fill="#DBA670"/>
	<path d="m8.5 8.6c-0.5 0.4-1 0.8-1.6 1 0.6-0.2 1.1-0.6 1.6-1" fill="#F2A477"/>
	<path d="m8.7 1.6c0.3 0.4 0.6 0.8 0.8 1.2-0.2-0.4-0.5-0.8-0.8-1.2" fill="#EDEB8C"/>
	<path d="m8.7 1.6c0.3 0.4 0.6 0.8 0.8 1.2 0 0.1 0.1 0.2 0.1 0.4 0-0.2-0.1-0.3-0.1-0.4-0.2-0.4-0.5-0.9-0.8-1.2" fill="#F2A477"/>
	<path d="m10 5" fill="#E8B274"/>
	<path d="m9.7 3.2c0.2 0.5 0.3 1.1 0.3 1.8v0.1-0.1-0.1c0-0.5-0.1-1.1-0.3-1.7" fill="#F2A477"/>
	<polyline points="10 5.2 10 5.2 10 5.2 10 5.2" fill="#F6BA7A"/>
	<path d="m10 5.1m0 0.1" fill="#F2A477"/>
	<polyline points="8.7 1.6 8.7 1.6 8.7 1.6 8.7 1.6" fill="#F2A477"/>
	<path d="m3.2 9.6c0.5 0.3 1.1 0.4 1.7 0.4-0.6 0-1.2-0.2-1.7-0.4" fill="#F2A477"/>
	<path d="m1.5 8.6c0.4 0.4 0.9 0.7 1.5 0.9-0.6-0.2-1.1-0.5-1.5-0.9" fill="#CB8C62"/>
	<path d="m1.5 8.6c0.4 0.4 0.9 0.7 1.5 1 0.1 0 0.2 0.1 0.2 0.1-0.1-0.1-0.2-0.1-0.2-0.2-0.6-0.2-1.1-0.5-1.5-0.9" fill="#F2A477"/>
	<polyline points="1.5 8.5 1.5 8.5 1.5 8.6 1.5 8.6 1.5 8.5" fill="#E39C6C"/>
	<polyline points="1.5 8.5 1.5 8.5 1.5 8.6 1.5 8.6 1.5 8.6 1.5 8.6 1.5 8.5" fill="#F2A477"/>
	<path d="m9.6 6.8c0 0.1 0 0.1-0.1 0.2 0.1-0.1 0.1-0.1 0.1-0.2" fill="#DC8570"/>
	<path d="m10 5.2c0 0.6-0.2 1.1-0.4 1.7 0 0.1 0 0.1-0.1 0.2 0-0.1 0.1-0.1 0.1-0.2 0.3-0.6 0.4-1.2 0.4-1.7" fill="#F2A477"/>
	<path d="m9.6 7c-0.3 0.6-0.6 1.1-1.1 1.5 0.5-0.4 0.8-0.9 1.1-1.5" fill="#E8B274"/>
	<path d="m9.6 7c-0.3 0.6-0.6 1.1-1.1 1.5 0.5-0.4 0.8-0.9 1.1-1.5" fill="#F2A477"/>
	<polyline points="4.9 10 4.9 10 4.9 10 4.9 10 4.9 10" fill="#CC7C65"/>
	<polyline points="8.5 8.5 8.5 8.6 8.5 8.6 8.5 8.5 8.5 8.5" fill="#F6BA7A"/>
	<polyline points="8.5 8.5 8.5 8.5 8.5 8.5 8.5 8.6 8.5 8.6 8.5 8.6 8.5 8.6 8.5 8.6 8.5 8.6 8.5 8.6 8.5 8.5 8.5 8.5 8.5 8.5" fill="#F2A477"/>
	<path d="m6.9 9.6c-0.1 0-0.1 0.1-0.2 0.1 0 0 0.1-0.1 0.2-0.1m-1 0.3c-0.3 0.1-0.6 0.1-0.9 0.1 0.3 0 0.6 0 0.9-0.1m-0.9 0.1" fill="#DC8570"/>
	<path d="m6.9 9.6c-0.1 0-0.1 0.1-0.2 0.1-0.3 0.1-0.5 0.2-0.8 0.2-0.3 0.1-0.6 0.1-0.9 0.1h-0.1 0.1c0.4 0 0.7 0 1.1-0.1 0.2 0 0.3-0.1 0.5-0.1 0.1-0.1 0.2-0.1 0.3-0.2" fill="#F2A477"/>
	<polyline points="6.9 9.6 6.9 9.6 6.9 9.6 6.9 9.6 6.9 9.6 6.9 9.6" fill="#EBAC79"/>
	<polyline points="6.9 9.6 6.9 9.6 6.9 9.6 6.9 9.6 6.9 9.6" fill="#ECBC79"/>
	<polyline points="8 8.6 6.9 9.5 6.9 9.5 8 8.6 8 8.6" fill="#DBA670"/>
	<polyline points="6.9 9.5 6.9 9.5 6.9 9.5 6.9 9.5 6.9 9.5" fill="#F2A477"/>
	<polyline points="8.6 2.1 8.6 2.1 9 2.4 9.3 3.3 9.3 3.3 9 2.4 8.6 2.1" fill="#EDEB8C"/>
	<polyline points="8.6 2.1 8.6 2.1 8.6 2.1 8.6 2.1 8.6 2.1" fill="#F2A477"/>
	<polyline points="9.3 3.4 9.3 3.4 9.7 4.9 9.7 4.9 9.3 3.4" fill="#E8B274"/>
	<polyline points="9.3 3.3 9.3 3.3 9.3 3.4 9.3 3.4 9.3 3.3" fill="#F2A477"/>
	<polyline points="9.7 4.9 9.8 5 9.7 5.4 9.7 5.4 9.8 5 9.7 4.9 9.7 4.9" fill="#F6BA7A"/>
	<polyline points="9.7 4.9 9.7 4.9 9.7 4.9 9.7 4.9 9.7 4.9" fill="#F2A477"/>
	<polyline points="8.6 2.1 8.6 2.1 8.6 2.1 8.6 2.1" fill="#F2A477"/>
	<polyline points="9.7 5.4 9.7 5.5 9.5 6.6 9.3 6.9 9.3 6.9 9.5 6.6 9.7 5.4" fill="#DC8570"/>
	<polyline points="9.7 5.4 9.7 5.4 9.7 5.5 9.7 5.4 9.7 5.4" fill="#F2A477"/>
	<polyline points="9.3 6.9 8.9 7.8 8.5 8.1 8.5 8.1 8.9 7.8 9.3 6.9 9.3 6.9" fill="#E8B274"/>
	<polyline points="9.3 6.9 9.3 6.9 9.3 6.9 9.3 6.9 9.3 6.9" fill="#F2A477"/>
	<polyline points="8.5 8.1 8 8.5 8 8.5 8.5 8.1 8.5 8.1" fill="#F6BA7A"/>
	<path d="m8.5 8.1m-0.5 0.4z" fill="#F2A477"/>
	<polyline points="3.3 9.3 3.3 9.3 4.6 9.6 4.6 9.6 3.3 9.3" fill="#CA8B64"/>
	<path d="m3.3 9.3m1.3 0.3z" fill="#F2A477"/>
	<polyline points="2.2 8.5 2.2 8.5 2.8 9.2 3.3 9.3 3.3 9.3 2.8 9.2 2.2 8.5" fill="#CB8C62"/>
	<path d="m2.2 8.5m1.1 0.8z" fill="#F2A477"/>
	<polyline points="1.9 8.2 1.8 8.2 2.2 8.5 2.2 8.5 1.9 8.2" fill="#E39C6C"/>
	<polyline points="2.2 8.5 2.2 8.5 2.2 8.5 2.2 8.5 2.2 8.5" fill="#F2A477"/>
	<polyline points="4.6 9.6 4.6 9.6 4.9 9.7 4.9 9.7 4.6 9.6" fill="#CC7C65"/>
	<polyline points="6.8 9.5 5 9.7 4.9 9.7 4.9 9.7 5 9.7 6.8 9.5 6.8 9.5" fill="#DC8570"/>
	<path d="m6.8 9.5m-1.9 0.2z" fill="#F2A477"/>
	<polyline points="6.9 9.5 6.9 9.5 6.8 9.5 6.8 9.5 6.9 9.5 6.9 9.5 6.9 9.5" fill="#EBAC79"/>
	<polyline points="6.9 9.5 6.9 9.5 6.9 9.5 6.9 9.5 6.9 9.5" fill="#ECBC79"/>
	<polyline points="0.7 6.9 0.7 6.9 1.5 7.8 1.5 7.8 0.7 6.9" fill="#E0896D"/>
	<path d="m0.7 6.9m0.8 0.9z" fill="#F2A477"/>
	<polyline points="0.7 6.9 0.7 6.9 0.7 6.9 0.7 6.9 0.7 6.9 0.7 6.9" fill="#F2A477"/>
	<polyline points="7.1 0.6 7.1 0.6 8.1 1.6 8.1 1.6 7.1 0.6" fill="#F9EBDC"/>
	<polyline points="8.1 1.6 8.1 1.6 8.6 2.1 8.6 2 8.1 1.6" fill="#FCEEDE"/>
	<path d="m8.1 1.6m0.5 0.4z" fill="#FBE8DC"/>
	<path d="m7.7 0.8c0.3 0.2 0.6 0.5 0.9 0.8l-0.3-0.3c-0.2-0.2-0.3-0.3-0.6-0.5" fill="#F9EBDC"/>
	<path d="m7.8 0.8l0.5 0.5c-0.1-0.1-0.1-0.2-0.2-0.2l-0.3-0.3m0.8 0.7" fill="#FBE8DC"/>
	<polyline points="8.6 1.6 8.6 1.6 8.6 1.6 8.6 1.6 8.6 1.6 8.6 1.6" fill="#FCEEDE"/>
	<path d="m8.6 1.6" fill="#FBE8DC"/>
	<polyline points="8.6 1.6 8.6 1.6 8.6 1.6 8.6 1.6" fill="#fff"/>
	<path d="m7 0.4c0.2 0.1 0.5 0.2 0.7 0.4-0.2-0.1-0.4-0.2-0.7-0.4m1.3 0.9l0.3 0.3-0.3-0.3" fill="#F9EBDC"/>
	<path d="m7 0.4c0.2 0.1 0.5 0.3 0.7 0.4s0.3 0.2 0.4 0.3 0.2 0.1 0.2 0.2l0.3 0.3-0.2-0.2c-0.2-0.3-0.4-0.4-0.7-0.6s-0.7-0.4-0.7-0.4" fill="#FBE8DC"/>
	<polyline points="8.6 1.6 8.6 1.6 8.7 1.6 8.6 1.6" fill="#FBE8DC"/>
	<polyline points="8.6 1.6 8.6 1.6 8.6 1.6" fill="#FCEEDE"/>
	<polyline points="8.6 1.6 8.6 1.6 8.6 1.6 8.6 1.6 8.6 1.6 8.7 1.6 8.7 1.6 8.7 1.6 8.6 1.6 8.6 1.6 8.6 1.6" fill="#FBE8DC"/>
	<polyline points="7 0.4 7 0.4 7 0.4 7 0.4 7 0.4" fill="#FBE8DC"/>
	<polyline points="7 0.5 7.1 0.6 7.1 0.6 7.1 0.6 7 0.5" fill="#F9EBDC"/>
	<polyline points="8.6 2 8.6 2.1 8.6 2.1 8.6 2.1 8.6 2" fill="#FBE8DC"/>
	<polyline points="3.2 0.7 3.1 0.7 3.1 0.7 3.2 0.7 3.2 0.7" fill="#FAE0C9"/>
	<polyline points="3.1 0.7 3 0.8 3 0.8 3.1 0.8 3.1 0.7" fill="#EBCBBE"/>
	<polyline points="3.1 0.7 3.1 0.7 3.1 0.8 3.1 0.8 3.1 0.7 3.1 0.7 3.1 0.7 3.1 0.7" fill="#F9DCC9"/>
	<polyline points="1.5 7.8 1.5 7.8 1.8 8.2 1.8 8.2 1.5 7.8" fill="#F3D9C4"/>
	<polyline points="2.9 0.4 2.9 0.4 2.9 0.4 2.9 0.4" fill="#fff"/>
	<path d="m2.9 0.4z" fill="#F9DCC9"/>
	<polyline points="2.9 0.4 2.9 0.4 2.9 0.4 2.9 0.5 2.9 0.5 2.9 0.5 2.9 0.5 2.9 0.5 2.9 0.4 2.9 0.4" fill="#F9DCC9"/>
	<polyline points="3.2 0.7 3.2 0.7 3.2 0.7 3.2 0.7 3.2 0.7" fill="#FAE0C9"/>
	<polyline points="3 0.8 3 0.8 3 0.8 3 0.8 3 0.8" fill="#EBCBBE"/>
	<polyline points="1.5 7.8 1.5 7.8 1.5 7.8 1.5 7.8 1.5 7.8" fill="#F9DCC9"/>
	<polyline points="1.5 7.8 1.5 7.8 1.5 7.8 1.5 7.8 1.5 7.8" fill="#F3D9C4"/>
	<polyline points="1.5 7.8 1.5 7.8 1.5 7.8 1.5 7.8 1.5 7.8" fill="#F9DCC9"/>
	<polyline points="1.8 8.2 1.8 8.2 1.8 8.2 1.9 8.2 1.8 8.2" fill="#F3D9C4"/>
	<polyline points="1.5 8.5 1.5 8.5 1.5 8.5 1.5 8.5 1.5 8.5" fill="#F9DCC9"/>
	<polyline points="1.5 8.5 1.5 8.5 1.5 8.5 1.5 8.5 1.5 8.5" fill="#F3D9C4"/>
	<polyline points="1.5 8.5 1.5 8.5 1.5 8.5 1.5 8.5 1.5 8.5 1.5 8.5 1.5 8.5" fill="#F9DCC9"/>
	<path d="m5 0c-0.5 0-1 0.1-1.4 0.2 0.4-0.1 0.9-0.2 1.4-0.2" fill="#FBE8D7"/>
	<path d="m5 0c-0.2 0-1.2 0-2 0.4 0.2-0.1 0.4-0.2 0.6-0.2 0.4-0.1 0.9-0.2 1.4-0.2" fill="#FAE4D6"/>
	<polyline points="2.9 0.4 2.9 0.5 2.9 0.5 3 0.5 2.9 0.4" fill="#FDF5EF"/>
	<polyline points="2.9 0.5 2.9 0.5 2.9 0.5 2.9 0.5 2.9 0.5" fill="#FDF5EF"/>
	<polyline points="0.3 5 0.3 5 0.3 5 0.3 5" fill="#E39C6C"/>
	<polyline points="0.4 4.7 0.3 4.7 0.3 5 0.3 5.3 0.3 5.4 0.3 5 0.3 5 0.3 5 0.3 5 0.4 4.7" fill="#F1CFB6"/>
	<polyline points="0.4 4.7 0.4 4.7 0.3 4.7 0.4 4.7 0.4 4.7" fill="#F8D4BB"/>
	<polyline points="0.3 5.4 0.7 6.9 0.7 6.9 0.4 5.4 0.3 5.4" fill="#E6BFAF"/>
	<path d="m0.3 5.3m0.4 1.6z" fill="#F8D4BB"/>
	<polyline points="4.8 0.3 3.8 0.4 3.2 0.7 3.2 0.7 3.8 0.4 4.7 0.3 4.8 0.3" fill="#FBE8D7"/>
	<polyline points="4.8 0.3 4.8 0.3 4.7 0.3 4.8 0.3 4.8 0.3" fill="#FAE4D6"/>
	<polyline points="3.2 0.7 3.1 0.7 3.1 0.7 3.2 0.7 3.2 0.7" fill="#FDF5EF"/>
	<polyline points="3.1 0.7 3.1 0.7 3.1 0.7 3.1 0.7 3.1 0.7 3.1 0.7" fill="#FDF5EF"/>
	<polyline points="3.2 0.7 3.2 0.7 3.2 0.7 3.2 0.7 3.2 0.7" fill="#FDF5EF"/>
	<polyline points="0 5 0 5 0 5 0 5" fill="#F1CFB6"/>
	<polyline points="0 5 0 5 0 5 0 5 0 5 0 5 0 5" fill="#F8D4BB"/>
	<polyline points="0 5 0 5 0 5 0 5 0 5 0 5" fill="#F8D4BB"/>
	<path d="m0.2 6.2c0 0.3 0.1 0.6 0.2 0.8-0.1-0.2-0.2-0.5-0.2-0.8" fill="#E6BFAF"/>
	<path d="m0 5c0 0.1 0 0.5 0.1 1s0.3 1 0.3 1c-0.1-0.2-0.2-0.5-0.2-0.8-0.1-0.3-0.2-0.7-0.2-1.2" fill="#F8D4BB"/>
</svg>
