<?xml version="1.0" encoding="UTF-8" standalone="no"?>
<!-- Generator: Adobe Illustrator 18.0.0, SVG Export Plug-In . SVG Version: 6.00 Build 0)  -->
<!DOCTYPE svg  PUBLIC '-//W3C//DTD SVG 1.1//EN'  'http://www.w3.org/Graphics/SVG/1.1/DTD/svg11.dtd'>
<svg id="Layer_1" xmlns="http://www.w3.org/2000/svg" xml:space="preserve" viewBox="0 0 31 8" version="1.1" y="0px" x="0px" xmlns:xlink="http://www.w3.org/1999/xlink" enable-background="new 0 0 31 8">
		<path d="m23.4 6.4l0.2 0.1c-0.1 0.4-0.3 0.7-0.6 1s-0.8 0.5-1.4 0.5c-0.4 0-0.8-0.1-1.1-0.3s-0.6-0.5-0.8-0.9-0.3-0.8-0.3-1.4c0-0.5 0.1-1 0.3-1.4s0.5-0.7 0.9-0.9c0.4-0.1 0.8-0.3 1.3-0.3s0.8 0.1 1.1 0.3 0.4 0.4 0.4 0.7c0 0.2-0.1 0.3-0.2 0.4s-0.2 0.1-0.4 0.1c-0.1 0-0.2 0-0.3-0.1s-0.2-0.2-0.2-0.3v-0.2-0.2c0-0.1 0-0.2-0.1-0.3s-0.2-0.1-0.4-0.1c-0.4 0-0.6 0.1-0.9 0.4-0.2 0.3-0.4 0.6-0.5 0.9-0.1 0.4-0.1 0.7-0.1 1.1 0 0.6 0.1 1.1 0.4 1.5s0.7 0.6 1.2 0.6c0.4 0 0.7-0.1 1-0.4 0.2-0.1 0.4-0.4 0.5-0.8z" fill="#008192"/>
	<path d="m12 4c0-0.5 0.1-1 0.3-1.5s0.4-0.9 0.7-1.3 0.7-0.7 1.2-0.9 1-0.3 1.6-0.3 1.1 0.1 1.6 0.3 0.9 0.5 1.2 0.9c0.4 0.4 0.7 0.8 0.8 1.3 0.2 0.5 0.3 1 0.3 1.5s-0.1 1-0.3 1.5c-0.1 0.5-0.4 0.9-0.7 1.3s-0.7 0.7-1.2 0.9-1.1 0.3-1.6 0.3c-0.8 0-1.5-0.2-2-0.5-0.6-0.4-1-0.9-1.3-1.5-0.4-0.6-0.6-1.3-0.6-2zm1.2 0c0 0.6 0.1 1.1 0.3 1.7s0.5 1 0.8 1.4c0.4 0.4 0.9 0.6 1.5 0.6s1.1-0.2 1.5-0.6 0.7-0.9 0.8-1.4c0.2-0.6 0.3-1.1 0.3-1.7 0-0.4 0-0.8-0.1-1.2s-0.2-0.8-0.4-1.2-0.5-0.7-0.8-0.9-0.8-0.3-1.2-0.3c-0.6 0-1.1 0.2-1.5 0.5-0.4 0.4-0.7 0.8-0.9 1.4-0.2 0.5-0.3 1.1-0.3 1.7z" fill="#006276"/>
		<path d="m1.1 5.8c-0.2-1-0.3-2.6-0.3-2.9 0.2-1.4 1-1.4 1.4-2.1 0.7 0.5 0.9 1.4 0.9 1.7 0 0.6-0.2 1-0.1 1.3 0.2 0.4 0.2-1 0.8-1.2 0.2 0.6 0.1 1.3 0 1.7-0.2 0.9-0.8 1.5-1.1 2.5-0.1 0.4-1.5-0.1-1.6-1z" fill="#8F76B3"/>
		<path opacity=".8" d="m2.9 6.2c0.3-0.4 0.8-0.7 1-1.1 0.3-0.5 0.4-1.1 0.3-1.7-0.1-0.2-0.4-0.8-0.5-1.4-0.4 0.4-0.2 1.2-0.2 1.4s-0.1 0.5-0.2 0.7c-0.1 0.3-0.4 0.5-0.4 0.1 0-0.3 0.3-0.6 0.1-0.9-0.2-0.2-0.4 0.4-0.6 0.6-0.3 0.3-0.6 0.7-0.6 1.1 0 0.8-0.6 1.2-0.1 1.7 0.3 0.3 1.1-0.4 1.2-0.5z" fill="#3EB49D"/>
		<path opacity=".8" d="m2.1 5.7c-0.4-0.3-0.9-0.4-1.3-0.8s-0.6-1-0.7-1.6c0-0.4 0.2-1.5 0.3-1.8 0.4 0.2 0.3 1.3 0.3 1.5s0.1 0.5 0.3 0.7c0.2 0.3 0.4 0.3 0.6 0.3-0.3-0.3-0.8-0.9-0.6-1 0.3-0.2 0.7 0.4 0.9 0.6 0.3 0.2 0.5 0.4 0.6 0.7 0.2 0.5 0.5 1.1 0.5 1.8 0 0-0.1 0-0.9-0.4z" fill="#F5A214"/>
	<path d="m28.2 4.9h-2.5l-0.3 0.7c-0.2 0.6-0.4 1-0.4 1.1s-0.1 0.3-0.1 0.4 0 0.3 0.1 0.4 0.1 0.1 0.2 0.1h0.4v0.3h-2.2v-0.3h0.2c0.2 0 0.4-0.2 0.6-0.6s0.6-1.1 0.9-2.1l2-4.9h0.4l2.5 6.9c-0.1 0.1 0 0.2 0 0.3 0.1 0.1 0.1 0.2 0.2 0.2 0.1 0.1 0.2 0.1 0.4 0.1h0.2v0.3h-2.8v-0.2h0.4c0.1 0 0.3 0 0.3-0.1 0.1 0 0.1-0.1 0.1-0.3 0-0.1-0.1-0.4-0.2-0.8l-0.4-1.5zm-2.4-0.4h2.3l-1.1-3.2-1.2 3.2z" fill="#024A5E"/>
	<path d="m6 0.2h2.8c0.5 0 1 0 1.5 0.1s0.9 0.3 1.3 0.7c0.4 0.3 0.6 0.9 0.6 1.5 0 0.7-0.3 1.3-0.8 1.7-0.6 0.4-1.3 0.6-2.3 0.6-0.3 0-0.6 0-1-0.1v2.3c0 0.3 0.1 0.5 0.4 0.5h0.8v0.3h-3.3v-0.2h0.6c0.3 0 0.4-0.2 0.4-0.5v-6.1c0-0.3-0.1-0.5-0.4-0.5h-0.6v-0.3zm2.1 0.6v3.7c0.3 0.1 0.5 0.1 0.8 0.1 0.5 0 0.9-0.1 1.2-0.3s0.6-0.4 0.7-0.7c0.2-0.4 0.2-0.7 0.2-1.1 0-0.3 0-0.6-0.1-0.8s-0.2-0.5-0.3-0.6c-0.2-0.2-0.4-0.3-0.6-0.4s-0.5-0.2-0.9-0.2c-0.3 0-0.7 0.1-1 0.3z" fill="#024A5E"/>
</svg>
