<?xml version="1.0" encoding="UTF-8" standalone="no"?>
<!-- Generator: Adobe Illustrator 18.0.0, SVG Export Plug-In . SVG Version: 6.00 Build 0)  -->
<!DOCTYPE svg  PUBLIC '-//W3C//DTD SVG 1.1//EN'  'http://www.w3.org/Graphics/SVG/1.1/DTD/svg11.dtd'>
<svg id="Layer_1" xmlns="http://www.w3.org/2000/svg" xml:space="preserve" viewBox="0 0 220 73" version="1.1" y="0px" x="0px" xmlns:xlink="http://www.w3.org/1999/xlink" enable-background="new 0 0 220 73">
	<g fill="#5B5A5F">
			<path d="m90.7 24.9c0 0.1-0.1 0.1-0.1 0.1h-2.6c-0.1 0-0.1 0-0.1-0.1v-0.3c0-0.1 0.1-0.1 0.2-0.1h0.2c0.4 0 0.4-0.4 0.4-0.9v-6.2l-4.6 6.6v0.1c0 0.2 0 0.4 0.4 0.4h0.2c0.1 0 0.2 0 0.2 0.1v0.3c0 0.1-0.1 0.1-0.1 0.1h-2.5c-0.1 0-0.1 0-0.1-0.1v-0.3c0-0.1 0.1-0.1 0.2-0.1h0.2c0.4 0 0.4-0.4 0.4-0.9v-6.9c0-0.5 0-0.9-0.4-0.9h-0.2c-0.1 0-0.2 0-0.2-0.1v-0.2c0-0.1 0.1-0.1 0.1-0.1h2.5c0.1 0 0.1 0 0.1 0.1v0.2c0 0.1-0.1 0.1-0.2 0.1h-0.2c-0.4 0-0.4 0.4-0.4 0.9v6.2l4.6-6.6v-0.1c0-0.3-0.1-0.4-0.4-0.4h-0.3c-0.1 0-0.2 0-0.2-0.1v-0.2c0-0.1 0.1-0.1 0.1-0.1h2.5c0.1 0 0.1 0 0.1 0.1v0.2c0 0.1-0.1 0.1-0.2 0.1h-0.2c-0.4 0-0.4 0.4-0.4 0.9v6.9c0 0.5 0 0.9 0.4 0.9h0.2c0.1 0 0.2 0 0.2 0.1v0.3z"/>
			<path d="m97.9 23.9c0 0.5 0.1 0.7 0.4 0.7h0.2c0.1 0 0.1 0 0.1 0.1v0.2c0 0.1 0 0.1-0.1 0.1h-2.3c-0.2 0-0.2 0-0.2-0.1v-0.2c0-0.1 0-0.1 0.1-0.1h0.2c0.3 0 0.4-0.1 0.4-0.7v-2.1h-3.1v2.1c0 0.5 0.1 0.7 0.4 0.7h0.2c0.1 0 0.1 0 0.1 0.1v0.2c0 0.1 0 0.1-0.1 0.1h-2.3c-0.1 0-0.1 0-0.1-0.1v-0.2c0-0.1 0-0.1 0.1-0.1h0.2c0.3 0 0.4-0.1 0.4-0.7v-4.5c0-0.5-0.1-0.7-0.4-0.7h-0.2c-0.1 0-0.1 0-0.1-0.1v-0.2c0-0.1 0-0.1 0.1-0.1h2.3c0.1 0 0.1 0 0.1 0.1v0.2c0 0.1 0 0.1-0.1 0.1h-0.2c-0.3 0-0.4 0.1-0.4 0.7v1.8h3.1v-1.8c0-0.5-0.1-0.7-0.4-0.7h-0.2c-0.1 0-0.1 0-0.1-0.1v-0.2c0-0.1 0-0.1 0.1-0.1h2.3c0.1 0 0.1 0 0.1 0.1v0.2c0 0.1 0 0.1-0.1 0.1h-0.2c-0.3 0-0.4 0.1-0.4 0.7v4.5z"/>
			<path d="m104.6 24.5c-0.4 0.4-1 0.8-2 0.8-1.8 0-2.9-1.4-2.9-3.5 0-2.4 1.3-3.7 3.2-3.7 1.6 0 2.3 0.8 2.3 1.7 0 0.4-0.2 0.7-0.8 0.7-0.5 0-0.6-0.4-0.6-1s-0.3-1-1-1c-1.1 0-1.9 0.9-1.9 3 0 2 1.1 2.8 2 2.8 0.7 0 1.2-0.2 1.5-0.6 0.2-0.2 0.4-0.5 0.6-0.5 0.1 0 0.2 0.1 0.2 0.2 0 0.2-0.1 0.6-0.6 1.1z"/>
			<path d="m109.7 23.9c0 0.5 0.1 0.7 0.4 0.7h0.2c0.1 0 0.1 0 0.1 0.1v0.2c0 0.1 0 0.1-0.1 0.1h-2.3c-0.1 0-0.1 0-0.1-0.1v-0.2c0-0.1 0-0.1 0.1-0.1h0.2c0.3 0 0.4-0.1 0.4-0.7v-5.1h-0.6c-0.8 0-1 0.3-1.2 1.2-0.1 0.5-0.1 0.5-0.3 0.5h-0.1c-0.1 0-0.2-0.1-0.2-0.2v-1.8c0-0.2 0-0.3 0.2-0.3h5.7c0.2 0 0.2 0.1 0.2 0.3v1.8c0 0.2-0.1 0.2-0.2 0.2h-0.1c-0.2 0-0.2-0.1-0.3-0.5-0.3-0.9-0.4-1.2-1.2-1.2h-0.6v5.1z"/>
			<path d="m119.4 23.9c0 0.5 0.1 0.7 0.4 0.7h0.2c0.1 0 0.1 0 0.1 0.1v0.2c0 0.1 0 0.1-0.1 0.1h-2.3c-0.1 0-0.1 0-0.1-0.1v-0.2c0-0.1 0-0.1 0.1-0.1h0.2c0.3 0 0.4-0.1 0.4-0.7v-3.8l-3.2 4v0.1c0 0.3 0.1 0.4 0.4 0.4h0.2c0.1 0 0.2 0.1 0.2 0.1v0.2c0 0.1 0 0.1-0.2 0.1h-2.3c-0.1 0-0.1 0-0.1-0.1v-0.2c0-0.1 0-0.1 0.1-0.1h0.2c0.3 0 0.3-0.2 0.3-0.7v-4.5c0-0.5-0.1-0.7-0.4-0.7h-0.2c-0.1 0-0.1 0-0.1-0.1v-0.2c0-0.1 0-0.1 0.1-0.1h2.3c0.1 0 0.1 0 0.1 0.1v0.2c0 0.1 0 0.1-0.1 0.1h-0.2c-0.3 0-0.4 0.1-0.4 0.7v3.7l3.2-3.9v-0.1c0-0.3 0-0.4-0.3-0.4h-0.2c-0.1 0-0.1-0.1-0.1-0.1v-0.2c0-0.1 0-0.1 0.1-0.1h2.3c0.1 0 0.2 0 0.2 0.1v0.2c0 0.1 0 0.1-0.2 0.1h-0.2c-0.3 0-0.4 0.1-0.4 0.7v4.5z"/>
			<path d="m124.7 23.9c0 0.5 0.1 0.7 0.4 0.7h0.2c0.1 0 0.1 0 0.1 0.1v0.2c0 0.1 0 0.1-0.1 0.1h-2.3c-0.1 0-0.1 0-0.1-0.1v-0.2c0-0.1 0-0.1 0.1-0.1h0.2c0.3 0 0.4-0.1 0.4-0.7v-5.1h-0.6c-0.8 0-1 0.3-1.2 1.2-0.1 0.5-0.1 0.5-0.3 0.5h-0.1c-0.1 0-0.2-0.1-0.2-0.2v-1.8c0-0.2 0-0.3 0.2-0.3h5.7c0.2 0 0.2 0.1 0.2 0.3v1.8c0 0.2-0.1 0.2-0.2 0.2h-0.1c-0.2 0-0.2-0.1-0.3-0.5-0.3-0.9-0.4-1.2-1.2-1.2h-0.6v5.1z"/>
			<path d="m134.7 18.7h-0.1c-0.3 0-0.5 0.2-0.8 1.2l-1.6 4.7c-0.4 1.2-0.5 1.5-0.8 2.2-0.4 0.9-0.9 1.4-1.5 1.4-0.4 0-0.8-0.2-0.8-0.8 0-0.5 0.3-0.7 0.6-0.7 0.2 0 0.4 0.1 0.8 0.1 0.6 0 0.8-0.7 0.8-1.1 0-0.3-0.2-0.8-0.3-1.2l-2.2-5.3c-0.2-0.5-0.4-0.6-0.6-0.6h-0.1c-0.1 0-0.1 0-0.1-0.1v-0.2c0-0.1 0-0.1 0.1-0.1h2.4c0.1 0 0.2 0 0.2 0.1v0.2c0 0.1-0.1 0.1-0.2 0.1h-0.2c-0.2 0-0.3 0.1-0.3 0.2s0.1 0.4 0.2 0.8l1.7 4.4 1.1-3.5c0.2-0.6 0.3-1.3 0.3-1.5 0-0.3-0.1-0.3-0.3-0.3h-0.1c-0.1 0-0.2 0-0.2-0.1v-0.2c0-0.1 0.1-0.1 0.2-0.1h1.9c0.1 0 0.2 0 0.2 0.1v0.2c-0.2 0.1-0.3 0.1-0.3 0.1z"/>
			<path d="m139 23.9c0 0.5 0.1 0.7 0.4 0.7h0.2c0.1 0 0.1 0 0.1 0.1v0.2c0 0.1 0 0.1-0.1 0.1h-2.3c-0.1 0-0.1 0-0.1-0.1v-0.2c0-0.1 0-0.1 0.1-0.1h0.2c0.3 0 0.4-0.1 0.4-0.7v-5.1h-0.6c-0.8 0-1 0.3-1.2 1.2-0.1 0.5-0.1 0.5-0.3 0.5h-0.1c-0.1 0-0.2-0.1-0.2-0.2v-1.8c0-0.2 0-0.3 0.2-0.3h5.7c0.2 0 0.2 0.1 0.2 0.3v1.8c0 0.2-0.1 0.2-0.2 0.2h-0.1c-0.2 0-0.2-0.1-0.3-0.5-0.3-0.9-0.4-1.2-1.2-1.2h-0.8v5.1z"/>
			<path d="m151.4 25.2c-2.1 0-3.2-1.3-3.2-3.7 0-2.3 1.3-3.5 3.2-3.5 2.1 0 3.2 1.3 3.2 3.5-0.1 2.4-1.5 3.7-3.2 3.7zm0-6.6c-1 0-1.9 0.5-1.9 3 0 2.6 0.9 3.1 1.9 3.1 1.1 0 1.9-0.8 1.9-3.1 0-2.5-1-3-1.9-3z"/>
			<path d="m160.6 24.5c-0.4 0.4-1 0.8-2 0.8-1.8 0-2.9-1.4-2.9-3.5 0-2.4 1.3-3.7 3.2-3.7 1.6 0 2.3 0.8 2.3 1.7 0 0.4-0.2 0.7-0.8 0.7-0.5 0-0.6-0.4-0.6-1s-0.3-1-1-1c-1.1 0-1.9 0.9-1.9 3 0 2 1.1 2.8 2 2.8 0.7 0 1.2-0.2 1.5-0.6 0.2-0.2 0.4-0.5 0.6-0.5 0.1 0 0.2 0.1 0.2 0.2 0 0.2 0 0.6-0.6 1.1z"/>
			<path d="m165.7 23.9c0 0.5 0.1 0.7 0.4 0.7h0.2c0.1 0 0.1 0 0.1 0.1v0.2c0 0.1 0 0.1-0.1 0.1h-2.3c-0.1 0-0.1 0-0.1-0.1v-0.2c0-0.1 0-0.1 0.1-0.1h0.2c0.3 0 0.4-0.1 0.4-0.7v-5.1h-0.6c-0.8 0-1 0.3-1.2 1.2-0.1 0.5-0.1 0.5-0.3 0.5h-0.1c-0.1 0-0.2-0.1-0.2-0.2v-1.8c0-0.2 0-0.3 0.2-0.3h5.7c0.2 0 0.2 0.1 0.2 0.3v1.8c0 0.2-0.1 0.2-0.2 0.2h-0.1c-0.2 0-0.2-0.1-0.3-0.5-0.3-0.9-0.4-1.2-1.2-1.2h-0.6v5.1z"/>
			<path d="m174.4 21.3h-3.9v0.4c0 1.8 0.9 2.7 2 2.7 0.7 0 1.2-0.2 1.7-0.7 0.2-0.2 0.3-0.4 0.5-0.4 0.1 0 0.2 0.1 0.2 0.2 0 0.2-0.1 0.5-0.6 1s-1.2 0.8-2 0.8c-1.7 0-3-1.3-3-3.6 0-2 1-3.6 3.1-3.6 1.6 0 2.5 1.1 2.5 2.5-0.1 0.6-0.3 0.7-0.5 0.7zm-2.2-2.7c-1 0-1.6 0.8-1.7 2.2h2.7c0.4 0 0.5-0.1 0.5-0.5-0.1-0.9-0.5-1.7-1.5-1.7z"/>
			<path d="m179 25.2c-2.1 0-3.2-1.3-3.2-3.7 0-2.3 1.3-3.5 3.2-3.5 2.1 0 3.2 1.3 3.2 3.5 0 2.4-1.4 3.7-3.2 3.7zm0-6.6c-1 0-1.9 0.5-1.9 3 0 2.6 0.9 3.1 1.9 3.1 1.1 0 1.9-0.8 1.9-3.1 0-2.5-0.9-3-1.9-3z"/>
			<path d="m189.4 23.9c0 0.5 0.1 0.7 0.4 0.7h0.2c0.1 0 0.1 0 0.1 0.1v0.2c0 0.1 0 0.1-0.1 0.1h-2.3c-0.1 0-0.1 0-0.1-0.1v-0.2c0-0.1 0-0.1 0.1-0.1h0.2c0.3 0 0.4-0.1 0.4-0.7v-4.9c0-0.2 0-0.2-0.2-0.2h-2.6c-0.2 0-0.2 0-0.2 0.2v4.8c0 0.5 0.1 0.7 0.4 0.7h0.2c0.1 0 0.1 0 0.1 0.1v0.2c0 0.1 0 0.1-0.1 0.1h-2.3c-0.1 0-0.1 0-0.1-0.1v-0.2c0-0.1 0-0.1 0.1-0.1h0.2c0.3 0 0.4-0.1 0.4-0.7v-4.5c0-0.5-0.1-0.7-0.4-0.7h-0.2c-0.1 0-0.1 0-0.1-0.1v-0.2c0-0.1 0-0.1 0.1-0.1h6.5c0.1 0 0.1 0 0.1 0.1v0.2c0 0.1 0 0.1-0.1 0.1h-0.2c-0.3 0-0.4 0.1-0.4 0.7v4.6z"/>
			<path d="m196.3 25.1c-0.6 0-0.8-0.5-0.8-1.1-0.5 0.8-1.2 1.2-2.4 1.2s-1.8-0.8-1.8-1.9c0-1.4 1-1.8 2.2-2 0.5-0.1 0.9-0.1 1.4-0.3 0.4-0.1 0.5-0.3 0.5-0.5v-0.7c0-1.1-0.6-1.3-1.2-1.3s-1 0.2-1.2 0.8c-0.2 0.7-0.4 0.9-0.7 0.9s-0.7-0.1-0.7-0.7c0-1.1 1.8-1.6 2.9-1.6 0.9 0 2.1 0.2 2.1 1.7v3.8c0 0.4 0.1 0.8 0.3 0.9 0.1 0.1 0.2 0.1 0.2 0.2v0.1c0 0.3-0.2 0.5-0.8 0.5zm-0.9-3.8c-0.2 0.2-0.8 0.3-1.5 0.4-1.1 0.2-1.5 0.6-1.5 1.4 0 0.6 0.3 1.3 1.1 1.3 1.1 0 1.8-0.9 1.8-1.6v-1.5z"/>
			<path d="m201.6 23.9c0 0.5 0.1 0.7 0.4 0.7h0.2c0.1 0 0.1 0 0.1 0.1v0.2c0 0.1 0 0.1-0.1 0.1h-2.3c-0.1 0-0.1 0-0.1-0.1v-0.2c0-0.1 0-0.1 0.1-0.1h0.2c0.3 0 0.4-0.1 0.4-0.7v-5.1h-0.6c-0.8 0-1 0.3-1.2 1.2-0.1 0.5-0.1 0.5-0.3 0.5h-0.1c-0.1 0-0.2-0.1-0.2-0.2v-1.8c0-0.2 0-0.3 0.2-0.3h5.7c0.2 0 0.2 0.1 0.2 0.3v1.8c0 0.2-0.1 0.2-0.2 0.2h-0.1c-0.2 0-0.2-0.1-0.3-0.5-0.3-0.9-0.4-1.2-1.2-1.2h-0.6v5.1z"/>
			<path d="m211.2 23.9c0 0.5 0.1 0.7 0.4 0.7h0.2c0.1 0 0.1 0 0.1 0.1v0.2c0 0.1 0 0.1-0.1 0.1h-2.3c-0.1 0-0.1 0-0.1-0.1v-0.2c0-0.1 0-0.1 0.1-0.1h0.2c0.3 0 0.4-0.1 0.4-0.7v-3.8l-3.2 4v0.1c0 0.3 0.1 0.4 0.4 0.4h0.2c0.1 0 0.2 0.1 0.2 0.1v0.2c0 0.1 0 0.1-0.2 0.1h-2.3c-0.1 0-0.1 0-0.1-0.1v-0.2c0-0.1 0-0.1 0.1-0.1h0.2c0.3 0 0.3-0.2 0.3-0.7v-4.5c0-0.5-0.1-0.7-0.4-0.7h-0.2c-0.1 0-0.1 0-0.1-0.1v-0.2c0-0.1 0-0.1 0.1-0.1h2.3c0.1 0 0.1 0 0.1 0.1v0.2c0 0.1 0 0.1-0.1 0.1h-0.2c-0.3 0-0.4 0.1-0.4 0.7v3.7l3.2-3.9v-0.1c0-0.3 0-0.4-0.3-0.4h-0.2c-0.1 0-0.1-0.1-0.1-0.1v-0.2c0-0.1 0-0.1 0.1-0.1h2.3c0.1 0 0.2 0 0.2 0.1v0.2c0 0.1 0 0.1-0.2 0.1h-0.2c-0.3 0-0.4 0.1-0.4 0.7v4.5z"/>
			<path d="m219.3 23.9c0 0.5 0.1 0.7 0.4 0.7h0.2c0.1 0 0.1 0 0.1 0.1v0.2c0 0.1 0 0.1-0.1 0.1h-2.3c-0.1 0-0.1 0-0.1-0.1v-0.2c0-0.1 0-0.1 0.1-0.1h0.2c0.3 0 0.4-0.1 0.4-0.7v-3.8l-3.2 4v0.1c0 0.3 0.1 0.4 0.4 0.4h0.2c0.1 0 0.2 0.1 0.2 0.1v0.2c0 0.1 0 0.1-0.2 0.1h-2.3c-0.1 0-0.1 0-0.1-0.1v-0.2c0-0.1 0-0.1 0.1-0.1h0.2c0.3 0 0.3-0.2 0.3-0.7v-4.5c0-0.5-0.1-0.7-0.4-0.7h-0.2c-0.1 0-0.1 0-0.1-0.1v-0.2c0-0.1 0-0.1 0.1-0.1h2.3c0.1 0 0.1 0 0.1 0.1v0.2c0 0.1 0 0.1-0.1 0.1h-0.2c-0.3 0-0.4 0.1-0.4 0.7v3.7l3.2-3.9v-0.1c0-0.3 0-0.4-0.3-0.4h-0.2c-0.1 0-0.1-0.1-0.1-0.1v-0.2c0-0.1 0-0.1 0.1-0.1h2.3c0.1 0 0.2 0 0.2 0.1v0.2c0 0.1 0 0.1-0.2 0.1h-0.2c-0.3 0-0.4 0.1-0.4 0.7v4.5z"/>
			<path d="m88.2 40.8c-0.5 0.4-1.2 0.8-2.3 0.8-1.7 0-3.8-1.1-3.8-5.1 0-2.6 1.4-5.1 4.1-5.1 1.3 0 1.6 0.3 1.9 0.3s0.4-0.2 0.6-0.2 0.3 0.1 0.3 0.3l0.1 2.3c0 0.1 0 0.3-0.2 0.3h-0.2c-0.1 0-0.2-0.1-0.3-0.5l-0.2-0.6c-0.2-0.6-0.6-1.4-2-1.4-0.7 0-2.8 0.3-2.8 4.4 0 3.5 1.5 4.3 2.7 4.3 1.1 0 1.8-0.5 2.3-1.2 0.2-0.3 0.4-0.6 0.5-0.6s0.2 0 0.2 0.2c0.1 0.4-0.2 1.2-0.9 1.8z"/>
			<path d="m95.4 41.5c-0.6 0-0.8-0.5-0.8-1.1-0.5 0.8-1.2 1.2-2.4 1.2s-1.8-0.8-1.8-1.9c0-1.4 1-1.8 2.2-2 0.5-0.1 0.9-0.1 1.4-0.3 0.4-0.1 0.5-0.3 0.5-0.5v-0.7c0-1.1-0.6-1.3-1.2-1.3s-1 0.2-1.2 0.8c-0.2 0.7-0.4 0.9-0.7 0.9s-0.7-0.1-0.7-0.7c0-1.1 1.8-1.6 2.9-1.6 0.9 0 2.1 0.2 2.1 1.7v4c0 0.4 0.1 0.8 0.3 0.9 0.1 0.1 0.2 0.1 0.2 0.2v0.1c0 0.1-0.2 0.3-0.8 0.3zm-0.9-3.8c-0.2 0.2-0.8 0.3-1.5 0.4-1.1 0.2-1.5 0.6-1.5 1.4 0 0.6 0.3 1.3 1.1 1.3 1.1 0 1.8-0.9 1.8-1.6v-1.5z"/>
			<path d="m103.2 40.3c0 0.5 0.1 0.7 0.4 0.7h0.2c0.1 0 0.1 0 0.1 0.1v0.2c0 0.1 0 0.1-0.1 0.1h-2.3c-0.1 0-0.1 0-0.1-0.1v-0.2c0-0.1 0-0.1 0.1-0.1h0.2c0.3 0 0.4-0.1 0.4-0.7v-2.1h-3.1v2.1c0 0.5 0.1 0.7 0.4 0.7h0.2c0.1 0 0.1 0 0.1 0.1v0.2c0 0.1 0 0.1-0.1 0.1h-2.3c-0.1 0-0.1 0-0.1-0.1v-0.2c0-0.1 0-0.1 0.1-0.1h0.2c0.3 0 0.4-0.1 0.4-0.7v-4.5c0-0.5-0.1-0.7-0.4-0.7h-0.2c-0.1 0-0.1 0-0.1-0.1v-0.2c0-0.1 0-0.1 0.1-0.1h2.3c0.1 0 0.1 0 0.1 0.1v0.2c0 0.1 0 0.1-0.1 0.1h-0.2c-0.3 0-0.4 0.1-0.4 0.7v1.8h3.1v-1.8c0-0.5-0.1-0.7-0.4-0.7h-0.2c-0.1 0-0.1 0-0.1-0.1v-0.2c0-0.1 0-0.1 0.1-0.1h2.3c0.1 0 0.1 0 0.1 0.1v0.2c0 0.1 0 0.1-0.1 0.1h-0.2c-0.3 0-0.4 0.1-0.4 0.7v4.5z"/>
			<path d="m107.6 37.7c0.5 0 0.9-0.1 1.3-1.2l0.1-0.4c0.4-1 0.8-1.6 1.5-1.6 0.5 0 0.8 0.3 0.8 0.8 0 0.4-0.2 0.7-0.5 0.7s-0.5-0.2-0.7-0.2c-0.3 0-0.4 0.2-0.7 1-0.2 0.6-0.5 0.9-0.9 1v0.2c0.9 0.2 1.3 0.7 1.7 1.6 0.4 0.8 0.6 1.3 0.9 1.3 0.1 0 0.2-0.1 0.3-0.1s0.1 0.1 0.1 0.1c0 0.3-0.3 0.6-0.9 0.6s-0.9-0.3-1.1-0.6c-0.2-0.4-0.4-0.9-0.8-1.7-0.3-0.7-0.6-1-1.2-1h-0.7v2.1c0 0.5 0.1 0.7 0.4 0.7h0.2c0.1 0 0.1 0 0.1 0.1v0.2c0 0.1 0 0.1-0.1 0.1h-2.3c-0.1 0-0.1 0-0.1-0.1v-0.2c0-0.1 0-0.1 0.1-0.1h0.2c0.3 0 0.4-0.1 0.4-0.7v-4.5c0-0.5-0.1-0.7-0.4-0.7h-0.2c-0.1 0-0.1 0-0.1-0.1v-0.2c0-0.1 0-0.1 0.1-0.1h2.3c0.1 0 0.1 0 0.1 0.1v0.2c0 0.1 0 0.1-0.1 0.1h-0.2c-0.3 0-0.4 0.1-0.4 0.7v1.9h0.8z"/>
			<path d="m115.9 40.3c0 0.5 0.1 0.7 0.4 0.7h0.2c0.1 0 0.1 0 0.1 0.1v0.2c0 0.1 0 0.1-0.1 0.1h-2.3c-0.1 0-0.1 0-0.1-0.1v-0.2c0-0.1 0-0.1 0.1-0.1h0.2c0.3 0 0.4-0.1 0.4-0.7v-5.1h-0.6c-0.8 0-1 0.3-1.2 1.2-0.1 0.5-0.1 0.5-0.3 0.5h-0.1c-0.1 0-0.2-0.1-0.2-0.2v-1.7c0-0.2 0-0.3 0.2-0.3h5.7c0.2 0 0.2 0.1 0.2 0.3v1.8c0 0.2-0.1 0.2-0.2 0.2h-0.3c-0.2 0-0.2-0.1-0.3-0.5-0.3-0.9-0.4-1.2-1.2-1.2h-0.6v5z"/>
			<path d="m122.9 37.9c0 0.2-0.1 0.2-0.2 0.2h-3.1c-0.1 0-0.2 0-0.2-0.2v-0.5c0-0.2 0-0.2 0.2-0.2h3.1c0.1 0 0.2 0.1 0.2 0.2v0.5z"/>
			<path d="m132.4 41.3c0 0.1-0.1 0.1-0.1 0.1h-2.5c-0.1 0-0.1 0-0.1-0.1v-0.3c0-0.1 0.1-0.1 0.2-0.1h0.2c0.4 0 0.4-0.4 0.4-0.9v-7.3c0-0.4 0-0.4-0.3-0.4h-3.6c-0.3 0-0.3 0-0.3 0.4v7.3c0 0.5 0 0.9 0.4 0.9h0.2c0.1 0 0.2 0 0.2 0.1v0.3c0 0.1-0.1 0.1-0.1 0.1h-2.5c-0.1 0-0.1 0-0.1-0.1v-0.3c0-0.1 0.1-0.1 0.2-0.1h0.2c0.4 0 0.4-0.4 0.4-0.9v-6.9c0-0.5 0-0.9-0.4-0.9h-0.2c-0.1 0-0.2 0-0.2-0.1v-0.2c0-0.1 0.1-0.1 0.1-0.1h8.1c0.1 0 0.1 0 0.1 0.1v0.2c0 0.1-0.1 0.1-0.2 0.1h-0.5c-0.4 0-0.4 0.4-0.4 0.9v6.9c0 0.5 0 0.9 0.4 0.9h0.2c0.1 0 0.2 0 0.2 0.1v0.3z"/>
			<path d="m138.7 37.7h-3.9v0.4c0 1.8 0.9 2.7 2 2.7 0.7 0 1.2-0.2 1.7-0.7 0.2-0.2 0.3-0.4 0.5-0.4 0.1 0 0.2 0.1 0.2 0.2 0 0.2-0.1 0.5-0.6 1s-1.2 0.8-2 0.8c-1.7 0-3-1.3-3-3.6 0-2 1-3.6 3.1-3.6 1.6 0 2.5 1.1 2.5 2.5 0 0.6-0.2 0.7-0.5 0.7zm-2.1-2.7c-1 0-1.6 0.8-1.7 2.2h2.6c0.4 0 0.5-0.1 0.5-0.5 0-0.8-0.4-1.7-1.4-1.7z"/>
			<path d="m143.6 40.3c0 0.5 0.1 0.7 0.4 0.7h0.2c0.1 0 0.1 0 0.1 0.1v0.2c0 0.1 0 0.1-0.1 0.1h-2.3c-0.1 0-0.1 0-0.1-0.1v-0.2c0-0.1 0-0.1 0.1-0.1h0.2c0.3 0 0.4-0.1 0.4-0.7v-5.1h-0.6c-0.8 0-1 0.3-1.2 1.2-0.1 0.5-0.1 0.5-0.3 0.5h-0.1c-0.1 0-0.2-0.1-0.2-0.2v-1.7c0-0.2 0-0.3 0.2-0.3h5.7c0.2 0 0.2 0.1 0.2 0.3v1.8c0 0.2-0.1 0.2-0.2 0.2h-0.1c-0.2 0-0.2-0.1-0.3-0.5-0.3-0.9-0.4-1.2-1.2-1.2h-0.6v5z"/>
			<path d="m152.2 37.7h-3.9v0.4c0 1.8 0.9 2.7 2 2.7 0.7 0 1.2-0.2 1.7-0.7 0.2-0.2 0.3-0.4 0.5-0.4 0.1 0 0.2 0.1 0.2 0.2 0 0.2-0.1 0.5-0.6 1s-1.2 0.8-2 0.8c-1.7 0-3-1.3-3-3.6 0-2 1-3.6 3.1-3.6 1.6 0 2.5 1.1 2.5 2.5 0 0.6-0.2 0.7-0.5 0.7zm-2.1-2.7c-1 0-1.6 0.8-1.7 2.2h2.6c0.4 0 0.5-0.1 0.5-0.5 0-0.8-0.4-1.7-1.4-1.7z"/>
			<path d="m155.5 35.5c0.5-0.7 1.2-1 2.1-1 1.6 0 2.6 1.1 2.6 3.4 0 2.5-1.4 3.8-3.1 3.8-0.9 0-1.2-0.2-1.6-0.4v2.3c0 0.5 0.1 0.7 0.4 0.7h0.3c0.1 0 0.1 0 0.1 0.1v0.2c0 0.1 0 0.1-0.1 0.1h-2.4c-0.1 0-0.1 0-0.1-0.1v-0.2c0-0.1 0-0.1 0.1-0.1h0.2c0.3 0 0.4-0.1 0.4-0.7v-7.8c0-0.3-0.2-0.4-0.5-0.4h-0.1c-0.1 0-0.2 0-0.2-0.2v-0.1c0-0.2 0.1-0.2 0.4-0.3l1-0.2h0.2c0.2 0 0.2 0.1 0.2 0.5v0.4zm1.6-0.2c-1 0-1.6 0.8-1.6 1.4v3.4c0 0.6 0.7 1 1.5 1 1.3 0 2-1.3 2-3.1 0-2.1-1-2.7-1.9-2.7z"/>
			<path d="m164.6 41.7c-2 0-3.1-1.5-3.1-4.2v-0.2c0-2.2 0.3-4.4 2.1-5.3 1.2-0.7 2.5-0.7 3.1-1.3 0.2-0.2 0.2-0.3 0.3-0.3h0.1c0.2 0 0.2 0.2 0.2 0.4s0 0.9-0.8 1.3c-0.9 0.5-1.4 0.4-2.7 1-1.5 0.7-1.6 2-1.6 3.1h0.1c0.6-1.4 1.8-1.8 2.7-1.8 1.7 0 2.9 1 2.9 3.3 0 2.5-1.3 4-3.3 4zm0.1-6.6c-1 0-1.9 0.6-1.9 2.3v0.7c0 1.9 0.8 3 2 3s1.9-1 1.9-3.2c0-1.8-0.8-2.8-2-2.8z"/>
			<path d="m175.5 35.2h-0.1c-0.3 0-0.5 0.2-0.8 1.2l-1.6 4.7c-0.4 1.2-0.5 1.5-0.8 2.2-0.4 0.9-0.9 1.4-1.5 1.4-0.4 0-0.8-0.2-0.8-0.8 0-0.5 0.3-0.7 0.6-0.7 0.2 0 0.4 0.1 0.8 0.1 0.6 0 0.8-0.7 0.8-1.1 0-0.3-0.2-0.8-0.3-1.2l-2.2-5.3c-0.2-0.5-0.4-0.6-0.6-0.6h-0.1c-0.1 0-0.1 0-0.1-0.1v-0.2c0-0.1 0-0.1 0.1-0.1h2.4c0.1 0 0.2 0 0.2 0.1v0.2c0 0.1-0.1 0.1-0.2 0.1h-0.2c-0.2 0-0.3 0.1-0.3 0.2s0.1 0.4 0.2 0.8l1.7 4.4 1.1-3.5c0.2-0.6 0.3-1.3 0.3-1.5 0-0.3-0.1-0.3-0.3-0.3h-0.1c-0.1 0-0.2 0-0.2-0.1v-0.2c0-0.1 0.1-0.1 0.2-0.1h1.9c0.1 0 0.2 0 0.2 0.1v0.1c-0.2 0.2-0.3 0.2-0.3 0.2z"/>
			<path d="m178.3 35.5c0.5-0.7 1.2-1 2.1-1 1.6 0 2.6 1.1 2.6 3.4 0 2.5-1.4 3.8-3.1 3.8-0.9 0-1.2-0.2-1.6-0.4v2.3c0 0.5 0.1 0.7 0.4 0.7h0.3c0.1 0 0.1 0 0.1 0.1v0.2c0 0.1 0 0.1-0.1 0.1h-2.4c-0.1 0-0.1 0-0.1-0.1v-0.2c0-0.1 0-0.1 0.1-0.1h0.2c0.3 0 0.4-0.1 0.4-0.7v-7.8c0-0.3-0.2-0.4-0.5-0.4h-0.1c-0.1 0-0.2 0-0.2-0.2v-0.1c0-0.2 0.1-0.2 0.4-0.3l1-0.2h0.2c0.2 0 0.2 0.1 0.2 0.5v0.4zm1.6-0.2c-1 0-1.6 0.8-1.6 1.4v3.4c0 0.6 0.7 1 1.5 1 1.3 0 2-1.3 2-3.1-0.1-2.1-1-2.7-1.9-2.7z"/>
			<path d="m188.7 34.7c0.2 0 0.2 0.1 0.2 0.3v1.8c0 0.2-0.1 0.2-0.2 0.2h-0.1c-0.2 0-0.2-0.1-0.3-0.5-0.3-0.9-0.4-1.2-1.2-1.2h-1.1v5.1c0 0.5 0.1 0.7 0.4 0.7h0.2c0.1 0 0.2 0.1 0.2 0.1v0.2c0 0.1 0 0.1-0.2 0.1h-2.3c-0.1 0-0.1 0-0.1-0.1v-0.2c0-0.1 0-0.1 0.1-0.1h0.2c0.3 0 0.4-0.1 0.4-0.7v-4.5c0-0.5-0.1-0.7-0.4-0.7h-0.2c-0.1 0-0.1 0-0.1-0.1v-0.2c0-0.1 0-0.1 0.1-0.1h4.4z"/>
			<path d="m195 41.5c-0.6 0-0.8-0.5-0.8-1.1-0.5 0.8-1.2 1.2-2.4 1.2s-1.8-0.8-1.8-1.9c0-1.4 1-1.8 2.2-2 0.5-0.1 0.9-0.1 1.4-0.3 0.4-0.1 0.5-0.3 0.5-0.5v-0.7c0-1.1-0.6-1.3-1.2-1.3s-1 0.2-1.2 0.8c-0.2 0.7-0.4 0.9-0.7 0.9s-0.7-0.1-0.7-0.7c0-1.1 1.8-1.6 2.9-1.6 0.9 0 2.1 0.2 2.1 1.7v4c0 0.4 0.1 0.8 0.3 0.9 0.1 0.1 0.2 0.1 0.2 0.2v0.1c0 0.1-0.2 0.3-0.8 0.3zm-0.9-3.8c-0.2 0.2-0.8 0.3-1.5 0.4-1.1 0.2-1.5 0.6-1.5 1.4 0 0.6 0.3 1.3 1.1 1.3 1.1 0 1.8-0.9 1.8-1.6v-1.5z"/>
	</g>
		<path opacity=".75" d="m34.6 19.7l0.1 0.1c0.8 0.4 1.6 0.6 2.4 0.8h0.1l0.1 1.9 3.6-0.1-0.1-1.9h0.1c0.6-0.1 1.1-0.3 1.6-0.6l0.1-0.1 1.1 1.5 2.9-2.2-1.1-1.5 0.1-0.1c0.4-0.4 0.7-0.9 1-1.4l0.1-0.1 1.8 0.6 1.1-3.5-1.8-0.6v-0.1c0-0.5 0.1-0.9 0.1-1.3v-0.3-0.2-0.1l1.8-0.6-1.1-3.5-1.8 0.6h-0.1c-0.3-0.5-0.6-1-1-1.4l-0.1-0.1 1.3-1.5-2.9-2.2-1.2 1.5-0.1-0.1c-0.8-0.4-1.6-0.6-2.4-0.8h-0.1l-0.1-1.9-3.6 0.1 0.1 1.9h-0.1c-0.6 0.1-1.1 0.3-1.6 0.6l-0.1 0.1-1.1-1.5-2.9 2.2 1.1 1.5-0.1 0.1c-0.4 0.4-0.7 0.9-1 1.4l-0.1 0.1-1.8-0.6-1.1 3.5 1.8 0.6v0.1c-0.1 0.5-0.1 0.9-0.1 1.3v0.3 0.3l-1.8 0.6 1.1 3.5 1.8-0.6 0.1 0.1c0.3 0.5 0.6 1 1 1.4l0.1 0.1-1.2 1.5 2.9 2.2 1.1-1.6" fill="#fff"/>
		<path opacity=".75" d="m59 38.8l-0.3-1.8c-0.7 0-1.5-0.1-2.2-0.3l-0.9 1.7-3.7-2 0.9-1.7c-0.3-0.3-0.7-0.6-1-1l-1.7 0.9-1.9-3.8 1.7-0.9-0.1-0.3c-0.1-0.3-0.1-0.7-0.2-1.1l-1.9-0.3 0.6-4.2 1.9 0.3c0.2-0.4 0.4-0.8 0.6-1.3l-1.4-1.3 2.9-3.1 1.4 1.3c0.4-0.3 0.8-0.5 1.2-0.7l-0.4-1.9 4.1-0.9 0.4 1.9c0.7 0 1.5 0.1 2.2 0.3l0.9-1.7 3.7 2-0.8 1.9c0.4 0.3 0.7 0.6 1 1l1.7-0.9 1.9 3.8-1.7 0.9 0.1 0.3c0.1 0.3 0.1 0.7 0.1 1.1l1.9 0.3-0.6 4.2-1.9-0.3c-0.2 0.4-0.4 0.9-0.6 1.3l1.4 1.3-2.9 3.1-1.4-1.5c-0.4 0.3-0.8 0.5-1.2 0.7l0.4 1.9-4.2 0.8z" fill="#fff"/>
		<path d="m56.3 36.2h0.2c0.8 0.2 1.6 0.3 2.4 0.4h0.1l0.4 1.8 3.3-0.7-0.4-1.8 0.1-0.1c0.5-0.2 1-0.5 1.4-0.8l0.1-0.1 1.3 1.3 2.3-2.5-1.3-1.3 0.1-0.1c0.3-0.5 0.5-1 0.7-1.5l0.1-0.1 1.8 0.3 0.5-3.4-1.8-0.3v-0.2c0-0.5-0.1-0.8-0.2-1.2l-0.1-0.2v-0.2-0.2l1.6-0.8-1.5-3-1.6 0.8-0.1-0.1c-0.3-0.4-0.7-0.8-1.1-1.2l-0.1-0.1 0.9-1.6-3-1.6-0.9 1.6h-0.2c-0.8-0.2-1.6-0.3-2.4-0.3h-0.2l-0.4-1.8-3.3 0.7 0.4 1.8-0.1 0.1c-0.5 0.2-1 0.5-1.4 0.8l-0.1 0.1-1.3-1.3-2.3 2.5 1.3 1.3-0.1 0.1c-0.3 0.5-0.5 1-0.7 1.5l-0.1 0.1-1.8-0.3-0.5 3.4 1.8 0.3v0.2c0 0.4 0.1 0.8 0.2 1.2l0.1 0.2 0.1 0.2v0.2l-1.6 0.8 1.5 3 1.6-0.8 0.1 0.1c0.3 0.4 0.7 0.8 1.2 1.2l0.1 0.1-0.9 1.6 3 1.6 0.8-1.7m2.7 2.6l-0.3-1.8c-0.7 0-1.5-0.1-2.2-0.3l-0.9 1.7-3.7-2 0.9-1.7c-0.3-0.3-0.7-0.6-1-1l-1.7 0.9-1.9-3.8 1.7-0.9-0.1-0.3c-0.1-0.3-0.1-0.7-0.2-1.1l-1.9-0.3 0.6-4.2 1.9 0.3c0.2-0.4 0.4-0.8 0.6-1.3l-1.4-1.3 2.9-3.1 1.4 1.3c0.4-0.3 0.8-0.5 1.2-0.7l-0.4-1.9 4.1-0.9 0.4 1.9c0.7 0 1.5 0.1 2.2 0.3l0.9-1.7 3.7 2-0.8 1.9c0.4 0.3 0.7 0.6 1 1l1.7-0.9 1.9 3.8-1.7 0.9 0.1 0.3c0.1 0.3 0.1 0.7 0.1 1.1l1.9 0.3-0.6 4.2-1.9-0.3c-0.2 0.4-0.4 0.9-0.6 1.3l1.4 1.3-2.9 3.1-1.4-1.5c-0.4 0.3-0.8 0.5-1.2 0.7l0.4 1.9-4.2 0.8z" fill="#C2C5C7"/>
		<path d="m34.6 19.7l0.1 0.1c0.8 0.4 1.6 0.6 2.4 0.8h0.1l0.1 1.9 3.6-0.1-0.1-1.9h0.1c0.6-0.1 1.1-0.3 1.6-0.6l0.1-0.1 1.1 1.5 2.9-2.2-1.1-1.5 0.1-0.1c0.4-0.4 0.7-0.9 1-1.4l0.1-0.1 1.8 0.6 1.1-3.5-1.8-0.6v-0.1c0-0.5 0.1-0.9 0.1-1.3v-0.3-0.2-0.1l1.8-0.6-1.1-3.5-1.8 0.6h-0.1c-0.3-0.5-0.6-1-1-1.4l-0.1-0.1 1.3-1.5-2.9-2.2-1.2 1.5-0.1-0.1c-0.8-0.4-1.6-0.6-2.4-0.8h-0.1l-0.1-1.9-3.6 0.1 0.1 1.9h-0.1c-0.6 0.1-1.1 0.3-1.6 0.6l-0.1 0.1-1.1-1.5-2.9 2.2 1.1 1.5-0.1 0.1c-0.4 0.4-0.7 0.9-1 1.4l-0.1 0.1-1.8-0.6-1.1 3.5 1.8 0.6v0.1c-0.1 0.5-0.1 0.9-0.1 1.3v0.3 0.3l-1.8 0.6 1.1 3.5 1.8-0.6 0.1 0.1c0.3 0.5 0.6 1 1 1.4l0.1 0.1-1.2 1.5 2.9 2.2 1.1-1.6m2.4 3l-0.1-2c-0.8-0.1-1.5-0.4-2.2-0.7l-1.2 1.5-3.4-2.5 1.2-1.5c-0.3-0.4-0.6-0.8-0.9-1.3l-1.9 0.6-1.2-4 1.9-0.6v-0.3-1.2l-1.8-0.7 1.3-4 1.9 0.6c0.3-0.4 0.6-0.8 0.9-1.2l-1.2-1.6 3.4-2.5 1.2 1.6c0.4-0.2 0.9-0.4 1.4-0.5l-0.1-2 4.2-0.1 0.1 2c0.8 0.1 1.5 0.4 2.2 0.7l1.3-1.7 3.3 2.7-1.2 1.5c0.3 0.4 0.6 0.8 0.9 1.3l1.9-0.6 1.2 4-1.9 0.6v0.1 0.3c0 0.4 0 0.8-0.1 1.2l1.9 0.6-1.3 4-1.9-0.6c-0.3 0.4-0.6 0.8-0.9 1.2l1.2 1.6-3.4 2.5-1.2-1.6c-0.5 0.2-0.9 0.4-1.4 0.5l0.1 2-4.2 0.1z" fill="#C2C5C7"/>
		<path opacity=".75" d="m58.5 17.5l-0.4-1.3c-1 0.1-2 0-3-0.3l-0.6 1.2h-0.1c-0.8-0.3-1.6-0.7-2.3-1.2l-0.1-0.1 0.6-1.2c-0.8-0.6-1.4-1.4-1.9-2.3l-1.3 0.4-0.1-0.1c-0.4-0.8-0.6-1.6-0.8-2.4v-0.1l1.3-0.4c-0.1-1 0-2 0.3-3l-1.2-0.6v-0.1c0.3-0.8 0.7-1.6 1.2-2.3l0.1-0.1 1.2 0.6c0.6-0.8 1.4-1.4 2.3-1.9l-0.4-1.3 0.1-0.1c0.8-0.4 1.6-0.6 2.5-0.8h0.1l0.4 1.3c1-0.1 2 0 3 0.3l0.6-1.2h0.1c0.8 0.3 1.6 0.7 2.3 1.2l0.1 0.1-0.7 1.2c0.8 0.6 1.4 1.4 1.9 2.3l1.3-0.4 0.1 0.1c0.4 0.8 0.6 1.6 0.8 2.5v0.1l-1.3 0.4c0.1 1 0 2-0.3 3l1.2 0.6v0.1c-0.3 0.8-0.7 1.6-1.2 2.3l-0.1 0.1-1.2-0.7c-0.6 0.8-1.4 1.4-2.3 1.9l0.4 1.3-0.1 0.1c-0.8 0.4-1.6 0.6-2.5 0.8zm-4-11.7c0.1 0.2 0.3 0.5 0.4 0.5l0.1 0.2-0.1 0.1c-0.6 0.7-1 1.6-0.9 2.5 0.1 1.8 1.7 3.3 3.5 3.1 0.9 0 1.7-0.4 2.3-1.1s0.9-1.5 0.8-2.4c-0.1-1.8-1.7-3.3-3.5-3.1-0.4 0-0.7 0.1-1 0.2h-0.1l-0.1-0.1c-0.1-0.2-0.2-0.4-0.3-0.5l-1.1 0.6" fill="#fff"/>
		<path d="m58.3 15.9l0.4 1.3c0.7-0.1 1.5-0.3 2.1-0.7l-0.4-1.3 0.1-0.1c0.9-0.5 1.7-1.1 2.4-2l0.1-0.1 1.2 0.6c0.4-0.6 0.8-1.3 1-2l-1.2-0.5v-0.1c0.3-1 0.4-2 0.3-3.1v-0.1l1.3-0.4c-0.1-0.7-0.4-1.5-0.7-2.1l-1.3 0.4-0.1-0.1c-0.5-0.9-1.1-1.7-2-2.3l-0.1-0.1 0.6-1.2c-0.6-0.4-1.3-0.8-2-1l-0.6 1.2h-0.1c-1-0.3-2-0.4-3.1-0.3h-0.1l-0.4-1.3c-0.7 0.1-1.5 0.4-2.1 0.7l0.4 1.3-0.1 0.1c-0.9 0.5-1.7 1.1-2.4 2l-0.1 0.1-1.2-0.6c-0.4 0.6-0.8 1.3-1 2l1.2 0.6v0.1c-0.3 1-0.4 2-0.3 3.1v0.1l-1.3 0.4c0.1 0.7 0.3 1.5 0.7 2.1l1.3-0.4 0.1 0.1c0.5 0.9 1.1 1.7 2 2.4l0.1 0.1-0.6 1.2c0.6 0.4 1.3 0.8 2 1l0.6-1.2h0.1c1 0.3 2 0.4 3.1 0.3l0.1-0.2m0.2 1.6l-0.4-1.3c-1 0.1-2 0-3-0.3l-0.6 1.2h-0.1c-0.8-0.3-1.6-0.7-2.3-1.2l-0.1-0.1 0.6-1.2c-0.8-0.6-1.4-1.4-1.9-2.3l-1.3 0.4-0.1-0.1c-0.4-0.8-0.6-1.6-0.8-2.4v-0.1l1.3-0.4c-0.1-1 0-2 0.3-3l-1.2-0.6v-0.1c0.3-0.8 0.7-1.6 1.2-2.3l0.1-0.1 1.2 0.6c0.6-0.8 1.4-1.4 2.3-1.9l-0.4-1.3 0.1-0.1c0.8-0.4 1.6-0.6 2.5-0.8h0.1l0.4 1.3c1-0.1 2 0 3 0.3l0.6-1.2h0.1c0.8 0.3 1.6 0.7 2.3 1.2l0.1 0.1-0.7 1.2c0.8 0.6 1.4 1.4 1.9 2.3l1.3-0.4 0.1 0.1c0.4 0.8 0.6 1.6 0.8 2.5v0.1l-1.3 0.4c0.1 1 0 2-0.3 3l1.2 0.6v0.1c-0.3 0.8-0.7 1.6-1.2 2.3l-0.1 0.1-1.2-0.7c-0.6 0.8-1.4 1.4-2.3 1.9l0.4 1.3-0.1 0.1c-0.8 0.4-1.6 0.6-2.5 0.8z" fill="#C2C5C7"/>
		<path d="m54.5 5.8c0.1 0.2 0.3 0.5 0.4 0.5l0.1 0.2-0.1 0.1c-0.6 0.7-1 1.6-0.9 2.5 0.1 1.8 1.7 3.3 3.5 3.1 0.9 0 1.7-0.4 2.3-1.1s0.9-1.5 0.8-2.4c-0.1-1.8-1.7-3.3-3.5-3.1-0.4 0-0.7 0.1-1 0.2h-0.1l-0.1-0.1c-0.1-0.2-0.2-0.4-0.3-0.5l-1.1 0.6m2.8 6.7c-1.9 0-3.5-1.5-3.6-3.4-0.1-0.9 0.3-1.9 0.9-2.6-0.1-0.2-0.4-0.6-0.4-0.6l-0.1-0.1 1.5-1 0.1 0.1s0.2 0.3 0.4 0.5c0.3-0.1 0.7-0.2 1-0.2h0.2c1.9 0 3.5 1.5 3.6 3.4 0.1 1-0.3 1.9-0.9 2.6s-1.5 1.2-2.5 1.2l-0.2 0.1" fill="#C2C5C7"/>
		<polyline points="27 56.4 35.2 50.6 27 56.4" fill="#fff"/>
		<path d="m46.5 23.6c-2.9-2.9-6.8-4.7-11.2-4.7h-0.1c-4.4 0-8.3 1.8-11.2 4.6l-0.1 0.1c-2.8 2.8-4.5 6.7-4.6 11v0.1 0.1c0 4.3 1.8 8.2 4.6 11.1l0.1 0.1c2.9 2.8 6.8 4.6 11.1 4.6 4.4 0 8.3-1.8 11.2-4.6v-0.1h0.1c2.9-2.9 4.6-6.9 4.6-11.2 0.1-4.3-1.7-8.3-4.5-11.1" fill="#fff"/>
		<polyline points="46.5 23.6 56.9 26.6 46.5 23.6" fill="#fff"/>
		<path d="m47.1 63.5c3.7-1.5 7-3.7 9.8-6.5l-10.4-0.5 0.6 7" fill="#BC6100"/>
		<path d="m46.5 56.6l0.6 6.9c3.6-1.5 6.8-3.6 9.7-6.4l-10.3-0.5m0.5 7l-0.6-7.1h0.1l10.5 0.5h-0.1c-2.8 2.8-6.2 5-9.9 6.6z" fill="#E84F08"/>
		<path d="m57.8 13.5c-2.8-3-6.2-5.4-10-7.1l-3.5 7.1h13.5" fill="#D37100"/>
		<path d="m47.8 6.5l-3.4 7h13.3c-2.8-3-6.2-5.4-9.9-7m-3.6 7l3.5-7.2c3.8 1.7 7.1 4.1 10 7.1l0.1 0.1h-13.6z" fill="#E84F08"/>
		<path d="m56.9 26.6l7.2-3.1c-1.4-3.7-3.6-7-6.2-9.9-0.3 4-1 13-1 13" fill="#DEDC00"/>
		<path d="m58 13.7c-0.3 3.8-0.9 11.9-1 12.8l7.1-3c-1.4-3.6-3.5-6.9-6.1-9.8m-1.1 13c0-0.1 0.7-9.1 1-13v-0.1l0.1 0.1c2.7 2.9 4.8 6.2 6.2 9.9l-7.3 3.1z" fill="#E84F08"/>
		<path d="m66.2 35.7v-0.9c0-4-0.8-7.8-2.1-11.3l-7.2 3.1 9.3 9.1" fill="#D37100"/>
		<path d="m57 26.6l9.2 9v-0.2-0.6c0-3.9-0.7-7.6-2.1-11.2l-7.1 3m9.3 9.2l-9.4-9.3 7.3-3.1c1.4 3.6 2.1 7.4 2.1 11.3v0.6 0.5z" fill="#E84F08"/>
		<polyline points="51.1 34.8 56.4 44.2 66.2 35.9 66.2 35.7 56.9 26.6 51.1 34.8" fill="#EE7B00"/>
		<path d="m51.1 34.8l5.3 9.3 9.8-8.2v-0.2l-9.2-9.1-5.9 8.2m5.3 9.4l-5.4-9.5 5.9-8.2 9.3 9.2v0.3l-9.8 8.2z" fill="#E84F08"/>
		<polyline points="35.3 18.9 44.3 13.5 35.6 3.7 35.5 3.7 26 13.5 35.3 18.9" fill="#EE7B00"/>
		<path d="m26.1 13.5l9.2 5.4 9-5.4-8.6-9.7h-0.1l-9.5 9.7m9.2 5.5l-9.3-5.5 9.5-9.8h0.2 0.1l8.8 9.8h-0.1l-9.2 5.5z" fill="#E84F08"/>
		<polyline points="46.5 23.6 56.9 26.6 57.9 13.6 57.8 13.5 44.3 13.5 46.5 23.6" fill="#EE7B00"/>
		<path d="m46.5 23.6l10.4 3 1-12.9-0.1-0.1h-13.4l2.1 10m10.5 3l-10.6-3-2.1-10.2h0.1 13.5l0.2 0.2-1.1 13z" fill="#E84F08"/>
		<polyline points="19.3 34.8 13.5 26.7 4.2 34.9 4.2 35.1 14.1 44.5 19.3 34.8" fill="#CA4A00"/>
		<path d="m13.5 26.8l-9.3 8.1v0.1 0.1l9.9 9.3 5.2-9.6-5.8-8m0.6 17.8l-10-9.4v-0.3l9.3-8.2 5.9 8.1-5.2 9.8z" fill="#E84F08"/>
		<polyline points="26 13.5 15.1 15.3 13.5 26.7 24 23.6 26 13.5" fill="#CA4A00"/>
		<path d="m15.1 15.3l-1.6 11.4 10.4-3.2 2-10-10.8 1.8m-1.7 11.5l1.6-11.6 11-1.8-2 10.2-10.6 3.2z" fill="#E84F08"/>
		<path d="m24 63.7c3.2 1.3 6.7 2 10.3 2.1l-7.3-9.4-3 7.3" fill="#9C3800"/>
		<path d="m24 63.7c3.2 1.3 6.7 1.9 10.2 2.1l-7.2-9.3-3 7.2m10.4 2.2h-0.1c-3.6-0.1-7.1-0.8-10.4-2.1l3.1-7.4 0.1 0.1 7.3 9.4z" fill="#E84F08"/>
		<path d="m6.8 47.4c1.6 3.5 3.8 6.7 6.5 9.4l0.8-12.3-7.3 2.9" fill="#C71814"/>
		<path d="m6.9 47.4c1.6 3.5 3.7 6.6 6.4 9.3l0.7-12.1-7.1 2.8m6.5 9.5c-2.8-2.8-5-6-6.6-9.5l7.3-2.9-0.7 12.4z" fill="#E84F08"/>
		<path d="m13.5 56.9c3 2.9 6.6 5.3 10.5 6.8l3-7.3-13.5 0.5" fill="#993700"/>
		<path d="m13.6 57c3 2.9 6.5 5.2 10.4 6.7l3-7.2-13.4 0.5m10.4 6.8c-4-1.5-7.5-3.8-10.6-6.8l-0.1-0.1h0.1l13.6-0.5-3 7.4z" fill="#E84F08"/>
		<polyline points="24 46 14.1 44.5 13.3 56.8 13.5 56.9 27 56.4 24 46" fill="#CA4A00"/>
		<path d="m14.1 44.6l-0.8 12.2 0.1 0.1 13.6-0.5-3-10.3-9.9-1.5m-0.6 12.4l-0.2-0.2 0.8-12.4 9.9 1.6 3 10.5h-0.1l-13.4 0.5z" fill="#E84F08"/>
		<path d="m63.6 47.3c1.5-3.5 2.4-7.3 2.6-11.3l-9.8 8.2 7.2 3.1" fill="#C3001D"/>
		<path d="m56.5 44.2l7.1 3c1.5-3.5 2.4-7.3 2.6-11.1l-9.7 8.1m7.2 3.1l-7.4-3.1 10-8.4v0.1c-0.2 4-1 7.8-2.6 11.4z" fill="#E84F08"/>
		<path d="m57 56.9c2.8-2.7 5-6 6.6-9.6l-7.2-3.1 0.6 12.7" fill="#D37100"/>
		<path d="m56.5 44.2l0.6 12.5c2.7-2.7 4.9-5.9 6.5-9.5l-7.1-3m0.5 12.8l-0.7-12.9 7.4 3.1c-1.6 3.7-3.8 6.9-6.7 9.8z" fill="#E84F08"/>
		<path d="m35.5 3.7h-0.2c-4.6 0-8.9 1-12.8 2.8l3.6 7 9.4-9.8" fill="#EA6200"/>
		<path d="m22.5 6.5l3.5 6.9 9.3-9.6h-0.1c-4.4 0-8.7 0.9-12.7 2.7m3.5 7.1l-3.6-7.1h0.1c4.1-1.8 8.4-2.8 12.8-2.8h0.1 0.1 0.1l-9.6 9.9z" fill="#E84F08"/>
		<path d="m47.8 6.4c-3.7-1.7-7.8-2.6-12.2-2.7l8.7 9.7 3.5-7" fill="#BC6100"/>
		<path d="m35.8 3.8l8.6 9.6 3.4-7c-3.8-1.6-7.9-2.5-12-2.6m8.5 9.8l-8.8-9.9h0.1c4.2 0.1 8.3 1 12.2 2.7l-3.5 7.2z" fill="#E84F08"/>
		<path d="m26 13.5l-3.6-7c-3.6 1.6-6.8 3.9-9.5 6.7l2.2 2.1 10.9-1.8" fill="#A70011"/>
		<path d="m13 13.2l2.1 2 10.8-1.8-3.5-6.9c-3.5 1.7-6.7 3.9-9.4 6.7m2.1 2.1l-2.2-2.2c2.7-2.8 5.9-5.1 9.5-6.7l3.6 7.1h-0.1l-10.8 1.8z" fill="#E84F08"/>
		<path d="m15.1 15.3l-2.2-2.1c-2.9 3-5.1 6.5-6.7 10.4l7.2 3.2 1.7-11.5" fill="#C82F06"/>
		<path d="m6.3 23.5l7.1 3.2 1.6-11.4-2.1-2c-2.8 2.9-5.1 6.4-6.6 10.2m7.2 3.3l-7.3-3.2c1.5-3.9 3.8-7.4 6.7-10.4l2.2 2.1-1.6 11.5z" fill="#E84F08"/>
		<path d="m6.3 23.6c-1.4 3.4-2.1 7.2-2.1 11.2v0.1l9.3-8.1-7.2-3.2" fill="#9F7800"/>
		<path d="m6.3 23.6c-1.4 3.6-2.1 7.3-2.1 11.2l9.1-8-7-3.2m-2.2 11.4v-0.2c0-3.9 0.7-7.6 2.1-11.3l7.3 3.2-9.4 8.3z" fill="#E84F08"/>
		<path d="m4.2 35.1c0 4.4 1 8.5 2.7 12.3l7.3-2.9-10-9.4" fill="#A70011"/>
		<path d="m4.2 35.2c0.1 4.2 0.9 8.3 2.6 12.1l7.1-2.8-9.7-9.3m2.6 12.2c-1.7-3.9-2.6-8-2.7-12.3v-0.1l0.1 0.1 10 9.5h-0.1l-7.3 2.8z" fill="#E84F08"/>
		<polyline points="35.2 50.6 27 56.4 34.3 65.8 34.4 65.8 35.2 50.6 35.2 50.6" fill="#A70011"/>
		<polyline points="46.5 46 46.4 46 46.5 56.5 56.9 57 57 56.9 56.4 44.2 46.5 46" fill="#EE7B00"/>
		<path d="m46.5 56.5l10.4 0.5 0.1-0.1-0.6-12.6-9.9 1.7v10.5m10.4 0.6l-10.5-0.5-0.1-10.6 0.1-0.1 10-1.8v0.1l0.6 12.7-0.1 0.2z" fill="#E84F08"/>
		<polyline points="46.4 46 46.5 46 46.4 46" fill="#EE7B00"/>
		<polyline points="44.9 55.8 46.5 56.5 46.4 46 46.4 46 44.9 55.8" fill="#F19200"/>
		<polyline points="46.4 46.1 46.4 46 46.4 46.1" fill="#F19200"/>
		<path d="m35.2 50.6l-0.8 15.2h0.8c4.2 0 8.1-0.8 11.8-2.3l-11.8-12.9" fill="#C3001D"/>
		<path d="m34.5 65.8h0.2 0.5c4 0 8-0.8 11.7-2.3l-11.7-12.7-0.7 15m0.7 0.1h-0.5-0.3l0.8-15.3h0.1l11.8 12.9h-0.1c-3.8 1.6-7.7 2.4-11.8 2.4" fill="#E84F08"/>
		<polyline points="35.2 50.6 35.2 50.6 47 63.5 47 63.5 44.9 55.8 35.2 50.6" fill="#DC6407"/>
		<polyline points="35.2 50.6 35.2 50.6 35.2 50.6" fill="#DC6407"/>
		<polyline points="44.9 55.8 47 63.5 47.1 63.5 46.5 56.5 44.9 55.8" fill="#DB8400"/>
		<polyline points="24 23.6 23.9 23.7 24.1 23.5 24 23.6" fill="#fff"/>
		<polyline points="24 46 24 46 24.1 46.1 24 46" fill="#fff"/>
		<polyline points="19.4 34.8 19.4 34.7 19.3 34.8 19.4 34.9 19.4 34.8" fill="#fff"/>
		<polyline points="35.3 18.9 35.3 18.9 35.2 18.9 35.3 18.9" fill="#fff"/>
		<path d="m24.1 46.1l3 10.4 8.2-5.8c-4.4-0.1-8.4-1.8-11.2-4.6" fill="#CD6000"/>
		<path d="m24.1 46.2l3 10.2 8-5.7c-4.2-0.1-8.1-1.7-11-4.5m2.9 10.3l-3.1-10.5 0.1 0.1c3 3 6.9 4.6 11.1 4.6h0.2l-8.3 5.8z" fill="#E84F08"/>
		<path d="m35.2 50.6l9.7 5.1 1.5-9.7c-2.9 2.9-6.8 4.6-11.2 4.6" fill="#F6A900"/>
		<path d="m35.4 50.7l9.4 5 1.5-9.5c-2.9 2.8-6.8 4.4-10.9 4.5m9.5 5.1l-9.7-5.2v-0.1c4.2 0 8.1-1.6 11.1-4.6l0.1-0.1-1.5 10z" fill="#EB6E34"/>
		<polyline points="46.4 46.1 44.9 55.8 46.4 46.1" fill="#F6A900"/>
		<polyline points="44.9 55.8 44.8 55.8 46.3 46 46.4 46.1 44.9 55.8" fill="#EB6E34"/>
		<polyline points="35.2 50.6 44.9 55.8 35.2 50.6" fill="#F6A900"/>
		<polyline points="44.9 55.8 35.2 50.7 35.2 50.6 44.9 55.7 44.9 55.8" fill="#EB6E34"/>
		<path d="m51.1 34.8c0 4.4-1.8 8.4-4.6 11.2l10-1.8-5.4-9.4" fill="#F6A900"/>
		<path d="m51.1 34.9c0 4.1-1.7 8-4.5 11l9.7-1.8-5.2-9.2m-4.8 11.2l0.1-0.1c3-3 4.6-7 4.6-11.2v-0.2l5.4 9.6-10.1 1.9z" fill="#E84F08"/>
		<polyline points="46.5 46 56.4 44.2 46.5 46" fill="#F6A900"/>
		<polyline points="46.5 46 46.4 45.9 56.4 44.1 56.4 44.2 46.5 46" fill="#E84F08"/>
		<path d="m46.5 23.6l-2.1-10.1-9.1 5.4c4.3 0 8.3 1.8 11.2 4.7" fill="#F6A900"/>
		<path d="m35.4 18.9c4.1 0.1 8 1.7 11 4.6l-2.1-9.9-8.9 5.3m11.1 4.9l-0.1-0.1c-3-3-6.9-4.6-11.1-4.7h-0.1-0.1l9.2-5.5v0.1l2.2 10.2z" fill="#E84F08"/>
		<polyline points="46.5 23.6 44.3 13.5 46.5 23.6" fill="#F6A900"/>
		<polyline points="46.4 23.6 44.3 13.5 44.4 13.5 46.5 23.6 46.4 23.6" fill="#E84F08"/>
		<path d="m19.4 34.9v-0.1l-5.2 9.7 9.8 1.5v-0.1c-2.9-2.8-4.6-6.7-4.6-11" fill="#9F7800"/>
		<path d="m14.2 44.5l9.7 1.5c-2.9-2.9-4.6-6.9-4.6-11.1l-5.1 9.6m9.9 1.6l-10.1-1.6 5.3-9.9 0.1 0.2c0 4.2 1.7 8.1 4.6 11.1l0.1 0.2z" fill="#E84F08"/>
		<path d="m24.1 23.5c2.9-2.8 6.8-4.6 11.2-4.6l-9.3-5.4-1.9 10" fill="#E9E561"/>
		<path d="m26 13.6l-2 9.9c3-2.9 6.9-4.6 11.1-4.6l-9.1-5.3m-2.1 10l2.1-10.2 9.4 5.5-0.2 0.1c-4.2 0-8.2 1.6-11.1 4.6h-0.2z" fill="#E84F08"/>
		<path d="m23.9 23.7l-10.5 3.1 5.9 8v-0.1c0.1-4.3 1.8-8.2 4.6-11" fill="#F6A900"/>
		<path d="m13.5 26.8l5.8 7.9c0-4.1 1.6-8.1 4.6-11l-10.4 3.1m5.8 8.1l-5.9-8.2 10.6-3.2v0.2c-2.9 3-4.5 6.9-4.6 11l-0.1 0.2z" fill="#E84F08"/>
		<path d="m51.1 34.8l5.9-8.2-10.5-3c2.8 2.8 4.6 6.8 4.6 11.2" fill="#B5CB00"/>
		<path d="m46.6 23.7c2.8 2.9 4.5 6.9 4.5 10.9l5.7-8-10.2-2.9m4.4 11.2v-0.2c0-4.1-1.7-8.2-4.6-11.1l-0.1-0.1 10.7 3.1-6 8.3z" fill="#E84F08"/>
		<polyline points="46.4 46 46.5 46 46.4 46 46.4 46" fill="#FDE085"/>
		<polyline points="46.3 46.2 46.3 45.9 46.6 45.9 46.3 46.2" fill="#E84F08"/>
		<polyline points="46.4 46.1 46.4 46 46.4 46 46.4 46.1" fill="#FDE085"/>
		<polyline points="46.3 46.2 46.3 46 46.4 46 46.4 46.1 46.4 46.1 46.4 46.1 46.3 46.2" fill="#E84F08"/>
		<polyline points="35.2 50.6 35.2 50.6 35.2 50.6" fill="#FDE085"/>
		<polyline points="35.2 50.6 35.2 50.6 35.2 50.6 35.2 50.6" fill="#FDE085"/>
		<polyline points="35.3 50.7 35.2 50.7 35 50.7 35.2 50.6 35.3 50.7" fill="#E84F08"/>
		<polyline points="35.2 50.6 35.2 50.6 35.2 50.6 35.2 50.6" fill="#FDE085"/>
		<polyline points="35.2 50.7 35.2 50.7 35.2 50.5 35.3 50.7 35.2 50.7" fill="#E84F08"/>
		<polyline points="35.2 50.6 35.2 50.6 35.2 50.6 35.2 50.6" fill="#FDE085"/>
		<path d="m51.1 34.8c0 8.8-7.1 15.9-15.9 15.9s-15.9-7.1-15.9-15.9 7.1-15.9 15.9-15.9 15.9 7.1 15.9 15.9" fill="#FDE085"/>
		<path d="m35.2 19c-8.7 0-15.8 7.1-15.8 15.8s7.1 15.8 15.8 15.8 15.8-7.1 15.8-15.8-7.1-15.8-15.8-15.8m0 31.7c-8.8 0-15.9-7.1-15.9-15.9s7.1-15.9 15.9-15.9 15.9 7.1 15.9 15.9-7.1 15.9-15.9 15.9" fill="#E84F08"/>
		<polyline points="48.1 7.3 49.3 13.4 54.5 13.4 48.1 7.3" fill="#F4DABB"/>
		<path d="m54.6 13.5h-5.2l0.1 0.3c0 0.1-2.7 8.9-2.9 9.8l10.4 3 0.8-10-3.2-3.1" fill="#FADFBF"/>
		<path d="m54.5 13.4h-5.1v0.1l5.1-0.1m3.2 3.1l-0.8 10 0.8-10zm-11.2 7.1l4.8 1.4-4.8-1.4z" fill="#F8D4BB"/>
		<path d="m46.6 23.7c2.7 2.7 4.3 6.4 4.5 10.5v0.4l5.7-8-10.2-2.9" fill="#EDF1CC"/>
		<path d="m46.5 23.6l0.1 0.1 10.2 2.9-5.7 8v-0.4 0.4c0.8-1 5.7-8 5.8-8.1l-10.4-2.9" fill="#F8D4BB"/>
		<path d="m46.5 23.6c3 3.1 4.5 6.8 4.6 11v-0.4c-0.2-4.1-1.8-7.7-4.5-10.5l-0.1-0.1" fill="#F8D4BB"/>
		<path d="m52.4 8.9c0.5 0.3 0.9 0.6 1.4 1-0.5-0.4-0.9-0.7-1.4-1m1.8 1.2c0.6 0.5 1.1 0.9 1.7 1.4-0.4-0.4-0.9-0.8-1.4-1.2l-0.3-0.2" fill="#fff"/>
		<path d="m53.8 9.8l0.4 0.4v-0.1c-0.1-0.1-0.3-0.2-0.4-0.3" fill="#F9D9BC"/>
		<path d="m52.1 8.7c1.5 1 3 2.1 4.3 3.4-0.2-0.2-0.4-0.3-0.6-0.5-0.5-0.5-1.1-0.9-1.6-1.4-0.1-0.1-0.3-0.2-0.4-0.3-0.5-0.3-0.9-0.7-1.4-1l-0.3-0.2" fill="#F8D4BB"/>
		<line y1="13.5" x2="57.9" x1="57.9" y2="13.5" fill="#fff"/>
		<polyline points="57.6 13.2 57.9 13.5 57.9 13.5 57.6 13.2" fill="#F8D4BB"/>
		<polyline points="57.9 13.5 57.9 13.5 57.9 13.5 57.9 13.6 58 13.6 57.9 13.5" fill="#F8D4BB"/>
		<polyline points="57.9 13.6 58 13.6 58 13.6 58 13.6 57.9 13.6" fill="#F8D4BB"/>
		<polyline points="48 7.2 49.3 13.4 49.3 13.4 48.1 7.3 48 7.2" fill="#F4DABB"/>
		<path d="m49.4 13.5v0.3c0 0.1-2.4 8.1-2.9 9.6v0.2c0.2-0.9 2.9-9.7 2.9-9.8v-0.3" fill="#FADFBF"/>
		<path d="m49.3 13.4m-2.8 10.2z" fill="#F8D4BB"/>
		<polyline points="57.4 21.6 57 26.5 57.4 21.6" fill="#F8D4BB"/>
		<polyline points="57 26.5 57 26.5 57 26.5 57 26.5 57 26.5" fill="#F8D4BB"/>
		<polyline points="57.7 16.5 56.9 26.5 57 26.5 57 26.5 57.4 21.6 57.7 16.6 57.7 16.5" fill="#F8D4BB"/>
		<path d="m55.6 28.5l-4.5 6.3c0.3-0.5 2.9-4 4.5-6.3" fill="#FADFBF"/>
		<polyline points="55.7 28.4 51.1 34.8 55.6 28.5 55.7 28.4" fill="#F8D4BB"/>
		<polyline points="51.1 34.8 51.1 34.8 51.1 34.8" fill="#F8D4BB"/>
		<polyline points="46.5 23.4 46.5 23.4 46.5 23.6 46.5 23.6 46.5 23.4" fill="#F8D4BB"/>
		<polyline points="46.5 23.4 46.4 23.5 46.5 23.6 46.5 23.6 46.5 23.4" fill="#F8D4BB"/>
		<path d="m46.5 23.6m10.4 2.9c-0.1 0.1-5 7-5.8 8.1v0.2l4.5-6.3c0.8-1.1 1.4-1.9 1.3-2z" fill="#F8D4BB"/>
		<path d="m46.7 23.9c2.7 2.9 4.1 6.3 4.3 10.3-0.1-4-1.7-7.6-4.3-10.3" fill="#FFF7E3"/>
		<path d="m46.4 23.5v0.1l0.3 0.3c2.6 2.7 4.2 6.3 4.3 10.3v0.6 0.1l0.1-0.1v-0.2c-0.1-4.3-1.6-8-4.7-11.1" fill="#F8D4BB"/>
		<polyline points="27.7 11.7 26.1 13.5 34.9 18.7 27.7 11.7" fill="#F8CB9A"/>
		<polyline points="32.3 17.1 34.9 18.7 32.3 17.1" fill="#F5BB98"/>
		<path d="m25.9 13.5l-2.8 0.5c0.3 3.9 0.7 8.2 0.8 9.3l0.3-1.3 1.7-8.5" fill="#EBB58F"/>
		<polyline points="24.2 22 23.9 23.3 24.2 22" fill="#F5BB98"/>
		<polyline points="24 8.1 23.4 8.3 26 13.4 27.7 11.7 24 8.1" fill="#F6C397"/>
		<polyline points="27.7 11.7 26 13.4 26 13.4 26.1 13.5 27.7 11.7 27.7 11.7" fill="#F5BB98"/>
		<path d="m23.3 8.4l-0.7 0.3c0.1 1.4 0.3 3.3 0.5 5.2l2.8-0.5-2.6-5" fill="#D89B86"/>
		<polyline points="23.4 8.3 23.3 8.4 23.3 8.4 25.9 13.4 23.1 13.9 23.1 14 25.9 13.5 26 13.4 26 13.4 26 13.4 23.4 8.3" fill="#F5BB98"/>
		<polyline points="14.1 44.6 13.7 51.9 13.7 52.4 15.6 54.4 23.9 46.1 14.1 44.6" fill="#EBB58F"/>
		<path d="m14.1 44.6l-0.4 7.4 0.4-7.4m1.9 0.3l7.9 1.2-7.9-1.2z" fill="#F5BB98"/>
		<path d="m19.3 34.9l-0.4 0.8c-1 1.8-2.9 5.3-3.9 7.3l-0.8 1.4 9.7 1.5c-2-2-3.4-4.6-4.1-7.3-0.3-1.1-0.5-2.4-0.5-3.7" fill="#D8C499"/>
		<path d="m19.3 34.9c-0.1 0.2-0.2 0.5-0.4 0.8l0.4-0.8m0.5 3.8c0.7 2.7 2.1 5.3 4.1 7.3l-9.7-1.5 0.8-1.5c-0.5 0.9-0.8 1.5-0.8 1.5l9.8 1.5c-2-2-3.5-4.5-4.2-7.3" fill="#F5BB98"/>
		<path d="m26 13.6l-2 9.9c2.2-2.2 5.1-3.7 8.1-4.3 1-0.2 1.9-0.3 2.9-0.3l-9-5.3" fill="#F7F5C8"/>
		<path d="m26 13.4v0.1l-1.8 8.5-0.3 1.3v0.2h0.1c2.2-2.2 5-3.7 8.1-4.3-3.1 0.6-5.9 2.1-8.1 4.3l2-9.9 9.1 5.3h0.1l-0.2-0.2-8.9-5.2-0.1-0.1" fill="#F5BB98"/>
		<polyline points="24 23.5 24 23.5 24 23.5 24 23.5" fill="#F5BB98"/>
		<path d="m35.2 19c-8.5 0-15.4 6.8-15.8 15.2v0.5 0.1c0 4.4 1.8 8.3 4.6 11.2l11.2-27" fill="#FFF4D4"/>
		<path d="m35.1 18.9c-1.1 0-2 0.1-3 0.3-3.1 0.6-5.9 2.2-8.1 4.3v0.1c-1.3 1.4-4.4 5-4.6 10.5 0.3-8.3 7.3-15.1 15.8-15.1l-0.1-0.1m-15.7 15.8l-0.1 0.2c0 1.3 0.2 2.6 0.5 3.8 0.7 2.8 2.2 5.3 4.2 7.3v-0.1c-2.8-2.8-4.6-6.8-4.6-11.2" fill="#F5BB98"/>
		<path d="m22.3 6.4m-9 50.4" fill="#fff"/>
		<polyline points="13.3 56.8 13.3 56.8 13.3 56.8 13.3 56.9 13.3 56.9 13.3 56.8 13.3 56.8 13.3 56.8" fill="#F5BB98"/>
		<polyline points="13.3 56.8 13.3 56.8 13.3 56.9 13.3 56.9 13.3 56.8" fill="#F5BB98"/>
		<polyline points="27.8 11.7 27.7 11.7 34.9 18.7 35.3 18.8 35.3 18.8 27.8 11.7" fill="#F8CB9A"/>
		<polyline points="34.9 18.7 34.9 18.7 35.3 18.8 35.3 18.8 35.3 18.8 34.9 18.7" fill="#F5BB98"/>
		<polyline points="24.1 8 24 8.1 27.7 11.7 27.7 11.6 24.1 8" fill="#F6C397"/>
		<polyline points="27.7 11.6 27.7 11.7 27.7 11.7 27.8 11.7 27.7 11.6" fill="#F5BB98"/>
		<polyline points="23.9 46.1 15.6 54.4 15.7 54.5 24 46.2 24 46.1 23.9 46.1" fill="#EBB58F"/>
		<polyline points="23.9 46.1 24 46.1 24 46.2 24 46.1 23.9 46.1" fill="#F5BB98"/>
		<polyline points="24 46.1 24 46.2 24 46.1 24 46.1 24 46.1" fill="#F5BB98"/>
		<polyline points="35.3 18.8 35.3 18.8 35.3 18.9 35.3 18.8" fill="#F5BB98"/>
		<polyline points="24 46 23.9 46.1 24 46.1 24 46.1 24 46" fill="#F5BB98"/>
		<polyline points="34.9 18.7 35.1 18.9 35.2 18.9 35.3 18.9 35.3 18.8 34.9 18.7" fill="#F5BB98"/>
		<polyline points="35.2 19 35.2 19 24 46 24.1 46 35.3 19 35.2 19" fill="#FFF4D4"/>
		<path d="m35.2 18.9v0.1h0.1l-0.1-0.1h0.1-0.1m-11.2 27.1v0.1-0.1" fill="#F5BB98"/>
		<path d="m23.1 14c0.3 4.3 0.7 8.8 0.8 9.5v-0.2c-0.1-1.1-0.4-5.4-0.8-9.3" fill="#EBB58F"/>
		<polyline points="23.9 23.3 23.9 23.5 23.9 23.5 23.9 23.5 23.9 23.3" fill="#F5BB98"/>
		<path d="m22.6 8.7c0 1.4 0.2 3.3 0.4 5.3h0.1c-0.2-2.1-0.3-4-0.5-5.3" fill="#D89B86"/>
		<polyline points="23.1 13.9 23 13.9 23 14 23.1 14 23.1 13.9" fill="#F5BB98"/>
		<polyline points="14 44.6 14 44.6 13.7 50.1 14 44.6" fill="#E8A78E"/>
		<polyline points="14 44.6 14 44.6 14 44.6 13.7 50.1 13.6 52.3 13.6 52.3 14 44.6" fill="#F5BB98"/>
		<polyline points="13.7 51.9 13.7 52.4 13.7 52.4 13.7 51.9" fill="#EBB58F"/>
		<polyline points="14.1 44.6 14 44.6 13.6 52.3 13.7 52.4 13.7 51.9 14.1 44.6 14.1 44.6" fill="#F5BB98"/>
		<polyline points="14 44.5 14 44.6 14 44.6 14.1 44.6 14 44.5" fill="#F5BB98"/>
		<path d="m18.9 35.7l-3.9 7.3c1-2 2.9-5.5 3.9-7.3" fill="#D8C499"/>
		<path d="m19.3 34.8c-0.6 1.1-5.2 9.6-5.2 9.7h0.1s0.3-0.6 0.8-1.5l3.9-7.3 0.4-0.8v-0.1" fill="#F5BB98"/>
		<polyline points="23.9 23.3 23.9 23.5 24 23.5 23.9 23.3" fill="#F5BB98"/>
		<path d="m23.7 23.8c-1.3 1.4-3.9 4.6-4.3 9.3 0.1-1 0.3-2 0.6-3 0.7-2.3 2-4.5 3.7-6.3" fill="#FBDCA2"/>
		<path d="m24 23.5l-0.1 0.1-0.2 0.2c-1.7 1.8-3 4-3.7 6.3 0.8-2.5 2.2-4.8 4-6.6m-4.7 11.2v0.1-0.1" fill="#F5BB98"/>
		<path d="m19.4 34.2v0.5-0.5" fill="#FFF4D4"/>
		<path d="m24 23.5c-1.8 1.8-3.2 4-4 6.5-0.3 1-0.5 2-0.6 3 0 0.5-0.1 1-0.1 1.6v0.2l0.1-0.2v-0.5c0.2-5.5 3.2-9.2 4.6-10.5v-0.1" fill="#F5BB98"/>
		<path d="m5.8 34.8m0 0.2l0.5 2-0.5-2z" fill="#E5A274"/>
		<polyline points="6.3 37.2 8.4 46.7 8.4 46.7 6.3 37.2 6.3 37.2" fill="#D1836E"/>
		<path d="m6.3 37v0.2-0.2m2.1 9.7z" fill="#F2A97F"/>
		<polyline points="35.6 3.8 35.6 3.8 35.5 3.8 33.8 5.5 35.3 5.3 35.3 5.3 37.1 5.4 35.6 3.8 35.6 3.8" fill="#F6BA7A"/>
		<polyline points="35.5 3.8 35.5 3.8 35.6 3.8 35.6 3.8 35.5 3.8" fill="#F2A477"/>
		<polyline points="35.4 3.8 33.8 5.5 33.8 5.5 35.5 3.8 35.5 3.8 35.4 3.8" fill="#F2A477"/>
		<path d="m35.8 3.8l1.4 1.6 9.6 0.6-0.3-0.1c-3.5-1.3-7-2-10.7-2.1" fill="#DBA670"/>
		<path d="m35.6 3.8l1.4 1.6h0.1l-1.4-1.6c3.7 0.1 7.3 0.8 10.7 2.1-3.3-1.3-7-2.1-10.8-2.1" fill="#F2A477"/>
		<polyline points="47.8 6.5 47.7 6.8 48 7 47.8 6.5 47.8 6.5" fill="#E8B274"/>
		<path d="m47 6.1l0.6 0.6 0.1-0.3c-0.2-0.1-0.4-0.2-0.7-0.3" fill="#DBA670"/>
		<polyline points="47.7 6.4 47.6 6.7 47.7 6.8 47.8 6.5 47.7 6.4" fill="#F2A477"/>
		<path d="m53.7 56.9l-6.7 5.8 0.1 0.7c3.6-1.5 6.9-3.7 9.7-6.4l-3.1-0.1" fill="#DBA670"/>
		<polyline points="47 62.7 47 62.8 47 63.4 47.1 63.4 47 62.7" fill="#F2A477"/>
		<path d="m58 13.7c-0.1 0.8-0.1 1.7-0.2 2.7l2.4 2.3 1.7 5.7 2.3-1c-0.3-0.8-0.7-1.6-1.1-2.4-1.4-2.6-3.1-5.1-5.1-7.3" fill="#EDEB8C"/>
		<path d="m58 13.7l-0.2 2.7c0-1 0.1-1.9 0.2-2.7m5 7.3c0.4 0.8 0.8 1.6 1.1 2.5-0.3-0.9-0.7-1.7-1.1-2.5" fill="#F2A477"/>
		<path d="m64.1 23.6l-2.3 1 2.8 9.6 1.5 1.5v-0.2-0.6-0.2c0.1-3.9-0.6-7.6-2-11.1" fill="#E8B274"/>
		<path d="m64.1 23.5l-2.3 1v0.1l2.3-1.1c1.4 3.6 2.1 7.3 2.1 11.1 0-3.9-0.8-7.7-2.1-11.1m2.1 11.1m0 0.1m0 0.1v0.6 0.2-0.8" fill="#F2A477"/>
		<polyline points="64.8 34.3 64.9 34.8 64.4 37.4 66.2 35.9 66.2 35.9 66.2 35.7 64.8 34.3" fill="#F6BA7A"/>
		<polyline points="64.7 34.1 64.8 34.3 66.2 35.7 66.2 35.9 66.2 35.6 66.2 35.6 64.7 34.1" fill="#F2A477"/>
		<polyline points="58 13.7 57.8 16.4 58 13.7" fill="#F2A477"/>
		<path d="m66.2 36.1l-1.8 1.5-1.3 7.3-0.9 1.7 1.4 0.6c0.2-0.3 0.3-0.7 0.4-1.1 1.3-3.2 2-6.6 2.2-10" fill="#DC8570"/>
		<path d="m66.2 35.9l-1.8 1.5v0.2l1.8-1.5c-0.1 3.5-0.9 6.9-2.1 10.1 1.2-3.2 2-6.7 2.1-10.3" fill="#F2A477"/>
		<path d="m62.2 46.7l-2.9 5.4-2.3 2 0.1 2.6c2.7-2.7 4.9-5.9 6.5-9.4l-1.4-0.6" fill="#E8B274"/>
		<polyline points="62.2 46.6 62.2 46.7 63.6 47.3 63.6 47.2 62.2 46.6" fill="#F2A477"/>
		<polyline points="56.9 54.2 53.8 56.8 56.9 57 57 56.8 56.9 54.2" fill="#F6BA7A"/>
		<path d="m57 54.1l0.1 2.7 0.1-0.1-0.2-2.6m-3.2 2.7l-0.1 0.1 3 0.1 0.1-0.1-3-0.1z" fill="#F2A477"/>
		<path d="m24.9 61.7l-0.8 2c3.2 1.3 6.7 1.9 10.2 2.1l-1.7-2.2-7.7-1.9" fill="#CA8B64"/>
		<path d="m24.9 61.7l-0.8 2c3.2 1.2 6.6 2 10.3 2.1l-1.7-2.1h-0.1l1.7 2.2c-3.5-0.1-6.9-0.8-10.2-2.1l0.8-2.1" fill="#F2A477"/>
		<path d="m17.7 56.8l-4.1 0.2c2.6 2.5 5.6 4.6 8.9 6.1 0.5 0.2 1 0.4 1.4 0.6l0.8-2-3.1-0.8-3.9-4.1" fill="#CB8C62"/>
		<path d="m17.7 56.8l-4.1 0.2 4.1-0.2m7.1 4.9l-0.8 2c-0.5-0.2-1-0.4-1.4-0.6l1.5 0.6 0.7-2z" fill="#F2A477"/>
		<polyline points="15.6 54.6 13.4 56.8 13.5 56.9 17.7 56.7 15.6 54.6" fill="#E39C6C"/>
		<polyline points="17.7 56.7 13.5 56.9 13.6 57 17.7 56.8 17.7 56.7" fill="#F2A477"/>
		<polyline points="32.6 63.6 34.3 65.8 34.4 65.8 34.5 64.1 32.6 63.6" fill="#CC7C65"/>
		<path d="m46.4 63l-11.1 1.3-0.7-0.2-0.1 1.7h0.2 0.5 0.2c1.9 0 3.7-0.2 5.5-0.5 1.6-0.3 3.2-0.7 4.8-1.3 0.4-0.1 0.8-0.3 1.2-0.5l-0.5-0.5" fill="#DC8570"/>
		<path d="m46.5 63l0.4 0.5-0.4-0.5m-0.8 1c-1.6 0.6-3.1 1-4.8 1.3 1.6-0.3 3.2-0.8 4.8-1.3m-11.2 0.1l-0.1 1.7h0.8-0.5-0.2v-1.7zm6.4 1.2m-5.5 0.5zm-0.1 0m-0.1 0" fill="#F2A477"/>
		<polyline points="46.9 62.9 46.8 62.9 46.5 63 46.9 63.5 47 63.4 46.9 62.9" fill="#EBAC79"/>
		<polyline points="47 62.8 46.9 62.9 47 63.4 47 63.4 47 62.8" fill="#ECBC79"/>
		<path d="m8.3 46.8l-1.4 0.6c1.6 3.5 3.7 6.6 6.4 9.3l0.3-4.3-5.3-5.6" fill="#E0896D"/>
		<path d="m8.3 46.8l-1.4 0.6 1.4-0.6m5.3 5.6l-0.3 4.3 0.3-4.3z" fill="#F2A477"/>
		<polyline points="8.3 46.8 6.9 47.3 6.9 47.4 8.3 46.8 8.3 46.8 8.3 46.8" fill="#F2A477"/>
		<path d="m48 6.5l0.1 0.6 6.5 6.3h3c-1.7-1.8-3.5-3.3-5.6-4.6-1.8-1.2-3.6-2.1-4-2.3" fill="#F9EBDC"/>
		<polyline points="57.7 13.5 54.7 13.5 57.7 16.4 57.9 13.7 57.7 13.5" fill="#FCEEDE"/>
		<path d="m57.7 13.4h-3l0.1 0.1 2.9-0.1m0.2 0.2l-0.2 2.7 0.2-2.7z" fill="#FBE8DC"/>
		<path d="m47.8 6.5l0.2 0.5 0.1 0.1-0.1-0.6c0.4 0.2 2.3 1.1 4.1 2.2-1.4-0.8-2.8-1.6-4.3-2.2" fill="#F9EBDC"/>
		<polyline points="57.9 13.6 57.7 16.4 57.8 16.4 58 13.7 57.9 13.6" fill="#FBE8DC"/>
		<polyline points="13.6 52.5 13.4 56.7 15.5 54.5 13.6 52.5" fill="#F3D9C4"/>
		<polyline points="13.6 52.4 13.3 56.7 13.3 56.7 13.6 52.4 13.6 52.4" fill="#F9DCC9"/>
		<polyline points="13.6 52.5 13.4 56.8 13.4 56.8 15.6 54.6 15.5 54.5 13.4 56.7 13.6 52.5 13.6 52.5" fill="#F3D9C4"/>
		<polyline points="13.6 52.4 13.3 56.7 13.4 56.8 13.6 52.5 13.6 52.4" fill="#F9DCC9"/>
		<path d="m22.4 6.6l-0.6 0.3c-3.3 1.6-6.3 3.7-8.8 6.3l1.4 1.3 4.5-4.3 3.6-1.6c-0.1-1.1-0.1-1.8-0.1-2" fill="#CC7C65"/>
		<path d="m22.4 6.6l-0.6 0.3 0.6-0.3m-8.8 7.1l0.8 0.7-0.8-0.7z" fill="#F2A477"/>
		<path d="m12.9 13.2c-2.8 2.9-5.1 6.4-6.6 10.3l2.8 1.2 2.6-7.7 2.6-2.5-1.4-1.3" fill="#E18F6C"/>
		<polyline points="13 13.2 12.9 13.2 14.3 14.6 14.4 14.5 13 13.2" fill="#F2A477"/>
		<path d="m6.3 23.6c-0.1 0.2-0.1 0.4-0.2 0.5-1.1 3.1-1.8 6.3-1.9 9.6v1l2.1-1.9 2.7-8.1-2.7-1.1" fill="#CBB178"/>
		<path d="m6.3 23.5l2.7 1.3v-0.1l-2.7-1.2m-0.2 0.6c-1.1 3-1.8 6.3-1.9 9.6 0.1-3.2 0.8-6.5 1.9-9.6m0.2 8.8l-2.1 1.9v0.1l2.1-1.9v-0.1zm-2.1 0.9m0 0.1m0 0.1m0 0.1m0 0.1m0 0.1m0 0.1m0 0.1m0 0.1m0 0.1" fill="#F2A477"/>
		<path d="m22.5 6.8c0 0.3 0.1 1 0.2 1.8l0.6-0.3-0.8-1.5" fill="#EBCBBE"/>
		<polyline points="22.5 6.6 22.5 6.8 23.3 8.3 23.3 8.3 22.5 6.6 22.5 6.6" fill="#F9DCC9"/>
		<path d="m22.4 6.6c0 0.2 0.1 1 0.2 2h0.1c-0.1-0.8-0.1-1.4-0.2-1.8l-0.1-0.2" fill="#EBCBBE"/>
		<polyline points="22.4 6.5 22.4 6.6 22.4 6.6 22.4 6.6 22.5 6.8 22.5 6.6 22.5 6.6 22.4 6.5" fill="#F9DCC9"/>
		<path d="m35.2 3.8c-3.1 0-6.1 0.5-8.9 1.3-1.3 0.4-2.6 0.9-3.8 1.4l1.5 1.5 4-1.8 5.7-0.7 1.7-1.7h-0.2" fill="#FBE8D7"/>
		<path d="m35.2 3.8h0.1l-1.7 1.7h0.1l1.6-1.7h-0.1m-8.9 1.3c-1.3 0.4-2.6 0.9-3.8 1.4 1.2-0.5 2.5-1 3.8-1.4" fill="#FAE4D6"/>
		<polyline points="22.6 6.7 23.3 8.2 23.9 8 22.6 6.7" fill="#FDF5EF"/>
		<polyline points="22.5 6.6 23.3 8.3 23.3 8.3 23.3 8.2 22.6 6.7 22.5 6.6" fill="#FDF5EF"/>
		<polyline points="22.5 6.5 22.5 6.5 22.6 6.7 23.9 8 24 8 22.5 6.5" fill="#FDF5EF"/>
		<polyline points="22.5 6.5 22.5 6.5 22.5 6.5 22.5 6.5" fill="#FDF5EF"/>
		<polyline points="22.5 6.5 22.4 6.5 22.5 6.6 22.6 6.7 22.5 6.5" fill="#FDF5EF"/>
		<polyline points="6.3 33.1 4.2 34.9 4.2 35 4.2 35 4.2 35.1 6.2 36.9 5.7 34.8 6.3 33.1" fill="#F1CFB6"/>
		<polyline points="4.2 35 4.2 35.1 4.2 35.1 4.2 35 4.2 35" fill="#F8D4BB"/>
		<polyline points="6.3 33 4.2 34.8 4.2 34.9 6.3 33.1 6.3 33" fill="#F8D4BB"/>
		<path d="m4.2 35.2c0 2.5 0.4 4.9 1 7.3 0.4 1.7 1 3.3 1.7 4.8l1.4-0.6-2.1-9.6-2-1.9" fill="#E6BFAF"/>
		<path d="m4.2 35.1c0 2.6 0.4 5 1 7.4-0.6-2.4-0.9-4.8-1-7.2l2 1.9v-0.2l-2-1.9m4.1 11.6l-1.4 0.6 1.4-0.6z" fill="#F8D4BB"/>
		<path d="m35.2 3.7h0.1 0.1 0.1 0.1c3.5 0 6.8 0.7 10 1.8-3.2-1.2-6.7-1.8-10.4-1.8m-9.3 1.4c-1.2 0.4-2.3 0.8-3.5 1.3 1.1-0.5 2.3-0.9 3.5-1.3" fill="#fff"/>
		<path d="m45.7 5.5c0.1 0 0.3 0.1 0.4 0.1-0.1 0-0.3-0.1-0.4-0.1" fill="#C7DB8C"/>
		<path d="m47.8 6.5m-0.1 0.3l0.3 0.4v-0.2l-0.3-0.2z" fill="#E8B274"/>
		<path d="m47.9 6.4c0.1 0 2.2 1 4.3 2.3-1.4-0.9-2.8-1.7-4.3-2.3m-0.1 0z" fill="#F2A477"/>
		<path d="m35.6 3.8m-0.3 1.5l-1.5 0.2-0.1 0.1 1.6-0.2 1.8 0.1-0.1-0.1-1.7-0.1z" fill="#F6BA7A"/>
		<path d="m35.6 3.7z" fill="#F2A477"/>
		<polyline points="33.6 5.5 28 6.2 24 8 24.1 8 28 6.3 33.6 5.6 33.6 5.5" fill="#F3AC75"/>
		<path d="m35.2 3.7c-3.3 0-6.4 0.5-9.3 1.4-1.2 0.4-2.3 0.8-3.5 1.3 5.3-2.5 11.4-2.7 12.8-2.7h0.2l-0.1 0.1h0.1l0.1-0.1h-0.1-0.1-0.1m-1.4 1.8l-0.1 0.1h-0.1l-0.1 0.1h0.2l0.1-0.2z" fill="#F2A477"/>
		<path d="m37.2 5.4l0.1 0.1 9.6 0.6 0.7 0.6v-0.1l-0.6-0.5c0.2 0.1 0.5 0.2 0.7 0.3-0.4-0.2-0.9-0.4-1.3-0.5l0.4 0.1-9.6-0.6" fill="#DBA670"/>
		<path d="m35.5 3.7c3.9 0.1 7.5 0.9 10.9 2.2 0.4 0.2 0.9 0.3 1.3 0.5h0.1v-0.1c-0.6-0.3-1.2-0.5-1.8-0.7-0.1-0.1-0.3-0.1-0.4-0.1-3.2-1.2-6.6-1.8-10-1.8h-0.1m1.6 1.7l0.1 0.1h0.1l-0.1-0.1h-0.1zm10.5 1.3v0.2-0.2z" fill="#F2A477"/>
		<polyline points="22.4 6.4 22.4 6.4 22.4 6.5 22.4 6.4" fill="#F2A477"/>
		<path d="m22.3 6.5c-0.2 0.1-0.3 0.2-0.5 0.2 0.2-0.1 0.4-0.2 0.5-0.2m-16.3 17.7c-0.8 2.2-1.4 4.6-1.7 7.1 0.3-2.5 0.8-4.8 1.7-7.1m-1.7 7.1m-0.2 3.7zc0 2.4 0.3 4.7 0.8 7-0.5-2.2-0.8-4.5-0.8-6.9v-0.1z" fill="#fff"/>
		<polyline points="4.2 35 4.1 35 4.1 35 4.2 35 4.2 35" fill="#F2A477"/>
		<path d="m6.9 47.4c1.5 3.5 3.7 6.6 6.4 9.3-2.7-2.7-4.8-5.8-6.4-9.3" fill="#E0896D"/>
		<path d="m6.9 47.4c1.5 3.6 3.7 6.7 6.4 9.4v-0.1c-2.7-2.7-4.9-5.8-6.4-9.3" fill="#F2A477"/>
		<polyline points="22.3 6.5 22.3 6.5 22.3 6.5" fill="#F2A477"/>
		<path d="m21.8 6.8c-3.3 1.6-6.2 3.7-8.8 6.3 2.5-2.5 5.5-4.7 8.8-6.3" fill="#CC7C65"/>
		<path d="m22.3 6.5c-0.2 0.1-0.3 0.2-0.5 0.2-3.3 1.6-6.4 3.8-8.9 6.4l0.1 0.1c2.6-2.6 5.5-4.7 8.8-6.3l0.6-0.3-0.1-0.1" fill="#F2A477"/>
		<path d="m12.9 13.2c-2.9 3-5.1 6.4-6.6 10.3 1.5-3.8 3.8-7.3 6.6-10.3" fill="#E18F6C"/>
		<path d="m12.9 13.1c-2.9 3-5.2 6.5-6.7 10.4h0.1c1.5-3.8 3.7-7.3 6.6-10.3v-0.1" fill="#F2A477"/>
		<path d="m6.3 23.6c-0.1 0.2-0.1 0.4-0.2 0.5 0.1-0.1 0.1-0.3 0.2-0.5m-2.1 10.2zm0 0.1m0 0.1m0 0.1m0 0.1m0 0.1m0 0.1m0 0.1m0 0.1m0 0.1m0 0.1" fill="#CBB178"/>
		<path d="m6.2 23.5c-0.1 0.2-0.1 0.5-0.2 0.7-0.8 2.3-1.4 4.6-1.7 7-0.1 1.2-0.2 2.3-0.2 3.5v0.3-0.1-0.1-0.1-0.2-0.2-0.3c0.1-3.4 0.8-6.6 1.9-9.6 0.1-0.2 0.1-0.4 0.2-0.5v-0.4" fill="#F2A477"/>
		<path d="m4.1 35v0.1c0 2.3 0.3 4.6 0.8 6.9 0.4 1.9 1.1 3.7 1.8 5.4h0.1-0.1s-1.3-2.8-1.9-5.9c-0.6-3-0.6-5.8-0.7-6.5" fill="#F2A477"/>
		<polyline points="6.4 33 6.4 33 5.8 34.8 6.4 33" fill="#E39C6C"/>
		<polyline points="22.5 8.6 18.9 10.2 14.4 14.5 14.4 14.6 19 10.3 22.5 8.7 22.5 8.6" fill="#CC7C65"/>
		<polyline points="14.4 14.5 14.4 14.6 14.4 14.5" fill="#F2A477"/>
		<polyline points="14.3 14.6 11.7 17 9.1 24.7 9.2 24.8 11.8 17.1 14.4 14.6 14.3 14.6" fill="#E18F6C"/>
		<polyline points="14.4 14.5 14.3 14.6 14.4 14.6 14.4 14.6 14.4 14.5" fill="#F2A477"/>
		<polyline points="9.1 24.8 6.3 32.9 6.5 32.8 9.1 24.9 9.1 24.8" fill="#CBB178"/>
		<path d="m9.1 24.7l0.1 0.1-0.1-0.1m-2.6 8.1l-0.1 0.1v0.1l0.1-0.1v0.1-0.2z" fill="#F2A477"/>
		<path d="m56.4 12.1l1.2 1.2c-0.4-0.5-0.8-0.9-1.2-1.2" fill="#F2A477"/>
		<path d="m63.1 21c0.4 0.8 0.7 1.6 1.1 2.4 1.4 3.6 2.1 7.3 2.1 11.1 0-4.8-1.2-9.4-3.2-13.5m3.2 13.6m0 0.1m0 0.1v0.4-0.4m0 1v0.2c-0.1 3.5-0.8 6.8-2.1 10.1 1.3-3.3 2-6.7 2.1-10.3m-43.8 27.4c3.9 1.7 8.2 2.7 12.7 2.7h-0.5-0.3-0.1c-3.6-0.1-7.1-0.8-10.4-2.1-0.4-0.2-0.9-0.4-1.4-0.6m12.9 2.7zm-0.1 0m-0.1 0" fill="#fff"/>
		<path d="m66.3 35.2v0.2 0.4-0.6" fill="#DC8570"/>
		<path d="m45.3 64.2c-1.1 0.4-2.1 0.7-3.2 0.9 1.1-0.2 2.1-0.5 3.2-0.9m-3.3 0.9" fill="#fff"/>
		<path d="m56.8 57.1c-2.8 2.7-6 4.9-9.7 6.4 3.6-1.6 6.8-3.7 9.7-6.4" fill="#DBA670"/>
		<path d="m56.8 57.1c-2.8 2.7-6.1 4.9-9.7 6.4v0.1c3.7-1.5 7-3.7 9.8-6.5h-0.1" fill="#F2A477"/>
		<path d="m58 13.7c2 2.2 3.7 4.6 5 7.3-1.3-2.6-3-5.1-5-7.3" fill="#EDEB8C"/>
		<path d="m58 13.6v0.1c2 2.2 3.7 4.6 5 7.3 0.4 0.8 0.8 1.6 1.1 2.4h0.1c-0.3-0.8-0.7-1.6-1.1-2.4-1.3-2.7-3.1-5.2-5.1-7.4" fill="#F2A477"/>
		<path d="m66.2 34.6m0 0.1m0 0.1" fill="#E8B274"/>
		<path d="m64.2 23.4c1.3 3.5 2 7.2 2 11.2v0.2 0.8l0.1 0.1v0.1-0.4-0.2-0.4-0.2c0-3.8-0.7-7.6-2.1-11.2" fill="#F2A477"/>
		<polyline points="66.2 35.9 66.2 35.9 66.2 35.9 66.2 35.9" fill="#F6BA7A"/>
		<path d="m66.2 35.6v0.3l0.1-0.1-0.1-0.2m0.1 0.3" fill="#F2A477"/>
		<polyline points="58 13.6 58 13.7 58 13.7 58 13.6" fill="#F2A477"/>
		<path d="m24 63.7c3.2 1.4 6.7 2.1 10.3 2.2h0.1-0.1v-0.1c-3.6-0.1-7.1-0.9-10.3-2.1" fill="#F2A477"/>
		<path d="m13.6 57c2.6 2.6 5.6 4.6 8.9 6.1-3.3-1.5-6.3-3.6-8.9-6.1" fill="#CB8C62"/>
		<path d="m13.6 57h-0.1c2.6 2.6 5.7 4.7 9.1 6.2 0.5 0.2 0.9 0.4 1.4 0.6v-0.1l-1.5-0.6c-3.3-1.5-6.3-3.6-8.9-6.1" fill="#F2A477"/>
		<polyline points="13.4 56.8 13.4 56.8 13.5 56.9 13.5 56.9 13.4 56.8" fill="#E39C6C"/>
		<polyline points="13.4 56.8 13.3 56.9 13.5 57 13.6 57 13.5 56.9 13.5 56.9 13.4 56.8" fill="#F2A477"/>
		<path d="m64.1 46.1c-0.1 0.4-0.3 0.7-0.4 1.1 0.1-0.3 0.2-0.7 0.4-1.1" fill="#DC8570"/>
		<path d="m66.3 35.8c-0.2 3.7-1 7.1-2.2 10.3-0.1 0.4-0.3 0.7-0.4 1.1h0.1c0.2-0.4 0.3-0.8 0.5-1.2 1.2-3.2 1.9-6.6 2.1-10.1l-0.1-0.1" fill="#F2A477"/>
		<path d="m63.6 47.3c-1.6 3.5-3.8 6.7-6.5 9.4 2.7-2.7 4.9-5.9 6.5-9.4" fill="#E8B274"/>
		<path d="m63.6 47.2c-1.6 3.6-3.8 6.8-6.5 9.5v0.1c2.7-2.7 5-5.9 6.5-9.6" fill="#F2A477"/>
		<polyline points="34.3 65.8 34.3 65.8 34.4 65.8 34.4 65.8 34.3 65.8" fill="#CC7C65"/>
		<polyline points="57 56.8 56.9 57 56.9 57 57 56.8 57 56.8" fill="#F6BA7A"/>
		<polyline points="57.1 56.7 57 56.8 57 56.8 56.9 57 56.9 57 56.8 57.1 56.8 57.1 56.9 57.1 56.9 57.1 57.1 56.9 57.1 56.9 57.1 56.7 57.1 56.7" fill="#F2A477"/>
		<path d="m46.9 63.5c-0.4 0.2-0.8 0.3-1.2 0.5 0.4-0.2 0.8-0.3 1.2-0.5m-6 1.8c-1.8 0.3-3.6 0.5-5.5 0.5 1.8 0 3.7-0.2 5.5-0.5m-5.5 0.5m-0.1 0m-0.1 0" fill="#DC8570"/>
		<path d="m46.9 63.5c-0.5 0.2-0.9 0.3-1.3 0.5-1.5 0.5-3.1 1-4.8 1.3-1.8 0.3-3.6 0.5-5.5 0.5h-0.2-0.8 0.1 0.3 0.5 0.2c2.3 0 4.5-0.3 6.6-0.8 1.1-0.2 2.2-0.6 3.2-0.9 0.6-0.2 1.2-0.4 1.8-0.7l-0.1 0.1" fill="#F2A477"/>
		<polyline points="47 63.5 46.9 63.5 47 63.5 47 63.5 47 63.5 47 63.5" fill="#EBAC79"/>
		<polyline points="47 63.4 47 63.5 47 63.5 47.1 63.5 47 63.4" fill="#ECBC79"/>
		<polyline points="53.6 56.9 47 62.6 47 62.7 53.7 56.9 53.6 56.9" fill="#DBA670"/>
		<polyline points="47 62.6 47 62.7 47 62.8 47 62.7 47 62.6" fill="#F2A477"/>
		<polyline points="57.8 16.5 57.8 16.6 60.1 18.8 61.7 24.5 61.8 24.4 60.1 18.7 57.8 16.5" fill="#EDEB8C"/>
		<polyline points="57.8 16.4 57.7 16.6 57.8 16.6 57.8 16.5 57.8 16.4" fill="#F2A477"/>
		<polyline points="61.9 24.5 61.8 24.6 64.6 34 64.7 34.1 61.9 24.5" fill="#E8B274"/>
		<polyline points="61.8 24.4 61.7 24.5 61.8 24.6 61.9 24.5 61.8 24.4" fill="#F2A477"/>
		<polyline points="64.6 34.2 64.8 34.8 64.3 37.5 64.4 37.4 64.9 34.8 64.8 34.3 64.6 34.2" fill="#F6BA7A"/>
		<polyline points="64.6 34 64.6 34.2 64.8 34.3 64.7 34.1 64.6 34" fill="#F2A477"/>
		<polyline points="57.8 16.4 57.7 16.6 57.7 16.6 57.8 16.4" fill="#F2A477"/>
		<polyline points="64.4 37.5 64.3 37.6 63 44.9 62.1 46.6 62.2 46.6 63.1 44.9 64.4 37.5" fill="#DC8570"/>
		<polyline points="64.4 37.4 64.3 37.5 64.3 37.6 64.4 37.5 64.4 37.4" fill="#F2A477"/>
		<polyline points="62.1 46.6 59.2 52 57 54 57 54.1 59.3 52.1 62.2 46.7 62.1 46.6" fill="#E8B274"/>
		<polyline points="62.1 46.6 62.1 46.6 62.2 46.7 62.2 46.6 62.1 46.6" fill="#F2A477"/>
		<polyline points="56.9 54.1 53.7 56.8 53.8 56.8 56.9 54.2 56.9 54.1" fill="#F6BA7A"/>
		<path d="m57 54l-0.1 0.2 0.1-0.1v-0.1m-3.3 2.8l-0.1 0.1h0.1l0.1-0.1h-0.1z" fill="#F2A477"/>
		<polyline points="24.9 61.6 24.9 61.7 32.5 63.6 32.5 63.5 24.9 61.6" fill="#CA8B64"/>
		<path d="m24.9 61.6m7.6 1.9l0.1 0.1h0.1l-0.2-0.1z" fill="#F2A477"/>
		<polyline points="17.9 56.8 17.7 56.8 21.6 60.9 24.8 61.7 24.8 61.6 21.7 60.9 17.9 56.8" fill="#CB8C62"/>
		<path d="m17.9 56.8h-0.1 0.1m6.9 4.8l0.1 0.1-0.1-0.1z" fill="#F2A477"/>
		<polyline points="15.7 54.5 15.6 54.6 17.7 56.7 17.8 56.7 15.7 54.5" fill="#E39C6C"/>
		<polyline points="17.8 56.7 17.7 56.7 17.7 56.8 17.9 56.8 17.8 56.7" fill="#F2A477"/>
		<polyline points="32.5 63.5 32.6 63.6 34.5 64.1 34.5 64 32.5 63.5" fill="#CC7C65"/>
		<polyline points="46.3 62.9 35.3 64.2 34.6 64 34.6 64.1 35.3 64.3 46.4 63 46.3 62.9" fill="#DC8570"/>
		<path d="m46.4 62.9m-11.9 1.1l0.1 0.1-0.1-0.1z" fill="#F2A477"/>
		<polyline points="46.8 62.8 46.8 62.8 46.4 62.9 46.5 63 46.8 62.9 46.9 62.9 46.8 62.8" fill="#EBAC79"/>
		<polyline points="47 62.7 46.8 62.8 46.9 62.9 47 62.8 47 62.7" fill="#ECBC79"/>
		<polyline points="8.4 46.8 8.3 46.8 13.6 52.4 13.6 52.3 8.4 46.8" fill="#E0896D"/>
		<path d="m8.4 46.8m5.2 5.5v0.1-0.1z" fill="#F2A477"/>
		<polyline points="8.4 46.8 8.3 46.8 8.3 46.8 8.3 46.8 8.4 46.8 8.4 46.8" fill="#F2A477"/>
		<polyline points="48.1 7.1 48.1 7.3 54.5 13.4 54.6 13.4 48.1 7.1" fill="#F9EBDC"/>
		<polyline points="54.7 13.5 54.6 13.5 57.7 16.5 57.7 16.4 54.7 13.5" fill="#FCEEDE"/>
		<path d="m54.6 13.4h-0.1 0.1m3.1 3v0.1-0.1z" fill="#FBE8DC"/>
		<path d="m52.1 8.8c2 1.3 3.9 2.9 5.6 4.6l-0.1-0.1c-0.4-0.4-0.9-0.9-1.7-1.6-1.1-1-2.3-1.9-3.5-2.7l-0.3-0.2" fill="#F9EBDC"/>
		<path d="m52.3 8.9c1.2 0.8 2.4 1.7 3.5 2.7-0.5-0.4-1-0.9-1.5-1.3s-1.3-0.9-2-1.4m5.2 4.4l0.1 0.1-0.1-0.1" fill="#FBE8DC"/>
		<polyline points="57.7 13.5 57.7 13.5 57.9 13.7 57.9 13.6 57.8 13.6 57.7 13.5" fill="#FCEEDE"/>
		<path d="m57.7 13.4l0.2 0.2-0.2-0.2m0.2 0.2" fill="#FBE8DC"/>
		<polyline points="57.9 13.5 57.9 13.5 57.9 13.5 57.9 13.5" fill="#fff"/>
		<path d="m47.8 6.5c1.5 0.7 2.9 1.4 4.2 2.3l0.3 0.2c-1.4-1-2.9-1.8-4.5-2.5m8.1 5.2c0.7 0.7 1.3 1.3 1.7 1.6-0.6-0.6-1.2-1.1-1.7-1.6" fill="#F9EBDC"/>
		<path d="m47.9 6.4c1.5 0.8 3 1.6 4.5 2.6 0.7 0.5 1.4 0.9 2 1.4 0.5 0.4 1 0.9 1.5 1.3 0.6 0.5 1.1 1 1.7 1.6l0.1 0.1h0.1l0.1 0.1-0.3-0.3-1.2-1.2c-1.3-1.2-2.8-2.4-4.3-3.4-2.1-1.2-4.2-2.2-4.2-2.2" fill="#FBE8DC"/>
		<polyline points="57.9 13.5 57.9 13.5 57.9 13.6 57.9 13.5" fill="#FBE8DC"/>
		<polyline points="57.8 13.6 57.9 13.6 57.8 13.6" fill="#FCEEDE"/>
		<polyline points="57.8 13.4 57.7 13.4 57.8 13.6 57.9 13.6 57.9 13.6 58 13.7 58 13.6 57.9 13.6 57.9 13.5 57.9 13.5 57.8 13.4" fill="#FBE8DC"/>
		<polyline points="47.8 6.4 47.8 6.4 47.9 6.4 47.9 6.4 47.8 6.4" fill="#FBE8DC"/>
		<polyline points="48 7 48 7.2 48.1 7.3 48.1 7.1 48 7" fill="#F9EBDC"/>
		<polyline points="57.7 16.4 57.7 16.5 57.7 16.6 57.8 16.4 57.7 16.4" fill="#FBE8DC"/>
		<polyline points="23.9 8 23.4 8.3 23.4 8.3 24 8.1 23.9 8" fill="#FAE0C9"/>
		<polyline points="23.3 8.3 22.6 8.6 22.6 8.7 23.3 8.4 23.3 8.3" fill="#EBCBBE"/>
		<polyline points="23.3 8.3 23.3 8.3 23.3 8.4 23.3 8.4 23.4 8.3 23.4 8.3 23.3 8.3 23.3 8.3" fill="#F9DCC9"/>
		<polyline points="13.7 52.4 13.6 52.5 15.5 54.5 15.6 54.4 13.7 52.4" fill="#F3D9C4"/>
		<polyline points="22.4 6.4 22.3 6.5 22.4 6.5 22.4 6.4" fill="#fff"/>
		<path d="m22.4 6.5z" fill="#F9DCC9"/>
		<polyline points="22.4 6.4 22.4 6.5 22.3 6.5 22.4 6.5 22.4 6.6 22.4 6.5 22.4 6.5 22.4 6.5 22.4 6.5 22.4 6.4" fill="#F9DCC9"/>
		<polyline points="24 8 23.9 8 24 8.1 24.1 8 24 8" fill="#FAE0C9"/>
		<polyline points="22.6 8.6 22.5 8.6 22.5 8.7 22.6 8.7 22.6 8.6" fill="#EBCBBE"/>
		<polyline points="13.6 52.3 13.6 52.4 13.6 52.4 13.6 52.3 13.6 52.3" fill="#F9DCC9"/>
		<polyline points="13.7 52.4 13.6 52.5 13.6 52.5 13.7 52.4 13.7 52.4" fill="#F3D9C4"/>
		<polyline points="13.6 52.3 13.6 52.4 13.6 52.5 13.7 52.4 13.6 52.3" fill="#F9DCC9"/>
		<polyline points="15.6 54.4 15.5 54.5 15.6 54.6 15.7 54.5 15.6 54.4" fill="#F3D9C4"/>
		<polyline points="13.3 56.7 13.3 56.8 13.3 56.8 13.3 56.7 13.3 56.7" fill="#F9DCC9"/>
		<polyline points="13.4 56.8 13.4 56.8 13.4 56.8 13.4 56.8 13.4 56.8" fill="#F3D9C4"/>
		<polyline points="13.3 56.7 13.3 56.8 13.3 56.9 13.4 56.8 13.4 56.8 13.4 56.8 13.3 56.7" fill="#F9DCC9"/>
		<path d="m35.2 3.8c-3 0-6 0.4-8.9 1.3 2.8-0.9 5.8-1.3 8.9-1.3" fill="#FBE8D7"/>
		<path d="m35.2 3.7c-1.4 0-7.4 0.2-12.7 2.8 1.2-0.6 2.5-1 3.8-1.4 2.9-0.9 5.8-1.3 8.9-1.4l0.2 0.1 0.1-0.1h-0.3" fill="#FAE4D6"/>
		<polyline points="22.4 6.5 22.4 6.5 22.5 6.5 22.5 6.5 22.4 6.5" fill="#FDF5EF"/>
		<polyline points="22.4 6.5 22.4 6.5 22.4 6.5 22.5 6.5 22.4 6.5" fill="#FDF5EF"/>
		<polyline points="5.8 34.8 5.8 34.8 5.8 35 5.8 34.8" fill="#E39C6C"/>
		<polyline points="6.4 33 6.3 33.1 5.7 34.8 6.2 36.9 6.3 37 5.8 35 5.8 34.8 5.8 34.8 5.8 34.8 6.4 33" fill="#F1CFB6"/>
		<polyline points="6.4 32.9 6.3 33 6.3 33.1 6.4 33 6.4 32.9" fill="#F8D4BB"/>
		<polyline points="6.2 37.1 8.3 46.7 8.4 46.7 6.3 37.2 6.2 37.1" fill="#E6BFAF"/>
		<path d="m6.2 36.9v0.2l0.1 0.1v-0.2l-0.1-0.1m2.2 9.8z" fill="#F8D4BB"/>
		<polyline points="33.7 5.5 28 6.2 24 8 24 8 28 6.2 33.6 5.5 33.7 5.5" fill="#FBE8D7"/>
		<polyline points="33.8 5.5 33.7 5.5 33.6 5.5 33.7 5.5 33.8 5.5" fill="#FAE4D6"/>
		<polyline points="23.9 8 23.3 8.2 23.4 8.3 23.9 8 23.9 8" fill="#FDF5EF"/>
		<polyline points="23.3 8.2 23.3 8.3 23.3 8.3 23.3 8.3 23.4 8.3 23.3 8.2" fill="#FDF5EF"/>
		<polyline points="24 8 23.9 8 23.9 8 24 8 24 8" fill="#FDF5EF"/>
		<polyline points="4.2 34.9 4.2 34.9 4.2 35 4.2 34.9" fill="#F1CFB6"/>
		<polyline points="4.2 34.9 4.2 35 4.2 35 4.2 35.1 4.2 35.1 4.2 35 4.2 34.9" fill="#F8D4BB"/>
		<polyline points="4.2 34.8 4.2 34.9 4.2 35 4.2 34.9 4.2 34.9 4.2 34.8" fill="#F8D4BB"/>
		<path d="m5.2 42.5c0.4 1.6 1 3.3 1.7 4.8-0.7-1.6-1.3-3.2-1.7-4.8" fill="#E6BFAF"/>
		<path d="m4.2 35c0 0.6 0.1 3.4 0.7 6.4 0.7 3.1 1.9 5.9 1.9 5.9h0.1c-0.7-1.6-1.3-3.2-1.7-4.8-0.6-2.4-1-4.9-1-7.5" fill="#F8D4BB"/>
		<path opacity=".75" d="m28.4 66.8c2.4-0.5 2.1 0.1 3.8-0.1 3-0.3 5.8-1.4 5.8-1.4 0.6-0.3 5.1-2 6-3.1 1.6-1.9-1.8-2.4-4.1-1.5-2.4 0.9-5.9 2-10.4 0.7-3.8-1.2-6.7-1.4-10.5 0.2s-14.6 7.2-18.3 10.8c4.1-2 12.8-3.9 17.6-3.9 7.1 2.4 16.8 0.9 18.5 1.2 5.3-0.8 12-3.2 12-3.2s3.9-2.8 5.5-3.7c0.7-0.6 2.1-1.9 3.1-3 0.1-0.1 0-0.5 0.1-0.6 1.7-1.1 0.1-1.9-1-1.9-0.5 0.6-1 0.9-1.6 1.5-0.9 0.8-2.1 1.2-3.8 2.2-0.4 0.3-2.4 0.7-4.9 2.5-1 0.4-5.2 0.3-6.8 1.2" fill="#fff"/>
		<path d="m58.6 57.9c0-0.3-0.2-0.5-0.5-0.6l-1.2-0.3c-0.1 0.1-0.2 0.3-0.4 0.4 0.5 0 0.9 0.1 1.4 0.2 0.3 0.1 0.3 0.2 0.3 0.3 0 0.2-0.2 0.5-0.5 0.9-0.4-0.4-1.3-0.5-2.1-0.3-1.1 0.2-2.2 0.9-3.6 1.8l-0.7 0.4c-0.1 0.1-0.3 0.1-0.6 0.3-0.8 0.3-2.4 0.9-4.3 2.2-0.4 0.2-1.3 0.2-2.3 0.3-0.7 0.1-1.5 0.1-2.2 0.2 1-0.5 1.9-1 2.2-1.4 0.6-0.7 0.5-1.2 0.3-1.5-0.7-0.9-3-0.9-4.6-0.3-2.5 1-6 1.9-10.2 0.6-3.6-1.1-6.7-1.4-10.6 0.2-3.8 1.7-14.7 7.4-18.4 10.9l-0.6 0.6 0.8-0.3c4.2-2 12.7-3.9 17.5-3.9 5.3 1.8 12.2 1.4 15.9 1.2 1.2-0.1 2.2-0.1 2.6-0.1 5.2-0.8 12-3.2 12.1-3.2h0.1s3.9-2.8 5.5-3.7c0.3-0.2 0.6-0.6 1.1-1 0.6-0.6 1.3-1.3 2-1.9 0.4-0.3 0.4-0.6 0.3-0.8 0.5-0.4 0.8-0.8 0.7-1.2zm-1.2 1.7c-0.7 0.6-1.4 1.3-2 1.9-0.4 0.4-0.7 0.8-1 1-1.6 0.9-5.2 3.5-5.5 3.7-0.5 0.2-6.9 2.4-11.9 3.2-0.5-0.1-1.4 0-2.7 0.1-3.7 0.2-10.5 0.5-15.8-1.2h-0.1c-4.4 0-12 1.6-16.5 3.4 4.3-3.5 13.8-8.4 17.3-9.9 1.9-0.8 3.5-1.1 5.2-1.1s3.3 0.4 5.2 0.9c4.4 1.3 7.9 0.3 10.5-0.7 1.6-0.6 3.6-0.5 4.1 0.1 0.2 0.3 0.1 0.6-0.3 1-0.5 0.6-2.4 1.5-3.8 2.1-0.1 0-0.2 0.1-0.4 0.2-0.3 0.1-0.6 0.3-0.9 0.4-0.5 0.2-0.8 0.3-0.9 0.4 0 0-2.7 1.1-5.7 1.4-0.7 0.1-1.1 0-1.4 0-2.3 0-3.6 0.6-3.6 0.6 1.4-0.3 3-0.3 3.5-0.2 0.4 0.1 0.8 0.1 1.5 0 3-0.3 5.8-1.4 5.8-1.4 0.1-0.1 0.5-0.2 0.9-0.4 0.2-0.1 0.5-0.2 0.8-0.3l0.3-0.1c1-0.4 2.6-0.5 3.9-0.6 1.1-0.1 2-0.2 2.5-0.4 1.8-1.3 3.4-1.9 4.2-2.2 0.3-0.1 0.5-0.2 0.7-0.3l0.7-0.4c1.4-0.9 2.5-1.6 3.5-1.8s1.8 0.1 1.9 0.4c0.2-0.1 0.1 0.1 0 0.2z" fill="#C2C5C7"/>
</svg>
