<?xml version="1.0" encoding="UTF-8" standalone="no"?>
<!-- Generator: Adobe Illustrator 18.0.0, SVG Export Plug-In . SVG Version: 6.00 Build 0)  -->
<!DOCTYPE svg  PUBLIC '-//W3C//DTD SVG 1.1//EN'  'http://www.w3.org/Graphics/SVG/1.1/DTD/svg11.dtd'>
<svg id="Layer_1" xmlns="http://www.w3.org/2000/svg" xml:space="preserve" viewBox="0 0 130 134" version="1.1" y="0px" x="0px" xmlns:xlink="http://www.w3.org/1999/xlink" enable-background="new 0 0 130 134">
			<path d="m88.4 56.8l1.1 0.3c-0.5 1.8-1.6 3.5-3.1 5.1s-3.8 2.4-6.7 2.4c-1.9 0-3.7-0.5-5.4-1.4s-3-2.3-4-4.2-1.5-4.2-1.5-6.8c0-2.5 0.5-4.7 1.5-6.7s2.4-3.5 4.3-4.7c1.8-1.1 4-1.7 6.4-1.7 2.3 0 4 0.4 5.4 1.3 1.3 0.9 2 1.9 2 3.2 0 0.9-0.3 1.6-0.8 2-0.5 0.5-1.1 0.7-1.7 0.7s-1.2-0.2-1.7-0.6-0.7-1-0.7-1.7c0-0.3 0-0.7 0.1-1s0.1-0.7 0.1-1c0-0.4-0.2-0.9-0.7-1.3s-1.2-0.6-2.2-0.6c-1.8 0-3.2 0.6-4.3 1.9s-1.9 2.8-2.3 4.6c-0.5 1.8-0.7 3.6-0.7 5.4 0 3.1 0.7 5.6 2 7.7 1.4 2 3.3 3 5.7 3 1.9 0 3.5-0.6 4.8-1.8 1-1.1 1.9-2.5 2.4-4.1z" fill="#278290"/>
		<path d="m32.1 44.7c0-2.6 0.4-5 1.3-7.4s2.1-4.5 3.7-6.3 3.6-3.3 6-4.3c2.4-1.1 5-1.6 7.9-1.6s5.6 0.5 8 1.6c2.4 1 4.4 2.5 6 4.3s2.9 3.9 3.7 6.3c0.8 2.3 1.3 4.8 1.3 7.4s-0.4 5.1-1.3 7.5-2.1 4.5-3.7 6.4c-1.6 1.8-3.6 3.3-6 4.3-2.4 1.1-5 1.6-7.9 1.6-3.9 0-7.2-0.9-10.1-2.7s-5.1-4.2-6.6-7.3c-1.5-3-2.3-6.3-2.3-9.8zm5.9 0c0 2.8 0.4 5.6 1.3 8.4 0.8 2.8 2.2 5.1 4.2 7.1 2 1.9 4.5 2.9 7.6 2.9s5.6-1 7.6-2.9 3.4-4.3 4.2-7.1 1.3-5.6 1.3-8.4c0-2-0.2-4-0.6-6-0.4-2.1-1.2-4-2.2-5.8s-2.4-3.3-4.1-4.5c-1.7-1.1-3.8-1.7-6.2-1.7-2.9 0-5.3 0.9-7.3 2.6s-3.4 4-4.4 6.8c-0.9 2.7-1.4 5.6-1.4 8.6z" fill="#0D6074"/>
			<path d="m84.6 25.7c-1-5.2-1.7-13.3-1.4-14.9 0.9-6.9 5-7.3 7.3-10.8 3.6 2.7 4.4 7 4.4 8.6-0.1 3.1-1 4.9-0.5 6.7 1.3 1.9 1.3-5.3 4.1-6.1 0.8 3.1 0.4 6.7-0.1 8.9-1 4.3-3.6 7.5-5.3 12.5-0.8 2.1-7.7-0.4-8.5-4.9z" fill="#8D6EAE"/>
			<path opacity=".8" d="m94.1 27.5c1.7-1.9 4-3.4 5.3-5.8 1.4-2.4 1.7-5.6 1.1-8.2-0.3-1.4-1.9-4.2-2.3-7.2-2.1 2-1.2 5.7-1.2 7.2-0.1 1.2-0.4 2.3-1 3.4-0.7 1.3-1.9 2.6-1.8 0.6 0-1.4 1.4-3.3 0.5-4.4-1.2-1.5-2.4 1.5-3.3 2.6-1.4 1.6-2.9 3.6-2.8 5.7 0.1 4.2-3 6-0.5 8.7 1.3 1.5 5.2-1.7 6-2.6z" fill="#4FB699"/>
			<path opacity=".8" d="m89.9 24.9c-2.3-1.2-4.7-1.9-6.8-3.9-2-2-3.2-5.1-3.4-8.1-0.1-2.1 0.8-7.4 1.6-9.2 1.8 1 1.3 6.5 1.5 7.7 0.2 1.1 0.7 2.5 1.5 3.5 0.9 1.2 1.9 1.4 2.8 1.6-1.4-1.7-3.9-4.9-2.7-5.5 1.4-0.8 3.4 2.1 4.5 3 1.7 1.3 2.3 2.1 3.1 3.9 1.2 2.5 2.6 5.8 2.3 9.4 0 0-0.5-0.3-4.4-2.4z" fill="#F39F00"/>
		<path d="m111.9 49h-12.3l-1.3 3.4c-1.1 3.1-1.8 4.9-2 5.5s-0.3 1.3-0.3 1.9c0 0.7 0.1 1.3 0.4 1.8s0.7 0.7 1.1 0.7h2.2v1.5h-11v-1.5h1c0.9 0 2-0.9 3.2-2.8s2.8-5.4 4.7-10.6l8.9-24h1.7l12.3 34.1c0.2 0.6 0.5 1.2 0.7 1.6 0.3 0.5 0.6 0.8 1.1 1.2 0.5 0.3 1.1 0.5 1.9 0.5h1.2v1.5h-14v-1.5h2.2c0.7 0 1.3-0.1 1.6-0.3 0.4-0.2 0.6-0.6 0.6-1.2 0-0.5-0.4-1.9-1.2-4.2l-2.7-7.6zm-11.8-1.5h11.3l-5.7-15.7-5.6 15.7z" fill="#05455A"/>
		<path d="m2.3 25.9h13.9c2.5 0 5 0.2 7.4 0.7s4.6 1.6 6.6 3.3c1.9 1.7 2.9 4.2 2.9 7.6 0 3.5-1.4 6.3-4.1 8.4-2.8 2.1-6.6 3.1-11.5 3.1-1.6 0-3.2-0.1-4.9-0.4v11.4c0 1.6 0.7 2.4 2.1 2.4h4.2v1.5h-16.5v-1.5h3.1c1.4 0 2.1-0.8 2.1-2.4v-30.1c0-1.6-0.7-2.5-2.1-2.5h-3.2v-1.5zm10.3 2.8v18.3c1.2 0.4 2.6 0.5 4 0.5 2.3 0 4.3-0.5 5.9-1.4s2.8-2.1 3.6-3.7c0.8-1.5 1.2-3.2 1.2-5 0-1.5-0.2-2.8-0.6-4s-0.9-2.3-1.7-3.2-1.8-1.6-2.9-2.1c-1.2-0.5-2.6-0.7-4.2-0.7-2 0-3.7 0.4-5.3 1.3z" fill="#05455A"/>
	<g fill="#05455A">
		<path d="m19 93.7h2.8c0.5 0 1 0.1 1.5 0.1 0.5 0.1 0.9 0.3 1.3 0.7s0.6 0.9 0.6 1.5c0 0.7-0.3 1.3-0.8 1.7-0.6 0.4-1.3 0.6-2.3 0.6-0.3 0-0.7 0-1-0.1v2.3c0 0.3 0.1 0.5 0.4 0.5h0.9v0.3h-3.4v-0.3h0.6c0.3 0 0.4-0.2 0.4-0.5v-6.1c0-0.3-0.1-0.5-0.4-0.5h-0.6v-0.2zm2.1 0.6v3.7c0.3 0.1 0.5 0.1 0.8 0.1 0.5 0 0.9-0.1 1.2-0.3s0.6-0.4 0.7-0.7c0.2-0.3 0.2-0.6 0.2-1 0-0.3 0-0.6-0.1-0.8s-0.2-0.5-0.3-0.7c-0.2-0.2-0.4-0.3-0.6-0.4s-0.5-0.2-0.9-0.2-0.7 0.1-1 0.3z"/>
		<path d="m27 97.6c0-0.5 0.1-1 0.3-1.5s0.4-0.9 0.8-1.3c0.3-0.4 0.7-0.7 1.2-0.9s1-0.3 1.6-0.3 1.1 0.1 1.6 0.3 0.9 0.5 1.2 0.9 0.6 0.8 0.8 1.3 0.3 1 0.3 1.5-0.1 1-0.3 1.5-0.4 0.9-0.8 1.3c-0.3 0.4-0.7 0.7-1.2 0.9s-1 0.3-1.6 0.3c-0.8 0-1.5-0.2-2.1-0.6s-1-0.9-1.3-1.5-0.5-1.2-0.5-1.9zm1.2 0c0 0.6 0.1 1.1 0.3 1.7s0.5 1.1 0.9 1.4c0.4 0.4 0.9 0.6 1.5 0.6s1.1-0.2 1.5-0.6 0.7-0.9 0.9-1.4c0.2-0.6 0.3-1.1 0.3-1.7 0-0.4 0-0.8-0.1-1.2s-0.2-0.8-0.4-1.2-0.5-0.7-0.8-0.9-0.8-0.4-1.3-0.4c-0.6 0-1.1 0.2-1.5 0.5-0.4 0.4-0.7 0.8-0.9 1.4-0.3 0.5-0.4 1.1-0.4 1.8z"/>
		<path d="m42.8 93.7h0.4l0.2 2.1h-0.4v-0.3c0-0.2-0.1-0.5-0.3-0.8s-0.5-0.5-0.8-0.7c-0.4-0.2-0.8-0.3-1.2-0.3s-0.8 0.1-1.2 0.3c-0.3 0.2-0.6 0.5-0.8 0.8-0.2 0.4-0.4 0.8-0.5 1.2-0.1 0.5-0.2 0.9-0.2 1.5 0 0.8 0.1 1.5 0.4 2s0.7 0.9 1.1 1.1c0.5 0.2 0.9 0.4 1.4 0.4 1.1 0 1.9-0.6 2.6-1.9l0.3 0.1c-0.4 0.8-0.8 1.4-1.4 1.7s-1.2 0.5-1.8 0.5-1.1-0.1-1.5-0.3c-0.5-0.2-0.9-0.5-1.2-0.8-0.3-0.4-0.6-0.8-0.8-1.3s-0.3-1-0.3-1.6c0-0.7 0.1-1.3 0.4-1.9s0.7-1.2 1.3-1.6 1.3-0.6 2.2-0.6 1.7 0.2 2.2 0.5l-0.1-0.1z"/>
		<path d="m51.6 93.7h0.4l0.2 2.1h-0.4v-0.3c0-0.2-0.1-0.5-0.3-0.8s-0.5-0.5-0.8-0.7c-0.4-0.2-0.8-0.3-1.2-0.3s-0.8 0.1-1.2 0.3c-0.3 0.2-0.6 0.5-0.8 0.8-0.2 0.4-0.4 0.8-0.5 1.2-0.1 0.5-0.2 0.9-0.2 1.5 0 0.8 0.1 1.5 0.4 2s0.7 0.9 1.1 1.1c0.5 0.2 0.9 0.4 1.4 0.4 1.1 0 1.9-0.6 2.6-1.9l0.3 0.1c-0.4 0.8-0.8 1.4-1.4 1.7s-1.2 0.5-1.8 0.5-1.1-0.1-1.5-0.3c-0.5-0.2-0.9-0.5-1.2-0.8-0.3-0.4-0.6-0.8-0.8-1.3s-0.3-1-0.3-1.6c0-0.7 0.1-1.3 0.4-1.9s0.7-1.2 1.3-1.6 1.3-0.6 2.2-0.6 1.7 0.2 2.2 0.5l-0.1-0.1z"/>
		<path d="m54.2 93.7h3.1v0.3h-0.6c-0.3 0-0.4 0.2-0.4 0.5v5.5l3.9-5.5v-0.2c0-0.1 0-0.2-0.1-0.3-0.1 0.1-0.2 0-0.3 0h-0.6v-0.3h3.1v0.3h-0.6c-0.3 0-0.4 0.2-0.4 0.5v6.1c0 0.3 0.1 0.5 0.4 0.5h0.6v0.3h-3.1v-0.3h0.6c0.3 0 0.4-0.2 0.4-0.5v-5.6l-3.9 5.5v0.2c0 0.1 0 0.2 0.1 0.2 0.1 0.1 0.2 0.1 0.3 0.1h0.6v0.3h-3.1v-0.3h0.6c0.3 0 0.4-0.2 0.4-0.5v-6.1c0-0.3-0.1-0.5-0.4-0.5h-0.6v-0.2z"/>
		<path d="m64.1 93.7h3.1v0.3h-0.6c-0.3 0-0.4 0.2-0.4 0.5v5.5l3.9-5.5v-0.2c0-0.1 0-0.2-0.1-0.3s-0.2-0.1-0.3-0.1h-0.6v-0.3h3.1v0.4h-0.6c-0.3 0-0.4 0.2-0.4 0.5v6.1c0 0.3 0.1 0.5 0.4 0.5h0.6v0.3h-3.1v-0.3h0.6c0.3 0 0.4-0.2 0.4-0.5v-5.6l-3.9 5.5v0.2c0 0.1 0 0.2 0.1 0.2 0.1 0.1 0.2 0.1 0.3 0.1h0.6v0.3h-3.1v-0.3h0.6c0.3 0 0.4-0.2 0.4-0.5v-6.1c0-0.3-0.1-0.5-0.4-0.5h-0.6v-0.2zm4.1-0.3c-0.4 0-0.7-0.1-1-0.2s-0.5-0.3-0.7-0.5-0.2-0.5-0.2-0.7 0.1-0.4 0.2-0.5 0.2-0.1 0.3-0.1 0.3 0.1 0.4 0.2 0.1 0.2 0.1 0.4v0.2c0 0.1-0.1 0.2-0.1 0.2 0 0.1-0.1 0.1-0.1 0.2 0 0.2 0.1 0.3 0.4 0.4 0.2 0.1 0.5 0.1 0.8 0.1 0.2 0 0.3 0 0.5-0.1 0.2 0 0.3-0.1 0.4-0.2s0.2-0.2 0.2-0.3 0-0.2-0.1-0.3c0 0-0.1-0.1-0.1-0.2v-0.2c0-0.1 0-0.3 0.1-0.4s0.2-0.2 0.4-0.2c0.1 0 0.2 0 0.4 0.1 0.1 0.1 0.2 0.2 0.2 0.5 0 0.2-0.1 0.4-0.2 0.7-0.1 0.2-0.4 0.4-0.6 0.5-0.6 0.3-0.9 0.4-1.3 0.4z"/>
		<path d="m80.2 93.7h0.4l0.2 2.1h-0.4v-0.3c0-0.2-0.1-0.5-0.3-0.8s-0.5-0.5-0.8-0.7c-0.4-0.2-0.8-0.3-1.2-0.3s-0.8 0.1-1.2 0.3c-0.3 0.2-0.6 0.5-0.8 0.8-0.2 0.4-0.4 0.8-0.5 1.2-0.1 0.5-0.2 0.9-0.2 1.5 0 0.8 0.1 1.5 0.4 2s0.7 0.9 1.1 1.1c0.5 0.2 0.9 0.4 1.4 0.4 1.1 0 1.9-0.6 2.6-1.9l0.3 0.1c-0.4 0.8-0.8 1.4-1.4 1.7s-1.2 0.5-1.8 0.5-1.1-0.1-1.5-0.3c-0.5-0.2-0.9-0.5-1.2-0.8-0.3-0.4-0.6-0.8-0.8-1.3s-0.3-1-0.3-1.6c0-0.7 0.1-1.3 0.4-1.9s0.7-1.2 1.3-1.6 1.3-0.6 2.2-0.6 1.7 0.2 2.2 0.5l-0.1-0.1z"/>
		<path d="m84.9 97.1h0.4c0.2 0 0.4 0 0.6-0.1s0.3-0.2 0.5-0.5c0.2-0.2 0.4-0.6 0.6-1.1 0.2-0.4 0.4-0.8 0.6-1 0.2-0.3 0.4-0.5 0.6-0.6 0.2-0.2 0.5-0.2 0.8-0.2s0.5 0.1 0.6 0.2 0.2 0.3 0.2 0.5-0.1 0.3-0.2 0.4-0.3 0.2-0.4 0.2c-0.2 0-0.3-0.1-0.4-0.2s-0.2-0.2-0.2-0.4v-0.1-0.1c0-0.1 0-0.2-0.1-0.2s-0.3 0.1-0.4 0.3-0.2 0.4-0.3 0.8c-0.2 0.4-0.3 0.8-0.5 1.1s-0.4 0.5-0.6 0.7-0.4 0.3-0.7 0.4v0.1c0.5 0.1 0.9 0.2 1.3 0.5s0.7 0.6 0.9 1 0.5 0.9 0.7 1.4c0.2 0.4 0.3 0.7 0.4 0.8s0.2 0.2 0.3 0.2 0.2-0.1 0.2-0.1c0.1-0.1 0.1-0.2 0.1-0.3h0.3c0 0.6-0.4 1-0.9 1-0.3 0-0.6-0.1-0.9-0.4-0.3-0.2-0.5-0.5-0.7-0.9-0.2-0.3-0.4-0.8-0.7-1.3-0.2-0.5-0.4-0.8-0.5-1-0.3-0.5-0.7-0.7-1.1-0.7h-0.4v3.2c0 0.3 0.1 0.5 0.4 0.5h0.6v0.3h-3.1v-0.3h0.6c0.3 0 0.4-0.2 0.4-0.5v-6.1c0-0.3-0.1-0.5-0.4-0.5h-0.6v-0.3h3.1v0.2h-0.6c-0.3 0-0.4 0.2-0.4 0.5v2.6z"/>
		<path d="m95.9 98.4h-2.5l-0.3 0.7c-0.2 0.6-0.4 1-0.4 1.1s-0.1 0.3-0.1 0.4 0 0.3 0.1 0.4 0.1 0.1 0.2 0.1h0.4v0.3h-2.2v-0.3h0.2c0.2 0 0.4-0.2 0.6-0.6s0.6-1.1 1-2.1l1.8-4.9h0.4l2.5 6.9c0 0.1 0.1 0.2 0.1 0.3 0.1 0.1 0.1 0.2 0.2 0.2 0.1 0.1 0.2 0.1 0.4 0.1h0.2v0.3h-2.8v-0.3h0.4c0.1 0 0.3 0 0.3-0.1 0.1 0 0.1-0.1 0.1-0.3 0-0.1-0.1-0.4-0.2-0.8l-0.4-1.4zm-2.4-0.3h2.3l-1.2-3.2-1.1 3.2z"/>
		<path d="m106.9 101.5h-3.1v-0.3h0.6c0.3 0 0.4-0.2 0.4-0.5v-3c-0.4 0-0.7 0.1-1 0.2s-0.5 0.3-0.7 0.5-0.3 0.4-0.4 0.5c-0.1 0.2-0.2 0.4-0.3 0.7-0.3 0.6-0.5 1.1-0.8 1.5s-0.7 0.6-1.1 0.6c-0.3 0-0.5-0.1-0.7-0.2-0.2-0.2-0.3-0.4-0.3-0.6v-0.2h0.3c0 0.4 0.1 0.5 0.3 0.5 0.1 0 0.2-0.1 0.3-0.2s0.2-0.4 0.4-0.7c0.2-0.4 0.4-0.8 0.6-1.1s0.4-0.6 0.8-0.8c0.3-0.3 0.7-0.4 1.2-0.5v-0.1h-0.1-0.1c-0.5 0-0.9-0.1-1.4-0.3-0.4-0.2-0.7-0.4-0.9-0.7s-0.3-0.7-0.3-1c0-0.6 0.2-1 0.6-1.3s0.8-0.5 1.2-0.5c0.5-0.1 0.9-0.1 1.5-0.1h3.1v0.1h-0.6c-0.3 0-0.4 0.2-0.4 0.5v6.1c0 0.3 0.1 0.5 0.4 0.5h0.6v0.4zm-2.1-4.1v-3.2c-0.4-0.1-0.9-0.2-1.4-0.2-0.4 0-0.8 0.1-1.1 0.3s-0.5 0.4-0.6 0.7-0.2 0.5-0.2 0.8c0 0.5 0.1 0.8 0.4 1.1s0.6 0.4 0.9 0.5c0.3 0.1 0.7 0.1 1 0.1 0.5-0.1 0.8-0.1 1-0.1z"/>
		<path d="m0.2 112.6c0-0.5 0.1-1 0.3-1.5s0.4-0.9 0.8-1.3c0.3-0.4 0.7-0.7 1.2-0.9s1-0.3 1.6-0.3 1.1 0.1 1.6 0.3 0.9 0.5 1.2 0.9 0.6 0.8 0.8 1.3 0.3 1 0.3 1.5-0.1 1-0.3 1.5-0.4 0.9-0.8 1.3c-0.3 0.4-0.7 0.7-1.2 0.9s-1 0.3-1.6 0.3c-0.8 0-1.5-0.2-2.1-0.6s-1-0.9-1.3-1.5c-0.4-0.5-0.5-1.1-0.5-1.9zm1.2 0c0 0.6 0.1 1.1 0.3 1.7s0.5 1.1 0.9 1.4c0.4 0.4 0.9 0.6 1.5 0.6s1.1-0.2 1.5-0.6c0.4-0.4 0.7-0.9 0.9-1.4 0.2-0.6 0.3-1.1 0.3-1.7 0-0.4 0-0.8-0.1-1.2s-0.2-0.8-0.4-1.2-0.5-0.7-0.8-0.9-0.8-0.4-1.3-0.4c-0.6 0-1.1 0.2-1.5 0.5-0.4 0.4-0.7 0.8-0.9 1.4-0.3 0.6-0.4 1.2-0.4 1.8z"/>
		<path d="m15.9 108.8h0.4l0.2 2.1h-0.4v-0.3c0-0.2-0.1-0.5-0.3-0.8s-0.5-0.5-0.8-0.7c-0.4-0.2-0.8-0.3-1.2-0.3s-0.8 0.1-1.2 0.3c-0.3 0.2-0.6 0.5-0.8 0.8-0.2 0.4-0.4 0.8-0.5 1.2-0.1 0.5-0.2 0.9-0.2 1.5 0 0.8 0.1 1.5 0.4 2s0.7 0.9 1.1 1.1c0.5 0.2 0.9 0.4 1.4 0.4 1.1 0 1.9-0.6 2.6-1.9l0.3 0.1c-0.4 0.8-0.8 1.4-1.4 1.7s-1.2 0.5-1.8 0.5-1.1-0.1-1.5-0.3c-0.5-0.2-0.9-0.5-1.2-0.8-0.3-0.4-0.6-0.8-0.8-1.3s-0.3-1-0.3-1.6c0-0.7 0.1-1.3 0.4-1.9s0.7-1.2 1.3-1.6c0.6-0.4 1.3-0.6 2.2-0.6s1.7 0.2 2.2 0.5l-0.1-0.1z"/>
		<path d="m18.3 108.8h6.9v1.7h-0.4v-0.3c0-0.2-0.1-0.4-0.3-0.6s-0.5-0.3-0.8-0.4-0.6-0.2-0.9-0.2-0.5 0.1-0.5 0.2v6.4c0 0.3 0.1 0.5 0.4 0.5h0.6v0.3h-3.1v-0.3h0.6c0.3 0 0.4-0.2 0.4-0.5v-6.4c0-0.1-0.2-0.2-0.5-0.2s-0.6 0.1-0.9 0.2-0.6 0.2-0.8 0.4-0.3 0.4-0.3 0.6v0.3h-0.4v-1.7z"/>
		<path d="m26.7 108.8h5.9l0.1 1.6h-0.4v-0.3c0-0.3-0.3-0.5-0.7-0.7s-1.1-0.3-2.1-0.3h-0.4c-0.3 0-0.4 0.2-0.4 0.5v2.7h0.5c0.6 0 1 0 1.3-0.1s0.5-0.1 0.5-0.2c0.1-0.1 0.1-0.2 0.1-0.3v-0.3h0.4v2.1h-0.4v-0.3c0-0.1 0-0.2-0.1-0.3s-0.2-0.2-0.5-0.2c-0.3-0.1-0.7-0.1-1.3-0.1h-0.5v3.1c0 0.3 0.1 0.5 0.4 0.5h0.2c1.1 0 1.9-0.1 2.4-0.3s0.8-0.5 0.8-0.8l0.1-0.3h0.4l-0.4 1.7h-5.9v-0.3h0.6c0.3 0 0.4-0.2 0.4-0.5v-6.1c0-0.3-0.1-0.5-0.4-0.5h-0.6v-0.3z"/>
		<path d="m34.8 112.6c0-0.5 0.1-1 0.3-1.5s0.4-0.9 0.8-1.3c0.3-0.4 0.7-0.7 1.2-0.9s1-0.3 1.6-0.3 1.1 0.1 1.6 0.3 0.9 0.5 1.2 0.9 0.6 0.8 0.8 1.3 0.3 1 0.3 1.5-0.1 1-0.3 1.5-0.4 0.9-0.8 1.3c-0.3 0.4-0.7 0.7-1.2 0.9s-1 0.3-1.6 0.3c-0.8 0-1.5-0.2-2.1-0.6s-1-0.9-1.3-1.5c-0.4-0.5-0.5-1.1-0.5-1.9zm1.2 0c0 0.6 0.1 1.1 0.3 1.7s0.5 1.1 0.9 1.4c0.4 0.4 0.9 0.6 1.5 0.6s1.1-0.2 1.5-0.6 0.7-0.9 0.9-1.4c0.2-0.6 0.3-1.1 0.3-1.7 0-0.4 0-0.8-0.1-1.2s-0.2-0.8-0.4-1.2-0.5-0.7-0.8-0.9-0.8-0.4-1.3-0.4c-0.6 0-1.1 0.2-1.5 0.5-0.4 0.4-0.7 0.8-0.9 1.4-0.3 0.6-0.4 1.2-0.4 1.8z"/>
		<path d="m44.4 108.8h7.6v0.3h-0.6c-0.3 0-0.4 0.2-0.4 0.5v6.1c0 0.3 0.1 0.5 0.4 0.5h0.6v0.3h-3.1v-0.3h0.6c0.3 0 0.4-0.2 0.4-0.5v-6.1c0-0.3-0.1-0.5-0.4-0.5h-2.6c-0.3 0-0.4 0.2-0.4 0.5v6.1c0 0.3 0.1 0.5 0.4 0.5h0.6v0.3h-3.1v-0.3h0.6c0.3 0 0.4-0.2 0.4-0.5v-6.1c0-0.3-0.1-0.5-0.4-0.5h-0.6v-0.3z"/>
		<path d="m58.2 113.5h-2.5l-0.3 0.7c-0.2 0.6-0.4 1-0.4 1.1s-0.1 0.3-0.1 0.4 0 0.3 0.1 0.4 0.1 0.1 0.2 0.1h0.4v0.3h-2.2v-0.3h0.2c0.2 0 0.4-0.2 0.6-0.6s0.6-1.1 1-2.1l1.8-4.9h0.4l2.5 6.9c0 0.1 0.1 0.2 0.1 0.3 0.1 0.1 0.1 0.2 0.2 0.2 0.1 0.1 0.2 0.1 0.4 0.1h0.4v0.3h-2.8v-0.3h0.4c0.1 0 0.3 0 0.3-0.1 0.1 0 0.1-0.1 0.1-0.3 0-0.1-0.1-0.4-0.2-0.8l-0.6-1.4zm-2.4-0.3h2.3l-1.1-3.2-1.2 3.2z"/>
		<path d="m62 108.8h6.9v1.7h-0.4v-0.3c0-0.2-0.1-0.4-0.3-0.6s-0.5-0.3-0.8-0.4-0.6-0.2-0.9-0.2-0.5 0.1-0.5 0.2v6.4c0 0.3 0.1 0.5 0.4 0.5h0.6v0.3h-3.1v-0.3h0.6c0.3 0 0.4-0.2 0.4-0.5v-6.4c0-0.1-0.2-0.2-0.5-0.2s-0.6 0.1-0.9 0.2-0.6 0.2-0.8 0.4-0.3 0.4-0.3 0.6v0.3h-0.4v-1.7z"/>
		<path d="m70.4 108.8h3.1v0.3h-0.6c-0.3 0-0.4 0.2-0.4 0.5v5.5l3.9-5.5v-0.2c0-0.1 0-0.2-0.1-0.3s-0.2-0.1-0.3-0.1h-0.6v-0.3h3.1v0.3h-0.6c-0.3 0-0.4 0.2-0.4 0.5v6.1c0 0.3 0.1 0.5 0.4 0.5h0.6v0.3h-3.1v-0.3h0.6c0.3 0 0.4-0.2 0.4-0.5v-5.6l-3.9 5.5v0.2c0 0.1 0 0.2 0.1 0.2 0.1 0.1 0.2 0.1 0.3 0.1h0.6v0.3h-3.1v-0.3h0.6c0.3 0 0.4-0.2 0.4-0.5v-6.1c0-0.3-0.1-0.5-0.4-0.5h-0.6v-0.1z"/>
		<path d="m80 108.8h3.1v0.3h-0.6c-0.3 0-0.4 0.2-0.4 0.5v2.2c0 0.2 0 0.4 0.1 0.6s0.2 0.3 0.4 0.4 0.4 0.1 0.8 0.1c0.3 0 0.7 0 1.1-0.1s0.7-0.2 1-0.3v-3c0-0.3-0.1-0.5-0.4-0.5h-0.6v-0.3h3.1v0.3h-0.6c-0.3 0-0.4 0.2-0.4 0.5v6.1c0 0.3 0.1 0.5 0.4 0.5h0.6v0.3h-3.3v-0.3h0.8c0.3 0 0.4-0.2 0.4-0.5v-2.8c-0.7 0.3-1.5 0.5-2.2 0.5-0.9 0-1.4-0.2-1.7-0.5-0.3-0.4-0.4-0.7-0.4-1.1v-2.2c0-0.3-0.1-0.5-0.4-0.5h-0.8v-0.2z"/>
		<path d="m89.3 108.8h5.9l0.1 1.6h-0.4v-0.3c0-0.3-0.3-0.5-0.7-0.7s-1.1-0.3-2.1-0.3h-0.4c-0.3 0-0.4 0.2-0.4 0.5v2.7h0.5c0.6 0 1 0 1.3-0.1s0.5-0.1 0.5-0.2c0.1-0.1 0.1-0.2 0.1-0.3v-0.3h0.4v2.1h-0.4v-0.3c0-0.1 0-0.2-0.1-0.3s-0.2-0.2-0.5-0.2c-0.3-0.1-0.7-0.1-1.3-0.1h-0.5v3.1c0 0.3 0.1 0.5 0.4 0.5h0.2c1.1 0 1.9-0.1 2.4-0.3s0.8-0.5 0.8-0.8l0.1-0.3h0.4l-0.4 1.7h-5.9v-0.3h0.6c0.3 0 0.4-0.2 0.4-0.5v-6.1c0-0.3-0.1-0.5-0.4-0.5h-0.6v-0.3z"/>
		<path d="m103.5 108.8h0.4l0.2 2.1h-0.4v-0.3c0-0.2-0.1-0.5-0.3-0.8s-0.5-0.5-0.8-0.7c-0.4-0.2-0.8-0.3-1.2-0.3s-0.8 0.1-1.2 0.3c-0.3 0.2-0.6 0.5-0.8 0.8-0.2 0.4-0.4 0.8-0.5 1.2-0.1 0.5-0.2 0.9-0.2 1.5 0 0.8 0.1 1.5 0.4 2s0.7 0.9 1.1 1.1c0.5 0.2 0.9 0.4 1.4 0.4 1.1 0 1.9-0.6 2.6-1.9l0.3 0.1c-0.4 0.8-0.8 1.4-1.4 1.7s-1.2 0.5-1.8 0.5-1.1-0.1-1.5-0.3c-0.5-0.2-0.9-0.5-1.2-0.8-0.3-0.4-0.6-0.8-0.8-1.3s-0.3-1-0.3-1.6c0-0.7 0.1-1.3 0.4-1.9s0.7-1.2 1.3-1.6 1.3-0.6 2.2-0.6 1.7 0.2 2.2 0.5l-0.1-0.1z"/>
		<path d="m108.2 112.2h0.4c0.2 0 0.4 0 0.6-0.1s0.3-0.2 0.5-0.5c0.2-0.2 0.4-0.6 0.6-1.1 0.2-0.4 0.4-0.8 0.6-1 0.2-0.3 0.4-0.5 0.6-0.6 0.2-0.2 0.5-0.2 0.8-0.2s0.5 0.1 0.6 0.2 0.2 0.3 0.2 0.5-0.1 0.3-0.2 0.4-0.3 0.2-0.4 0.2c-0.2 0-0.3-0.1-0.4-0.2s-0.2-0.2-0.2-0.4v-0.1-0.1c0-0.1 0-0.2-0.1-0.2s-0.3 0.1-0.4 0.3-0.2 0.4-0.3 0.8c-0.2 0.4-0.3 0.8-0.5 1.1s-0.4 0.5-0.6 0.7-0.4 0.3-0.7 0.4v0.1c0.5 0.1 0.9 0.2 1.3 0.5s0.7 0.6 0.9 1 0.5 0.9 0.7 1.4c0.2 0.4 0.3 0.7 0.4 0.8s0.2 0.2 0.3 0.2 0.2-0.1 0.2-0.1c0.1-0.1 0.1-0.2 0.1-0.3h0.3c0 0.6-0.4 1-0.9 1-0.3 0-0.6-0.1-0.9-0.4-0.3-0.2-0.5-0.5-0.7-0.9-0.2-0.3-0.4-0.8-0.7-1.3-0.2-0.5-0.4-0.8-0.5-1-0.3-0.5-0.7-0.7-1.1-0.7h-0.4v3.2c0 0.3 0.1 0.5 0.4 0.5h0.6v0.3h-3.1v-0.3h0.6c0.3 0 0.4-0.2 0.4-0.5v-6.1c0-0.3-0.1-0.5-0.4-0.5h-0.6v-0.3h3.1v0.3h-0.6c-0.3 0-0.4 0.2-0.4 0.5v2.5z"/>
		<path d="m119.2 113.5h-2.5l-0.3 0.7c-0.2 0.6-0.4 1-0.4 1.1s-0.1 0.3-0.1 0.4 0 0.3 0.1 0.4 0.1 0.1 0.2 0.1h0.4v0.3h-2.2v-0.3h0.2c0.2 0 0.4-0.2 0.6-0.6s0.6-1.1 1-2.1l1.8-4.9h0.4l2.5 6.9c0 0.1 0.1 0.2 0.1 0.3 0.1 0.1 0.1 0.2 0.2 0.2 0.1 0.1 0.2 0.1 0.4 0.1h0.2v0.3h-2.8v-0.3h0.4c0.1 0 0.3 0 0.3-0.1 0.1 0 0.1-0.1 0.1-0.3 0-0.1-0.1-0.4-0.2-0.8l-0.4-1.4zm-2.4-0.3h2.3l-1.1-3.2-1.2 3.2z"/>
		<path d="m130.2 116.5h-3.2v-0.3h0.6c0.3 0 0.4-0.2 0.4-0.5v-3c-0.4 0-0.7 0.1-1 0.2s-0.5 0.3-0.7 0.5-0.3 0.4-0.4 0.5c-0.1 0.2-0.2 0.4-0.3 0.7-0.3 0.6-0.5 1.1-0.8 1.5s-0.7 0.6-1.1 0.6c-0.3 0-0.5-0.1-0.7-0.2-0.2-0.2-0.3-0.4-0.3-0.6v-0.2h0.3c0 0.4 0.1 0.5 0.3 0.5 0.1 0 0.2-0.1 0.3-0.2s0.2-0.4 0.4-0.7c0.2-0.4 0.4-0.8 0.6-1.1s0.4-0.6 0.8-0.8c0.3-0.3 0.7-0.4 1.2-0.5v-0.1h-0.1-0.1c-0.5 0-0.9-0.1-1.4-0.3-0.4-0.2-0.7-0.4-0.9-0.7s-0.3-0.7-0.3-1c0-0.6 0.2-1 0.6-1.3s0.8-0.5 1.2-0.5c0.5-0.1 0.9-0.1 1.5-0.1h3.1v0.3h-0.6c-0.3 0-0.4 0.2-0.4 0.5v6.1c0 0.3 0.1 0.5 0.4 0.5h0.6v0.2zm-2.1-4v-3.2c-0.4-0.1-0.9-0.2-1.4-0.2-0.4 0-0.8 0.1-1.1 0.3s-0.5 0.4-0.6 0.7-0.2 0.5-0.2 0.8c0 0.5 0.1 0.8 0.4 1.1 0.3 0.2 0.6 0.4 0.9 0.5s0.7 0.1 1 0.1c0.5-0.1 0.8-0.1 1-0.1z"/>
		<path d="m24.6 128.6h-2.5l-0.3 0.7c-0.2 0.6-0.4 1-0.4 1.1s-0.1 0.3-0.1 0.4 0 0.3 0.1 0.4 0.1 0.1 0.2 0.1h0.4v0.3h-2.2v-0.3h0.2c0.2 0 0.4-0.2 0.6-0.6s0.6-1.1 1-2.1l1.8-4.9h0.4l2.5 6.9c0 0.1 0.1 0.2 0.1 0.3 0.1 0.1 0.1 0.2 0.2 0.2 0.1 0.1 0.2 0.1 0.4 0.1h0.2v0.3h-2.8v-0.3h0.6c0.1 0 0.3 0 0.3-0.1 0.1 0 0.1-0.1 0.1-0.3 0-0.1-0.1-0.4-0.2-0.8l-0.6-1.4zm-2.4-0.3h2.3l-1.2-3.2-1.1 3.2z"/>
		<path d="m34.9 123.9h0.4l0.2 2.1h-0.5v-0.3c0-0.2-0.1-0.5-0.3-0.8s-0.5-0.5-0.8-0.7c-0.4-0.2-0.8-0.3-1.2-0.3s-0.8 0.1-1.2 0.3c-0.3 0.2-0.6 0.5-0.8 0.8-0.2 0.4-0.4 0.8-0.5 1.2-0.1 0.5-0.2 0.9-0.2 1.5 0 0.8 0.1 1.5 0.4 2s0.7 0.9 1.1 1.1c0.5 0.2 0.9 0.4 1.4 0.4 1.1 0 1.9-0.6 2.6-1.9l0.3 0.1c-0.4 0.8-0.8 1.4-1.4 1.7s-1.2 0.5-1.8 0.5-1.1-0.1-1.5-0.3c-0.5-0.2-0.9-0.5-1.2-0.8-0.3-0.4-0.6-0.8-0.8-1.3s-0.3-1-0.3-1.6c0-0.7 0.1-1.3 0.4-1.9s0.7-1.2 1.3-1.6 1.3-0.6 2.2-0.6 1.7 0.2 2.2 0.5v-0.1z"/>
		<path d="m43.6 123.9h0.4l0.2 2.1h-0.4v-0.3c0-0.2-0.1-0.5-0.3-0.8s-0.5-0.5-0.8-0.7c-0.4-0.2-0.8-0.3-1.2-0.3s-0.8 0.1-1.2 0.3c-0.3 0.2-0.6 0.5-0.8 0.8-0.2 0.4-0.4 0.8-0.5 1.2-0.1 0.5-0.2 0.9-0.2 1.5 0 0.8 0.1 1.5 0.4 2s0.7 0.9 1.1 1.1c0.5 0.2 0.9 0.4 1.4 0.4 1.1 0 1.9-0.6 2.6-1.9l0.3 0.1c-0.4 0.8-0.8 1.4-1.4 1.7s-1.2 0.5-1.8 0.5-1.1-0.1-1.5-0.3c-0.5-0.2-0.9-0.5-1.2-0.8-0.3-0.4-0.6-0.8-0.8-1.3s-0.3-1-0.3-1.6c0-0.7 0.1-1.3 0.4-1.9s0.7-1.2 1.3-1.6 1.3-0.6 2.2-0.6 1.7 0.2 2.2 0.5l-0.1-0.1z"/>
		<path d="m46.3 127.7c0-0.5 0.1-1 0.3-1.5s0.4-0.9 0.8-1.3c0.3-0.4 0.7-0.7 1.2-0.9s1-0.3 1.6-0.3 1.1 0.1 1.6 0.3 0.9 0.5 1.2 0.9 0.6 0.8 0.8 1.3 0.3 1 0.3 1.5-0.1 1-0.3 1.5-0.4 0.9-0.8 1.3c-0.3 0.4-0.7 0.7-1.2 0.9s-1 0.3-1.6 0.3c-0.8 0-1.5-0.2-2.1-0.6s-1-0.9-1.3-1.5c-0.3-0.5-0.5-1.2-0.5-1.9zm1.2 0c0 0.6 0.1 1.1 0.3 1.7s0.5 1.1 0.9 1.4c0.4 0.4 0.9 0.6 1.5 0.6s1.1-0.2 1.5-0.6 0.7-0.9 0.9-1.4c0.2-0.6 0.3-1.1 0.3-1.7 0-0.4 0-0.8-0.1-1.2s-0.2-0.8-0.4-1.2-0.5-0.7-0.8-0.9-0.8-0.4-1.3-0.4c-0.6 0-1.1 0.2-1.5 0.5-0.4 0.4-0.7 0.8-0.9 1.4-0.3 0.6-0.4 1.2-0.4 1.8z"/>
		<path d="m55.9 123.9h3.1v0.3h-0.6c-0.3 0-0.4 0.2-0.4 0.5v6.1c0 0.3 0.1 0.5 0.4 0.5h2.6c0.3 0 0.4-0.2 0.4-0.5v-6.1c0-0.3-0.1-0.5-0.4-0.5h-0.6v-0.3h3.1v0.3h-0.6c-0.3 0-0.4 0.2-0.4 0.5v6c0 0.2 0 0.3 0.1 0.5 0.1 0.1 0.3 0.2 0.6 0.2h0.7v2h-0.4v-0.4c0-0.2-0.1-0.4-0.2-0.6-0.2-0.2-0.4-0.3-0.6-0.4-0.3-0.1-0.5-0.2-0.8-0.2-0.3-0.1-0.6-0.1-0.8-0.1h-5.1v-0.3h0.6c0.3 0 0.4-0.2 0.4-0.5v-6.1c0-0.3-0.1-0.5-0.4-0.5h-0.6v-0.4z"/>
		<path d="m65.4 123.9h3.1v0.3h-0.6c-0.3 0-0.4 0.2-0.4 0.5v5.5l3.9-5.5v-0.2c0-0.1 0-0.2-0.1-0.3s-0.2-0.1-0.3-0.1h-0.6v-0.3h3.1v0.3h-0.6c-0.3 0-0.4 0.2-0.4 0.5v6.1c0 0.3 0.1 0.5 0.4 0.5h0.6v0.3h-3.1v-0.3h0.6c0.3 0 0.4-0.2 0.4-0.5v-5.6l-3.9 5.5v0.2c0 0.1 0 0.2 0.1 0.2 0.1 0.1 0.2 0.1 0.3 0.1h0.6v0.3h-3.1v-0.3h0.6c0.3 0 0.4-0.2 0.4-0.5v-6.1c0-0.3-0.1-0.5-0.4-0.5h-0.6v-0.1z"/>
		<path d="m79.7 128.6h-2.5l-0.3 0.7c-0.2 0.6-0.4 1-0.4 1.1s-0.1 0.3-0.1 0.4 0 0.3 0.1 0.4 0.1 0.1 0.2 0.1h0.4v0.3h-2.1v-0.3h0.2c0.2 0 0.4-0.2 0.6-0.6s0.6-1.1 1-2.1l1.8-4.9h0.4l2.5 6.9c0 0.1 0.1 0.2 0.1 0.3 0.1 0.1 0.1 0.2 0.2 0.2 0.1 0.1 0.2 0.1 0.4 0.1h0.2v0.3h-2.8v-0.3h0.4c0.1 0 0.3 0 0.3-0.1 0.1 0 0.1-0.1 0.1-0.3 0-0.1-0.1-0.4-0.2-0.8l-0.5-1.4zm-2.4-0.3h2.3l-1.2-3.2-1.1 3.2z"/>
		<path d="m83.8 123.9h3.1v0.3h-0.6c-0.3 0-0.4 0.2-0.4 0.5v6.1c0 0.3 0.1 0.5 0.4 0.5h2.6c0.3 0 0.4-0.2 0.4-0.5v-6.1c0-0.3-0.1-0.5-0.4-0.5h-0.6v-0.3h3.1v0.3h-0.6c-0.3 0-0.4 0.2-0.4 0.5v6c0 0.2 0 0.3 0.1 0.5 0.1 0.1 0.3 0.2 0.6 0.2h0.7v2h-0.4v-0.4c0-0.2-0.1-0.4-0.2-0.6-0.2-0.2-0.4-0.3-0.6-0.4-0.3-0.1-0.5-0.2-0.8-0.2-0.3-0.1-0.6-0.1-0.8-0.1h-5.1v-0.3h0.6c0.3 0 0.4-0.2 0.4-0.5v-6.1c0-0.3-0.1-0.5-0.4-0.5h-0.6v-0.4z"/>
		<path d="m93.3 123.9h3.1v0.3h-0.6c-0.3 0-0.4 0.2-0.4 0.5v5.5l3.9-5.5v-0.2c0-0.1 0-0.2-0.1-0.3s-0.2-0.1-0.3-0.1h-0.6v-0.3h3.1v0.3h-0.6c-0.3 0-0.4 0.2-0.4 0.5v6.1c0 0.3 0.1 0.5 0.4 0.5h0.6v0.3h-3.1v-0.3h0.6c0.3 0 0.4-0.2 0.4-0.5v-5.6l-3.9 5.5v0.2c0 0.1 0 0.2 0.1 0.2 0.1 0.1 0.2 0.1 0.3 0.1h0.6v0.3h-3.1v-0.3h0.6c0.3 0 0.4-0.2 0.4-0.5v-6.1c0-0.3-0.1-0.5-0.4-0.5h-0.6v-0.1z"/>
		<path d="m110 131.6h-3.1v-0.3h0.6c0.3 0 0.4-0.2 0.4-0.5v-3c-0.4 0-0.7 0.1-1 0.2s-0.5 0.3-0.7 0.5-0.3 0.4-0.4 0.5c-0.1 0.2-0.2 0.4-0.3 0.7-0.3 0.6-0.5 1.1-0.8 1.5s-0.7 0.6-1.1 0.6c-0.3 0-0.5-0.1-0.7-0.2-0.2-0.2-0.3-0.4-0.3-0.6v-0.2h0.3c0 0.4 0.1 0.5 0.3 0.5 0.1 0 0.2-0.1 0.3-0.2s0.2-0.4 0.4-0.7c0.2-0.4 0.4-0.8 0.6-1.1s0.4-0.6 0.8-0.8c0.3-0.3 0.7-0.4 1.2-0.5v-0.1h-0.1-0.1c-0.5 0-0.9-0.1-1.4-0.3-0.4-0.2-0.7-0.4-0.9-0.7s-0.3-0.7-0.3-1c0-0.6 0.2-1 0.6-1.3s0.8-0.5 1.2-0.5c0.5-0.1 0.9-0.1 1.5-0.1h3.1v0.3h-0.6c-0.3 0-0.4 0.2-0.4 0.5v6.1c0 0.3 0.1 0.5 0.4 0.5h0.6v0.2zm-2-4v-3.2c-0.4-0.1-0.9-0.2-1.4-0.2-0.4 0-0.8 0.1-1.1 0.3s-0.5 0.4-0.6 0.7-0.2 0.5-0.2 0.8c0 0.5 0.1 0.8 0.4 1.1 0.3 0.2 0.6 0.4 0.9 0.5s0.7 0.1 1 0.1c0.5-0.1 0.8-0.1 1-0.1z"/>
	</g>
		<g fill="#1E1D1B">
			<path d="m6.2 74.8c0-0.7 0.1-1.2 0.4-1.6s0.7-0.6 1.3-0.6c0.3 0 0.6 0.1 0.8 0.2s0.4 0.3 0.5 0.4c0.1 0.2 0.2 0.4 0.3 0.7s0.1 0.6 0.1 0.9c0 0.7-0.2 1.2-0.4 1.6-0.3 0.4-0.7 0.6-1.3 0.6-0.3 0-0.5-0.1-0.8-0.2-0.2-0.1-0.4-0.3-0.5-0.4-0.1-0.2-0.2-0.4-0.3-0.7s-0.1-0.6-0.1-0.9zm0.5 0c0 0.2 0 0.5 0.1 0.7 0 0.2 0.1 0.4 0.2 0.6s0.2 0.3 0.4 0.4 0.3 0.1 0.5 0.1c0.4 0 0.7-0.1 0.9-0.4s0.3-0.7 0.3-1.3c0-0.2 0-0.4-0.1-0.7 0-0.2-0.1-0.4-0.2-0.6s-0.2-0.3-0.4-0.4c-0.1-0.1-0.3-0.2-0.5-0.2-0.4 0-0.7 0.1-0.9 0.4-0.2 0.4-0.3 0.8-0.3 1.4z"/>
			<path d="m10.7 74.4c0.1-0.2 0.3-0.3 0.4-0.4 0.2-0.1 0.4-0.1 0.6-0.1 0.4 0 0.7 0.1 0.9 0.4 0.2 0.2 0.3 0.6 0.3 1.1s-0.1 1-0.3 1.2c-0.2 0.3-0.6 0.4-1 0.4s-0.8-0.2-1-0.5-0.3-0.8-0.3-1.4c0-0.3 0-0.6 0.1-0.9 0-0.2 0.1-0.5 0.2-0.6 0.1-0.2 0.1-0.3 0.2-0.4s0.2-0.2 0.3-0.2c0.1-0.1 0.2-0.1 0.4-0.1 0.1 0 0.3 0 0.5-0.1 0.2 0 0.4 0 0.5-0.1 0.1 0 0.2-0.1 0.3-0.1l0.1 0.4-0.1 0.1s-0.1 0-0.2 0.1h-0.2-0.3c-0.2 0-0.3 0-0.5 0.1-0.1 0-0.2 0.1-0.3 0.2s-0.2 0.2-0.2 0.4c-0.3 0-0.4 0.2-0.4 0.5zm0.1 1v0.4c0 0.1 0.1 0.3 0.1 0.4l0.3 0.3c0.1 0.1 0.2 0.1 0.4 0.1 0.3 0 0.5-0.1 0.6-0.3s0.2-0.5 0.2-0.9v-0.4c0-0.1-0.1-0.2-0.1-0.3-0.1-0.1-0.1-0.2-0.2-0.2-0.1-0.1-0.2-0.1-0.3-0.1-0.3 0-0.5 0.1-0.7 0.3-0.2 0.1-0.3 0.3-0.3 0.7z"/>
			<path d="m17.6 77.7h-0.3l-0.1-0.8h-3.5v-3h0.5v2.6h1v-2.6h0.5v2.6h1v-2.6h0.5v2.6h0.4v1.2z"/>
			<path d="m20.4 76.6c-0.1 0.1-0.3 0.2-0.5 0.2-0.2 0.1-0.4 0.1-0.6 0.1s-0.4 0-0.6-0.1-0.3-0.2-0.4-0.3c-0.1-0.1-0.2-0.3-0.2-0.5-0.1-0.2-0.1-0.4-0.1-0.7 0-0.5 0.1-0.9 0.3-1.2s0.6-0.4 1-0.4h0.4c0.1 0 0.3 0.1 0.4 0.2s0.2 0.2 0.3 0.4 0.1 0.4 0.1 0.6v0.4h-1.9c0 0.2 0 0.3 0.1 0.5 0 0.1 0.1 0.3 0.2 0.3 0.1 0.1 0.2 0.2 0.3 0.2 0.1 0.1 0.3 0.1 0.4 0.1s0.3 0 0.4-0.1c0.1 0 0.2-0.1 0.3-0.2l0.1 0.5zm-1-2.4c-0.2 0-0.4 0.1-0.6 0.2-0.1 0.1-0.2 0.3-0.3 0.6h1.5c0-0.3-0.1-0.5-0.2-0.6 0-0.1-0.2-0.2-0.4-0.2z"/>
			<path d="m21.3 73.9h0.3l0.1 0.4c0.1-0.1 0.2-0.2 0.4-0.3 0.1-0.1 0.3-0.1 0.5-0.1 0.4 0 0.7 0.1 0.9 0.4 0.2 0.2 0.3 0.6 0.3 1.2 0 0.3 0 0.5-0.1 0.7s-0.2 0.4-0.3 0.5-0.3 0.2-0.4 0.3c-0.2 0.1-0.4 0.1-0.6 0.1h-0.4c-0.1 0-0.2 0-0.3-0.1v1.3h-0.5v-4.4zm1.2 0.3c-0.2 0-0.4 0.1-0.5 0.2s-0.2 0.3-0.3 0.5v1.5c0.1 0.1 0.2 0.1 0.2 0.1h0.4c0.3 0 0.5-0.1 0.7-0.3s0.2-0.5 0.2-0.9v-0.5c0-0.1-0.1-0.2-0.1-0.3s-0.1-0.2-0.2-0.2c-0.1-0.1-0.2-0.1-0.4-0.1z"/>
			<path d="m24.4 75.4c0-0.5 0.1-0.9 0.3-1.2s0.6-0.4 1-0.4c0.2 0 0.4 0 0.6 0.1s0.3 0.2 0.4 0.3 0.2 0.3 0.2 0.5c0.1 0.2 0.1 0.4 0.1 0.6 0 0.5-0.1 0.9-0.3 1.2s-0.6 0.4-1 0.4c-0.2 0-0.4 0-0.6-0.1s-0.3-0.2-0.4-0.3-0.2-0.3-0.2-0.5c-0.1-0.2-0.1-0.4-0.1-0.6zm0.5 0v0.4c0 0.1 0.1 0.3 0.1 0.4 0.1 0.1 0.1 0.2 0.3 0.3 0.1 0.1 0.2 0.1 0.4 0.1 0.5 0 0.8-0.4 0.8-1.2v-0.4c0-0.1-0.1-0.3-0.1-0.4-0.1-0.1-0.1-0.2-0.3-0.3-0.1-0.1-0.2-0.1-0.4-0.1-0.5 0-0.8 0.4-0.8 1.2z"/>
			<path d="m29.8 76.7c-0.1 0.1-0.3 0.2-0.4 0.2-0.2 0-0.3 0.1-0.5 0.1s-0.4 0-0.6-0.1-0.3-0.2-0.4-0.3-0.2-0.3-0.2-0.5-0.1-0.4-0.1-0.6c0-0.5 0.1-0.9 0.3-1.2s0.5-0.4 1-0.4h0.5c0.1 0 0.3 0.1 0.4 0.1l-0.1 0.4c-0.1-0.1-0.2-0.1-0.3-0.1h-0.4c-0.6 0-0.9 0.4-0.9 1.2v0.4c0 0.1 0.1 0.3 0.2 0.4l0.3 0.3c0.1 0.1 0.3 0.1 0.4 0.1s0.3 0 0.4-0.1c0.1 0 0.2-0.1 0.3-0.2l0.1 0.3z"/>
			<path d="m32.4 76.7c-0.1 0.1-0.3 0.2-0.4 0.2-0.2 0-0.3 0.1-0.5 0.1s-0.4 0-0.6-0.1-0.3-0.2-0.4-0.3-0.2-0.3-0.2-0.5-0.1-0.4-0.1-0.6c0-0.5 0.1-0.9 0.3-1.2s0.5-0.4 1-0.4h0.5c0.1 0 0.3 0.1 0.4 0.1l-0.1 0.4c-0.1-0.1-0.2-0.1-0.3-0.1h-0.4c-0.6 0-0.9 0.4-0.9 1.2v0.4c0 0.1 0.1 0.3 0.2 0.4l0.3 0.3c0.1 0.1 0.3 0.1 0.4 0.1s0.3 0 0.4-0.1c0.1 0 0.2-0.1 0.3-0.2l0.1 0.3z"/>
			<path d="m35 75.1v-0.4l-0.2 0.4-1.4 1.8h-0.3v-3h0.5v1.8 0.4l0.2-0.4 1.4-1.8h0.3v3h-0.5v-1.8z"/>
			<path d="m38.3 75.1v-0.4l-0.3 0.4-1.4 1.8h-0.3v-3h0.5v1.8 0.4l0.2-0.4 1.4-1.8h0.3v3h-0.5v-1.8zm-1.2-2.4c0 0.2 0.1 0.3 0.2 0.4s0.2 0.1 0.3 0.1 0.2 0 0.3-0.1 0.2-0.2 0.2-0.4l0.4 0.1c0 0.2-0.1 0.4-0.3 0.5s-0.4 0.2-0.6 0.2h-0.3c-0.1 0-0.2-0.1-0.3-0.1-0.1-0.1-0.2-0.1-0.2-0.2-0.1-0.1-0.1-0.2-0.1-0.3l0.4-0.2z"/>
			<path d="m41.7 76.7c-0.1 0.1-0.3 0.2-0.4 0.2-0.2 0-0.3 0.1-0.5 0.1s-0.4 0-0.6-0.1-0.3-0.2-0.4-0.3-0.2-0.3-0.2-0.5-0.1-0.4-0.1-0.6c0-0.5 0.1-0.9 0.3-1.2s0.5-0.4 1-0.4h0.5c0.1 0 0.3 0.1 0.4 0.1l-0.1 0.4c-0.1-0.1-0.2-0.1-0.3-0.1h-0.4c-0.6 0-0.9 0.4-0.9 1.2v0.4c0 0.1 0.1 0.3 0.2 0.4l0.3 0.3c0.1 0.1 0.3 0.1 0.4 0.1s0.3 0 0.4-0.1c0.1 0 0.2-0.1 0.3-0.2l0.1 0.3z"/>
			<path d="m43.2 75.5h-0.3v1.4h-0.5v-3h0.5v1.4l0.3-0.1 1-1.3h0.5l-0.9 1.2-0.3 0.2 0.3 0.2 1 1.4h-0.6l-1-1.4z"/>
			<path d="m45.2 74.1c0.2-0.1 0.3-0.2 0.5-0.2s0.4-0.1 0.6-0.1 0.4 0 0.5 0.1 0.2 0.1 0.3 0.2 0.1 0.2 0.1 0.3v0.3 0.7 0.7 0.4c0 0.1 0 0.3 0.1 0.4h-0.4l-0.1-0.4c0 0.1-0.1 0.1-0.1 0.2-0.1 0.1-0.1 0.1-0.2 0.1s-0.2 0.1-0.3 0.1h-0.3c-0.1 0-0.2 0-0.4-0.1-0.1 0-0.2-0.1-0.3-0.2s-0.1-0.2-0.2-0.3c0-0.1-0.1-0.2-0.1-0.4s0-0.3 0.1-0.4l0.3-0.3c0.1-0.1 0.3-0.1 0.5-0.2h0.6 0.2 0.2v-0.3c0-0.2 0-0.4-0.1-0.5s-0.2-0.1-0.5-0.1h-0.2-0.2c-0.1 0-0.2 0-0.2 0.1-0.1 0-0.1 0.1-0.2 0.1l-0.2-0.2zm0.9 2.4h0.3c0.1 0 0.2-0.1 0.2-0.1s0.1-0.1 0.2-0.2c0-0.1 0.1-0.1 0.1-0.2v-0.5h-0.2-0.2-0.4c-0.1 0-0.2 0-0.3 0.1-0.1 0-0.2 0.1-0.2 0.2-0.1 0.1-0.1 0.2-0.1 0.2 0 0.1 0.1 0.3 0.2 0.3 0.1 0.2 0.2 0.2 0.4 0.2z"/>
			<path d="m49.8 75.6l-0.5 0.1-0.8 1.2h-0.6l0.7-1 0.2-0.2c-0.2 0-0.4-0.1-0.5-0.3-0.1-0.1-0.2-0.3-0.2-0.6 0-0.2 0-0.3 0.1-0.5l0.3-0.3c0.1-0.1 0.3-0.1 0.4-0.2 0.2 0 0.3-0.1 0.5-0.1h0.4c0.1 0 0.3 0 0.4 0.1v3h-0.5v-1.2zm0-1.3h-0.2-0.2c-0.3 0-0.5 0-0.6 0.1s-0.2 0.2-0.2 0.4 0.1 0.3 0.2 0.4 0.3 0.1 0.6 0.1h0.1 0.2v-1z"/>
			<path d="m52.6 75.4c0-0.5 0.1-0.9 0.3-1.2s0.6-0.4 1-0.4c0.2 0 0.4 0 0.6 0.1s0.3 0.2 0.4 0.3 0.2 0.3 0.2 0.5c0.1 0.2 0.1 0.4 0.1 0.6 0 0.5-0.1 0.9-0.3 1.2s-0.6 0.4-1 0.4c-0.2 0-0.4 0-0.6-0.1s-0.3-0.2-0.4-0.3-0.2-0.3-0.2-0.5c-0.1-0.2-0.1-0.4-0.1-0.6zm0.5 0v0.4c0 0.1 0.1 0.3 0.1 0.4 0.1 0.1 0.1 0.2 0.3 0.3 0.1 0.1 0.2 0.1 0.4 0.1 0.5 0 0.8-0.4 0.8-1.2v-0.4c0-0.1-0.1-0.3-0.1-0.4-0.1-0.1-0.1-0.2-0.3-0.3-0.1-0.1-0.2-0.1-0.4-0.1-0.5 0-0.8 0.4-0.8 1.2z"/>
			<path d="m56.3 74.4c0.1-0.2 0.3-0.3 0.4-0.4 0.2-0.1 0.4-0.1 0.6-0.1 0.4 0 0.7 0.1 0.9 0.4 0.2 0.2 0.3 0.6 0.3 1.1s-0.1 1-0.3 1.2-0.6 0.4-1 0.4c-0.4 0-0.8-0.2-1-0.5s-0.3-0.8-0.3-1.4c0-0.3 0-0.6 0.1-0.9 0-0.2 0.1-0.5 0.2-0.6 0.1-0.2 0.1-0.3 0.2-0.4s0.2-0.2 0.3-0.2c0.1-0.1 0.2-0.1 0.4-0.1 0.1 0 0.3 0 0.5-0.1 0.2 0 0.4 0 0.5-0.1 0.1 0 0.2-0.1 0.3-0.1l0.1 0.4-0.1 0.1s-0.1 0-0.2 0.1h-0.2-0.3c-0.2 0-0.3 0-0.5 0.1-0.1 0-0.2 0.1-0.3 0.2s-0.2 0.2-0.2 0.4c-0.4 0-0.4 0.2-0.4 0.5zm0 1v0.4c0 0.1 0.1 0.3 0.1 0.4l0.3 0.3c0.1 0.1 0.2 0.1 0.4 0.1 0.3 0 0.5-0.1 0.6-0.3s0.2-0.5 0.2-0.9v-0.4c0-0.1-0.1-0.2-0.1-0.3-0.1-0.1-0.1-0.2-0.2-0.2-0.1-0.1-0.2-0.1-0.3-0.1-0.3 0-0.5 0.1-0.7 0.3-0.2 0.1-0.3 0.3-0.3 0.7z"/>
			<path d="m63.2 77.7h-0.3l-0.1-0.8h-3.5v-3h0.5v2.6h1v-2.6h0.5v2.6h1v-2.6h0.5v2.6h0.4v1.2z"/>
			<path d="m66 76.6c-0.1 0.1-0.3 0.2-0.5 0.2-0.2 0.1-0.4 0.1-0.6 0.1s-0.4 0-0.6-0.1-0.3-0.2-0.4-0.3c-0.1-0.1-0.2-0.3-0.2-0.5-0.1-0.2-0.1-0.4-0.1-0.7 0-0.5 0.1-0.9 0.3-1.2s0.6-0.4 1-0.4h0.4c0.1 0 0.3 0.1 0.4 0.2s0.2 0.2 0.3 0.4 0.1 0.4 0.1 0.6v0.4h-1.9c0 0.2 0 0.3 0.1 0.5 0 0.1 0.1 0.3 0.2 0.3 0.1 0.1 0.2 0.2 0.3 0.2 0.1 0.1 0.3 0.1 0.4 0.1s0.3 0 0.4-0.1c0.1 0 0.2-0.1 0.3-0.2l0.1 0.5zm-1.1-2.4c-0.2 0-0.4 0.1-0.6 0.2-0.1 0.1-0.2 0.3-0.3 0.6h1.5c0-0.3-0.1-0.5-0.2-0.6 0-0.1-0.2-0.2-0.4-0.2z"/>
			<path d="m68.8 76.7c-0.1 0.1-0.3 0.2-0.4 0.2-0.2 0-0.3 0.1-0.5 0.1s-0.4 0-0.6-0.1-0.3-0.2-0.4-0.3-0.2-0.3-0.2-0.5-0.1-0.4-0.1-0.6c0-0.5 0.1-0.9 0.3-1.2s0.5-0.4 1-0.4h0.5c0.1 0 0.3 0.1 0.4 0.1l-0.1 0.4c-0.1-0.1-0.2-0.1-0.3-0.1h-0.4c-0.6 0-0.9 0.4-0.9 1.2v0.4c0 0.1 0.1 0.3 0.2 0.4l0.3 0.3c0.1 0.1 0.3 0.1 0.4 0.1s0.3 0 0.4-0.1c0.1 0 0.2-0.1 0.3-0.2l0.1 0.3z"/>
			<path d="m71.3 74.3h-0.9v2.6h-0.5v-2.6h-0.9v-0.4h2.4v0.4z"/>
			<path d="m71.8 73.9h0.4 0.6c0.4 0 0.7 0.1 0.9 0.2s0.3 0.3 0.3 0.6c0 0.1 0 0.3-0.1 0.4s-0.2 0.2-0.4 0.3c0.2 0 0.4 0.1 0.5 0.2v0.4c0 0.3-0.1 0.5-0.3 0.7-0.2 0.1-0.6 0.2-1 0.2h-0.5-0.4v-3zm1.1 1.2h0.2c0.1 0 0.1-0.1 0.2-0.1s0.1-0.1 0.1-0.1c0-0.1 0.1-0.1 0.1-0.2 0-0.2 0-0.3-0.1-0.3-0.1-0.1-0.3-0.1-0.5-0.1h-0.3-0.2v0.9h0.5zm-0.6 1.4h0.2 0.3c0.3 0 0.5 0 0.6-0.1s0.2-0.2 0.2-0.4c0-0.1-0.1-0.3-0.2-0.4s-0.3-0.1-0.6-0.1h-0.5v1z"/>
			<path d="m77 76.6c-0.1 0.1-0.3 0.2-0.5 0.2-0.1 0.1-0.3 0.2-0.5 0.2s-0.4 0-0.6-0.1-0.3-0.2-0.4-0.3c-0.1-0.1-0.2-0.3-0.2-0.5-0.1-0.2-0.1-0.4-0.1-0.7 0-0.5 0.1-0.9 0.3-1.2s0.6-0.4 1-0.4h0.4c0.1 0 0.3 0.1 0.4 0.2s0.2 0.2 0.3 0.4 0.1 0.4 0.1 0.6v0.4h-1.9c0 0.2 0 0.3 0.1 0.5 0 0.1 0.1 0.3 0.2 0.3 0.1 0.1 0.2 0.2 0.3 0.2 0.1 0.1 0.3 0.1 0.4 0.1s0.3 0 0.4-0.1c0.1 0 0.2-0.1 0.3-0.2v0.4zm-1-2.4c-0.2 0-0.4 0.1-0.6 0.2-0.1 0.1-0.2 0.3-0.3 0.6h1.5c0-0.3-0.1-0.5-0.2-0.6s-0.2-0.2-0.4-0.2z"/>
			<path d="m79.7 75.6h-1.4v1.3h-0.5v-3h0.5v1.3h1.4v-1.3h0.5v3h-0.5v-1.3z"/>
			<path d="m83 75.6h-1.4v1.3h-0.5v-3h0.5v1.3h1.4v-1.3h0.5v3h-0.5v-1.3z"/>
			<path d="m84.3 74.1c0.2-0.1 0.3-0.2 0.5-0.2s0.4-0.1 0.6-0.1 0.4 0 0.5 0.1 0.2 0.1 0.3 0.2 0.1 0.2 0.1 0.3v0.3 0.7 0.7 0.4c0 0.1 0 0.3 0.1 0.4h-0.4v-0.4c0 0.1-0.1 0.1-0.1 0.2-0.1 0.1-0.1 0.1-0.2 0.1s-0.2 0.1-0.3 0.1h-0.3c-0.1 0-0.2 0-0.4-0.1-0.1 0-0.2-0.1-0.3-0.2s-0.1-0.2-0.2-0.3c0-0.1-0.1-0.2-0.1-0.4s0-0.3 0.1-0.4l0.3-0.3c0.1-0.1 0.3-0.1 0.5-0.2h0.6 0.2s0.1 0 0.2 0v-0.3c0-0.2 0-0.4-0.1-0.5s-0.2-0.1-0.5-0.1h-0.2-0.2c-0.1 0-0.2 0-0.2 0.1-0.1 0-0.1 0.1-0.2 0.1l-0.3-0.2zm0.9 2.4h0.3c0.1 0 0.2-0.1 0.2-0.1 0.1 0 0.1-0.1 0.2-0.2 0-0.1 0.1-0.1 0.1-0.2v-0.5h-0.2-0.2-0.4c-0.1 0-0.2 0-0.3 0.1-0.1 0-0.2 0.1-0.2 0.2-0.1 0.1-0.1 0.2-0.1 0.2 0 0.1 0.1 0.3 0.2 0.3 0.1 0.2 0.2 0.2 0.4 0.2z"/>
			<path d="m88.9 75.6l-0.5 0.1-0.8 1.2h-0.6l0.7-1 0.2-0.2c-0.2 0-0.4-0.1-0.5-0.3-0.1-0.1-0.2-0.3-0.2-0.6 0-0.2 0-0.3 0.1-0.5l0.3-0.3c0.1-0.1 0.3-0.1 0.4-0.2 0.2 0 0.3-0.1 0.5-0.1h0.4c0.1 0 0.3 0 0.4 0.1v3h-0.5v-1.2zm0-1.3h-0.2-0.2c-0.3 0-0.5 0-0.6 0.1s-0.2 0.2-0.2 0.4 0.1 0.3 0.2 0.4 0.3 0.1 0.6 0.1h0.1 0.2v-1z"/>
			<path d="m91.7 75.4c0-0.5 0.1-0.9 0.3-1.2s0.6-0.4 1-0.4c0.2 0 0.4 0 0.6 0.1s0.3 0.2 0.4 0.3 0.2 0.3 0.2 0.5c0.1 0.2 0.1 0.4 0.1 0.6 0 0.5-0.1 0.9-0.3 1.2s-0.6 0.4-1 0.4c-0.2 0-0.4 0-0.6-0.1s-0.3-0.2-0.4-0.3-0.2-0.3-0.2-0.5c-0.1-0.2-0.1-0.4-0.1-0.6zm0.5 0v0.4c0 0.1 0.1 0.3 0.1 0.4 0.1 0.1 0.1 0.2 0.3 0.3 0.1 0.1 0.2 0.1 0.4 0.1 0.5 0 0.8-0.4 0.8-1.2v-0.4c0-0.1-0.1-0.3-0.1-0.4-0.1-0.1-0.1-0.2-0.3-0.3-0.1-0.1-0.2-0.1-0.4-0.1-0.5 0-0.8 0.4-0.8 1.2z"/>
			<path d="m95.1 73.9h0.3l0.1 0.4c0.1-0.1 0.2-0.2 0.4-0.3 0.1-0.1 0.3-0.1 0.5-0.1 0.4 0 0.7 0.1 0.9 0.4 0.2 0.2 0.3 0.6 0.3 1.2 0 0.3 0 0.5-0.1 0.7s-0.2 0.4-0.3 0.5-0.3 0.2-0.4 0.3c-0.2 0.1-0.4 0.1-0.6 0.1h-0.4c-0.1 0-0.2 0-0.3-0.1v1.3h-0.5v-4.4zm1.2 0.3c-0.2 0-0.4 0.1-0.5 0.2s-0.2 0.3-0.3 0.5v1.5c0.1 0.1 0.2 0.1 0.2 0.1h0.4c0.3 0 0.5-0.1 0.7-0.3s0.2-0.5 0.2-0.9v-0.5c0-0.1-0.1-0.2-0.1-0.3-0.1-0.1-0.1-0.2-0.2-0.2-0.1-0.1-0.2-0.1-0.4-0.1z"/>
			<path d="m100.1 74.3h-1.3v2.6h-0.5v-3h1.8v0.4z"/>
			<path d="m100.5 74.1c0.2-0.1 0.3-0.2 0.5-0.2s0.4-0.1 0.6-0.1 0.4 0 0.5 0.1 0.2 0.1 0.3 0.2 0.1 0.2 0.1 0.3v0.3 0.7 0.7 0.4c0 0.1 0 0.3 0.1 0.4h-0.4l-0.1-0.4c0 0.1-0.1 0.1-0.1 0.2-0.1 0.1-0.1 0.1-0.2 0.1s-0.2 0.1-0.3 0.1h-0.3c-0.1 0-0.2 0-0.4-0.1-0.1 0-0.2-0.1-0.3-0.2s-0.1-0.2-0.2-0.3c0-0.1-0.1-0.2-0.1-0.4s0-0.3 0.1-0.4l0.3-0.3c0.1-0.1 0.3-0.1 0.5-0.2h0.6 0.2 0.2v-0.3c0-0.2 0-0.4-0.1-0.5s-0.2-0.1-0.5-0.1h-0.2-0.2c-0.1 0-0.2 0-0.2 0.1-0.1 0-0.1 0.1-0.2 0.1l-0.2-0.2zm0.9 2.4h0.3c0.1 0 0.2-0.1 0.2-0.1 0.1 0 0.1-0.1 0.2-0.2 0-0.1 0.1-0.1 0.1-0.2v-0.5h-0.2-0.2-0.4c-0.1 0-0.2 0-0.3 0.1-0.1 0-0.2 0.1-0.2 0.2-0.1 0.1-0.1 0.2-0.1 0.2 0 0.1 0.1 0.3 0.2 0.3 0.1 0.2 0.2 0.2 0.4 0.2z"/>
			<path d="m105.4 75.6h-1.4v1.3h-0.5v-3h0.5v1.3h1.4v-1.3h0.5v3h-0.5v-1.3z"/>
			<path d="m108.7 75.1v-0.4l-0.2 0.4-1.4 1.8h-0.3v-3h0.5v1.8 0.4l0.2-0.4 1.4-1.8h0.3v3h-0.5v-1.8z"/>
			<path d="m110.4 75.5v-0.4h0.4 0.2c0.1 0 0.1-0.1 0.2-0.1s0.1-0.1 0.1-0.2 0.1-0.1 0.1-0.2c0-0.2-0.1-0.3-0.2-0.3-0.1-0.1-0.3-0.1-0.5-0.1s-0.3 0-0.4 0.1c-0.1 0-0.2 0.1-0.3 0.1l-0.1-0.4c0.1-0.1 0.3-0.1 0.4-0.2 0.2-0.1 0.4-0.1 0.6-0.1 0.7 0 1 0.2 1 0.7 0 0.1 0 0.3-0.1 0.4s-0.2 0.2-0.4 0.3c0.2 0 0.4 0.1 0.5 0.3 0.1 0.1 0.1 0.3 0.1 0.5 0 0.1 0 0.2-0.1 0.4-0.1 0.1-0.1 0.2-0.2 0.3s-0.2 0.1-0.4 0.2c-0.2 0-0.3 0.1-0.6 0.1-0.2 0-0.4 0-0.5-0.1-0.1 0-0.3-0.1-0.4-0.1l0.1-0.4c0.1 0.1 0.2 0.1 0.3 0.1h0.4c0.2 0 0.4 0 0.6-0.1 0.1-0.1 0.2-0.2 0.2-0.4 0-0.1-0.1-0.3-0.2-0.3-0.1-0.1-0.3-0.1-0.6-0.1h-0.2z"/>
			<path d="m112.7 74.1c0.2-0.1 0.3-0.2 0.5-0.2s0.4-0.1 0.6-0.1 0.4 0 0.5 0.1 0.2 0.1 0.3 0.2 0.1 0.2 0.1 0.3v0.3 0.7 0.7 0.4c0 0.1 0 0.3 0.1 0.4h-0.4l-0.1-0.4c0 0.1-0.1 0.1-0.1 0.2-0.1 0.1-0.1 0.1-0.2 0.1s-0.2 0.1-0.3 0.1h-0.3c-0.1 0-0.2 0-0.4-0.1-0.1 0-0.2-0.1-0.3-0.2s-0.1-0.2-0.2-0.3c0-0.1-0.1-0.2-0.1-0.4s0-0.3 0.1-0.4l0.3-0.3c0.1-0.1 0.3-0.1 0.5-0.2h0.6 0.2 0.2v-0.3c0-0.2 0-0.4-0.1-0.5s-0.2-0.1-0.5-0.1h-0.2s-0.2 0-0.2 0c-0.1 0-0.2 0-0.2 0.1-0.1 0-0.1 0.1-0.2 0.1l-0.2-0.2zm0.9 2.4h0.3c0.1 0 0.2-0.1 0.2-0.1 0.1 0 0.1-0.1 0.2-0.2 0-0.1 0.1-0.1 0.1-0.2v-0.5h-0.2-0.2-0.4c-0.1 0-0.2 0-0.3 0.1-0.1 0-0.2 0.1-0.2 0.2-0.1 0.1-0.1 0.2-0.1 0.2 0 0.1 0.1 0.3 0.2 0.3 0.1 0.2 0.2 0.2 0.4 0.2z"/>
			<path d="m118.5 77.7h-0.3l-0.1-0.8h-2.3v-3h0.5v2.6h1.3v-2.6h0.5v2.6h0.4v1.2z"/>
			<path d="m121 75.1v-0.4l-0.2 0.4-1.4 1.8h-0.3v-3h0.5v1.8 0.4l0.2-0.4 1.4-1.8h0.3v3h-0.5v-1.8z"/>
			<path d="m123.9 75.6l-0.5 0.1-0.8 1.2h-0.6l0.7-1 0.2-0.2c-0.2 0-0.4-0.1-0.5-0.3-0.1-0.1-0.2-0.3-0.2-0.6 0-0.2 0-0.3 0.1-0.5l0.3-0.3c0.1-0.1 0.3-0.1 0.4-0.2 0.2 0 0.3-0.1 0.5-0.1h0.4c0.1 0 0.3 0 0.4 0.1v3h-0.5v-1.2zm0-1.3h-0.2-0.2c-0.3 0-0.5 0-0.6 0.1s-0.2 0.2-0.2 0.4 0.1 0.3 0.2 0.4 0.3 0.1 0.6 0.1h0.1 0.2v-1z"/>
		</g>
</svg>
