<?xml version="1.0" encoding="UTF-8" standalone="no"?>
<!-- Generator: Adobe Illustrator 18.0.0, SVG Export Plug-In . SVG Version: 6.00 Build 0)  -->
<!DOCTYPE svg  PUBLIC '-//W3C//DTD SVG 1.1//EN'  'http://www.w3.org/Graphics/SVG/1.1/DTD/svg11.dtd'>
<svg id="Layer_1" xmlns="http://www.w3.org/2000/svg" xml:space="preserve" viewBox="0 0 150 101" version="1.1" y="0px" x="0px" xmlns:xlink="http://www.w3.org/1999/xlink" enable-background="new 0 0 150 101">
		<g fill="#504F53">
			<path d="m87 34.3h-3.2v-0.3l0.4-0.1c0.5-0.1 0.6-0.5 0.6-1v-6.4l-4.5 6.7v0.2c0 0.2 0 0.4 0.6 0.5l0.4 0.1v0.4h-3.2v-0.4l0.4-0.1c0.5-0.1 0.6-0.5 0.6-1v-7c0-0.6-0.1-1-0.6-1l-0.4-0.1v-0.4h3.2v0.4l-0.4 0.1c-0.6 0.1-0.6 0.5-0.6 1v6.4l4.5-6.7v-0.1c0-0.2-0.1-0.5-0.6-0.6l-0.4-0.1v-0.4h3.2v0.4l-0.4 0.1c-0.5 0.1-0.6 0.5-0.6 1v7c0 0.6 0.1 1 0.6 1l0.4 0.1v0.3z"/>
			<path d="m95.3 34.3h-3.1v-0.3l0.5-0.1c0.5-0.1 0.6-0.5 0.6-1.2v-1.8h-3.3v1.8c0 0.7 0.1 1.1 0.5 1.2l0.5 0.1v0.3h-3.1v-0.3l0.5-0.1c0.5-0.1 0.6-0.5 0.6-1.2v-3.7c0-0.6-0.1-1.1-0.6-1.2l-0.5-0.1v-0.3h3.1v0.3l-0.5 0.1c-0.5 0.1-0.5 0.5-0.5 1.2v1.5h3.2v-1.5c0-0.6-0.1-1.1-0.6-1.2l-0.5-0.1v-0.3h3.1v0.3l-0.5 0.1c-0.5 0.1-0.5 0.5-0.5 1.2v3.8c0 0.6 0.1 1.1 0.5 1.2l0.5 0.1v0.2z"/>
			<path d="m101 28.4c-0.3 0.2-0.4 0.3-0.6 0.3s-0.4-0.4-0.6-0.6-0.4-0.4-0.9-0.4c-0.8 0-1.6 0.7-1.6 3.1 0 1.6 0.6 3.1 2.2 3.1 0.7 0 1.1-0.2 1.6-0.5v0.4c-0.4 0.3-1.1 0.7-2.1 0.7-2.2 0-2.9-1.9-2.9-3.4 0-2.8 1.7-3.9 3-3.9 0.5 0 0.9 0.1 1.2 0.1 0.5 0.1 1 0.4 1 0.6s-0.1 0.4-0.3 0.5z"/>
			<path d="m107.8 29.4l-0.3 0.2c-0.2-1.4-0.7-1.7-1.8-1.7h-0.3v4.9c0 0.6 0.1 1.1 0.5 1.2l0.5 0.1v0.3h-3.1v-0.4l0.5-0.1c0.5-0.1 0.6-0.5 0.6-1.2v-4.9h-0.4c-1 0-1.3 0.2-1.7 1.6l-0.3 0.1v-0.1c0-0.4 0-1.1 0.1-1.4 0.1-0.6 0.2-0.6 0.4-0.6s1.7 0.1 2.6 0.1c1.4 0 1.5-0.1 2.4-0.1 0.4 0 0.5 0.1 0.5 0.8-0.1 0.2-0.2 0.9-0.2 1.2z"/>
			<path d="m116 34.3h-3.1v-0.3l0.5-0.1c0.5-0.1 0.6-0.5 0.6-1.2v-3.6l-3.3 4.1c0 0.4 0.1 0.6 0.5 0.7l0.5 0.1v0.3h-3.1v-0.3l0.5-0.1c0.5-0.1 0.6-0.5 0.6-1.2v-3.7c0-0.6-0.1-1.1-0.6-1.2l-0.5-0.1v-0.3h3.1v0.3l-0.5 0.1c-0.5 0.1-0.5 0.5-0.5 1.2v3.6l3.3-4.1c0-0.3 0-0.5-0.6-0.6l-0.5-0.1v-0.3h3.1v0.3l-0.5 0.1c-0.5 0.1-0.5 0.5-0.5 1.2v3.8c0 0.6 0.1 1.1 0.5 1.2l0.5-0.1v0.3z"/>
			<path d="m122.4 29.4l-0.3 0.2c-0.2-1.4-0.7-1.7-1.8-1.7h-0.3v4.9c0 0.6 0.1 1.1 0.5 1.2l0.5 0.1v0.3h-3.1v-0.4l0.5-0.1c0.5-0.1 0.6-0.5 0.6-1.2v-4.9h-0.4c-1 0-1.3 0.2-1.7 1.6l-0.3 0.1v-0.1c0-0.4 0-1.1 0.1-1.4 0.1-0.6 0.2-0.6 0.4-0.6s1.7 0.1 2.6 0.1c1.4 0 1.5-0.1 2.4-0.1 0.4 0 0.5 0.1 0.5 0.8-0.1 0.2-0.1 0.9-0.2 1.2z"/>
			<path d="m130 27.7c-0.5 0.2-0.6 0.4-1.7 3.7-0.7 2.1-1.4 3.5-1.8 4.4-0.3 0.8-1.2 2-1.7 2-0.3 0-0.4-0.4-0.4-0.7 0-0.8 0.2-1 0.5-1.1 0.2-0.1 1.2 0.1 1.4-1.1-0.1-0.2-0.2-0.6-0.4-1.1l-1.7-4.6c-0.4-1.2-0.6-1.5-1-1.6l-0.3-0.1v-0.3h3v0.3l-0.4 0.1c-0.3 0.1-0.4 0.3-0.4 0.5 0 0.3 0.2 0.8 0.4 1.5l1.4 4 0.2-0.6c0.7-1.9 1.2-4.1 1.2-4.7 0-0.4-0.1-0.5-0.3-0.6l-0.4-0.1v-0.3h2.2v0.4z"/>
			<path d="m136.2 29.4l-0.3 0.2c-0.2-1.4-0.7-1.7-1.8-1.7h-0.3v4.9c0 0.6 0.1 1.1 0.5 1.2l0.5 0.1v0.3h-3.1v-0.4l0.5-0.1c0.5-0.1 0.6-0.5 0.6-1.2v-4.9h-0.4c-1 0-1.3 0.2-1.7 1.6l-0.3 0.1v-0.1c0-0.4 0-1.1 0.1-1.4 0.1-0.6 0.2-0.6 0.4-0.6s1.7 0.1 2.6 0.1c1.4 0 1.5-0.1 2.4-0.1 0.4 0 0.5 0.1 0.5 0.8-0.1 0.2-0.1 0.9-0.2 1.2z"/>
			<path d="m81.6 50.4c-2 0-3.1-1.3-3.1-3.6 0-2.1 1.2-3.7 3.4-3.7 1.9 0 3.1 1.1 3.1 3.4s-1.4 3.9-3.4 3.9zm0.1-6.8c-1.2 0-2 0.7-2 2.9 0 2.8 1.1 3.5 2 3.5 1.4 0 2-1.5 2-3 0-1.9-0.5-3.4-2-3.4z"/>
			<path d="m91 44.3c-0.3 0.2-0.4 0.3-0.6 0.3s-0.4-0.4-0.6-0.6-0.4-0.4-0.9-0.4c-0.8 0-1.6 0.7-1.6 3.1 0 1.6 0.6 3.1 2.2 3.1 0.7 0 1.1-0.2 1.6-0.5v0.4c-0.4 0.3-1.1 0.7-2.1 0.7-2.2 0-2.9-1.9-2.9-3.4 0-2.8 1.7-3.9 3-3.9 0.5 0 0.9 0.1 1.2 0.1 0.5 0.1 1 0.4 1 0.6s-0.1 0.3-0.3 0.5z"/>
			<path d="m97.8 45.3l-0.3 0.2c-0.2-1.4-0.7-1.7-1.8-1.7h-0.3v4.9c0 0.6 0.1 1.1 0.5 1.2l0.5 0.1v0.3h-3.1v-0.3l0.5-0.1c0.5-0.1 0.6-0.5 0.6-1.2v-4.9h-0.4c-1 0-1.3 0.2-1.7 1.6l-0.3 0.1v-0.1c0-0.4 0-1.1 0.1-1.4 0.1-0.6 0.2-0.6 0.4-0.6s1.7 0.1 2.6 0.1c1.4 0 1.5-0.1 2.4-0.1 0.4 0 0.5 0.1 0.5 0.8-0.1 0.1-0.2 0.8-0.2 1.1z"/>
			<path d="m103.5 46.1h-3.5v0.5c0 2.6 1.3 3.2 2.2 3.2 0.7 0 1.3-0.2 1.8-0.5v0.4c-0.4 0.3-1.1 0.7-2.1 0.7-2.3 0-3.1-1.8-3.1-3.4 0-2.7 1.5-3.9 3-3.9 1.7 0 2.6 1 2.6 2.2-0.1 0.7-0.4 0.8-0.9 0.8zm-3.5-0.5h2.5c0.6 0 0.6-0.2 0.6-0.5 0-1-0.6-1.5-1.4-1.5-1.3 0-1.6 1.2-1.7 2z"/>
			<path d="m108.4 50.4c-2 0-3.1-1.3-3.1-3.6 0-2.1 1.2-3.7 3.4-3.7 1.9 0 3.1 1.1 3.1 3.4 0.1 2.3-1.3 3.9-3.4 3.9zm0.1-6.8c-1.2 0-2 0.7-2 2.9 0 2.8 1.1 3.5 2 3.5 1.4 0 2-1.5 2-3 0.1-1.9-0.5-3.4-2-3.4z"/>
			<path d="m120.1 50.2h-3.1v-0.3l0.5-0.1c0.5-0.1 0.6-0.5 0.6-1.2v-4.6c0-0.2 0-0.3-0.3-0.3h-2.7c-0.2 0-0.3 0-0.3 0.3v4.6c0 0.6 0.1 1.1 0.5 1.2l0.5 0.1v0.3h-3.1v-0.3l0.5-0.1c0.5-0.1 0.6-0.5 0.6-1.2v-3.8c0-0.7-0.1-1.1-0.6-1.2l-0.5-0.1v-0.3h7.4v0.3l-0.5 0.1c-0.5 0.1-0.5 0.5-0.5 1.2v3.8c0 0.6 0.1 1.1 0.5 1.2l0.5 0.1v0.3z"/>
			<path d="m127.1 49.9c-0.3 0.1-0.9 0.4-1.3 0.4-0.5 0-0.6-0.4-0.6-1.2v-0.5c-0.9 1.2-1.7 1.7-2.6 1.7-1.1 0-1.6-0.7-1.6-1.7 0-2 1.6-2.3 3.1-2.3h0.5c0.5 0 0.5-0.1 0.5-0.5v-1.1c0-0.8-0.3-1.2-1.1-1.2-0.5 0-0.9 0.2-1 0.3-0.2 0.1-0.3 0.4-0.3 0.7 0 0.6-0.8 0.6-1.1 0.6-0.2 0-0.3-0.2-0.3-0.3 0-1 2.1-1.9 3.3-1.9s1.6 0.3 1.6 1.7v4.1c0 0.5 0.2 0.8 0.5 0.8h0.4v0.4zm-2-3.2c-0.1 0.1-0.3 0.1-0.7 0.1h-0.6c-0.9 0-1.8 0-1.8 1.6 0 0.7 0.2 1.2 1 1.2 1 0 2.1-1.3 2.1-2.2v-0.7z"/>
			<path d="m133.6 45.3l-0.3 0.2c-0.2-1.4-0.7-1.7-1.8-1.7h-0.3v4.9c0 0.6 0.1 1.1 0.5 1.2l0.5 0.1v0.3h-3.1v-0.3l0.5-0.1c0.5-0.1 0.6-0.5 0.6-1.2v-4.9h-0.4c-1 0-1.3 0.2-1.7 1.6l-0.3 0.1v-0.1c0-0.4 0-1.1 0.1-1.4 0.1-0.6 0.2-0.6 0.4-0.6s1.7 0.1 2.6 0.1c1.4 0 1.5-0.1 2.4-0.1 0.4 0 0.5 0.1 0.5 0.8-0.1 0.1-0.1 0.8-0.2 1.1z"/>
			<path d="m141.9 50.2h-3.1v-0.3l0.5-0.1c0.5-0.1 0.6-0.5 0.6-1.2v-3.6l-3.3 4.1c0 0.4 0.1 0.6 0.5 0.7l0.5 0.1v0.3h-3.1v-0.3l0.5-0.1c0.5-0.1 0.6-0.5 0.6-1.2v-3.8c0-0.6-0.1-1.1-0.6-1.2l-0.5-0.1v-0.3h3.1v0.3l-0.5 0.1c-0.5 0.1-0.5 0.5-0.5 1.2v3.6l3.3-4.1c0-0.3 0-0.5-0.6-0.6l-0.5-0.1v-0.3h3.1v0.3l-0.5 0.1c-0.5 0.1-0.5 0.5-0.5 1.2v3.8c0 0.6 0.1 1.1 0.5 1.2l0.5 0.1v0.2z"/>
			<path d="m150 50.2h-3.1v-0.3l0.5-0.1c0.5-0.1 0.6-0.5 0.6-1.2v-3.6l-3.3 4.1c0 0.4 0.1 0.6 0.5 0.7l0.5 0.1v0.3h-3.1v-0.3l0.5-0.1c0.5-0.1 0.6-0.5 0.6-1.2v-3.8c0-0.6-0.1-1.1-0.6-1.2l-0.5-0.1v-0.3h3.1v0.3l-0.5 0.1c-0.5 0.1-0.5 0.5-0.5 1.2v3.6l3.3-4.1c0-0.3 0-0.5-0.6-0.6l-0.5-0.1v-0.3h3.1v0.3l-0.5 0.1c-0.5 0.1-0.5 0.5-0.5 1.2v3.8c0 0.6 0.1 1.1 0.5 1.2l0.5 0.1v0.2z"/>
			<path d="m89.4 66.1h-3.1v-0.4l0.4-0.1c0.5-0.1 0.6-0.3 0.6-0.6v-1.2l-0.1-6.5h-0.1l-3.4 8.7h-0.3l-3.2-8.7h-0.1l-0.2 6.5v1c0 0.3 0.2 0.7 0.6 0.8l0.4 0.1v0.4h-2.7v-0.4l0.3-0.1c0.6-0.1 0.6-0.4 0.7-1.2l0.4-6.8c0-0.6 0-1-0.5-1.1l-0.4-0.1v-0.4h2.3l3 8 3.1-8h2.3v0.4l-0.4 0.1c-0.5 0.1-0.6 0.4-0.6 0.8l0.2 7.2c0 0.7 0.1 1 0.6 1l0.4 0.1v0.5z"/>
			<path d="m93.5 66.3c-2 0-3.1-1.3-3.1-3.6 0-2.1 1.2-3.7 3.4-3.7 1.9 0 3.1 1.1 3.1 3.4s-1.3 3.9-3.4 3.9zm0.1-6.9c-1.2 0-2 0.7-2 2.9 0 2.8 1.1 3.5 2 3.5 1.4 0 2-1.5 2-3 0.1-1.9-0.5-3.4-2-3.4z"/>
			<path d="m104.1 66.1h-2.8v-0.3l0.3-0.1c0.3-0.1 0.3-0.2 0.3-0.3s-0.1-0.3-0.2-0.6l-1.1-1.6-1.1 1.6c-0.2 0.3-0.2 0.5-0.2 0.6s0.1 0.3 0.3 0.3l0.3 0.1v0.3h-2.5v-0.3l0.3-0.1c0.3-0.1 0.8-0.6 1.4-1.4l1.2-1.6-1.5-2.3c-0.3-0.4-0.7-0.9-1-0.9l-0.3-0.1v-0.3h2.9v0.3l-0.3 0.1c-0.3 0.1-0.3 0.2-0.3 0.3 0 0.2 0.2 0.5 0.5 1l0.6 1 0.9-1.5c0.1-0.2 0.2-0.4 0.2-0.6 0-0.1 0-0.3-0.3-0.3l-0.3-0.1v-0.3h2.4v0.3l-0.3 0.1c-0.3 0.1-0.7 0.3-1.7 1.7l-0.7 1 1.7 2.4c0.3 0.4 0.6 0.9 0.9 0.9l0.3 0.1v0.6z"/>
			<path d="m107.8 66.3c-2 0-3.1-1.3-3.1-3.6 0-2.1 1.2-3.7 3.4-3.7 1.9 0 3.1 1.1 3.1 3.4s-1.4 3.9-3.4 3.9zm0.1-6.9c-1.2 0-2 0.7-2 2.9 0 2.8 1.1 3.5 2 3.5 1.4 0 2-1.5 2-3 0-1.9-0.5-3.4-2-3.4z"/>
			<path d="m115.5 66.1h-3.5v-0.3l0.5-0.1c0.5-0.1 0.6-0.5 0.6-1.2v-3.8c0-0.6-0.1-1.1-0.6-1.2l-0.5-0.1v-0.3h3.4c1.4 0 2.5 0.1 2.5 1.4 0 1-1.1 1.6-1.7 1.8 0.8 0 2 0.4 2 1.6 0.1 1.4-0.8 2.2-2.7 2.2zm-0.3-3.4h-1v2.1c0 0.2-0.1 0.7 0.7 0.7h0.6c0.8 0 1.7-0.2 1.7-1.5-0.1-0.9-0.9-1.3-2-1.3zm0.2-3.1h-0.8c-0.3 0-0.5 0.1-0.5 0.5v2.2h0.9c0.7 0 1.7-0.2 1.7-1.4 0.1-1.3-0.9-1.3-1.3-1.3z"/>
			<path d="m125.6 65.8c-0.3 0.1-0.9 0.4-1.3 0.4-0.5 0-0.6-0.4-0.6-1.2v-0.5c-0.9 1.2-1.7 1.7-2.6 1.7-1.1 0-1.6-0.7-1.6-1.7 0-2 1.6-2.3 3.1-2.3h0.5c0.5 0 0.5-0.1 0.5-0.5v-1.1c0-0.8-0.3-1.2-1.1-1.2-0.5 0-0.9 0.2-1 0.3-0.2 0.1-0.3 0.4-0.3 0.7 0 0.6-0.8 0.6-1.1 0.6-0.2 0-0.3-0.2-0.3-0.3 0-1 2.1-1.9 3.3-1.9s1.6 0.3 1.6 1.7v4.1c0 0.5 0.2 0.8 0.5 0.8h0.4v0.4zm-2-3.2c-0.1 0.1-0.3 0.1-0.7 0.1h-0.6c-0.9 0-1.8 0-1.8 1.6 0 0.7 0.2 1.2 1 1.2 1 0 2.1-1.3 2.1-2.2v-0.7z"/>
		</g>
				<radialGradient id="SVGID_1_" gradientUnits="userSpaceOnUse" cy="7.6399" cx="24.503" gradientTransform="matrix(.955 -.2966 .2731 .8793 -.9837 8.1893)" r="51.277">
				<stop stop-color="#fff" offset=".1296"/>
				<stop stop-color="#FAE3B4" offset=".3597"/>
				<stop stop-color="#F8C979" offset=".622"/>
				<stop stop-color="#B57120" offset=".8355"/>
				<stop stop-color="#663923" offset="1"/>
			</radialGradient>
			<path d="m65.5 23.2c-0.3-2.5-0.9-5.1-2-7.5-1-2.4-2.5-4.6-4.2-6.6-3.5-4-8.4-6.7-13.4-8-2.5-0.7-5.1-1-7.7-1.1h-1.9-1-0.9c-1.3 0.1-2.6 0.2-3.8 0.4-5 0.8-10 2.4-14.5 5.1-4.6 2.7-8.5 6.5-11.4 10.9-3 4.3-5 9.8-4.7 15.5s2.9 11.2 7 15.1 9.7 6.2 15.2 6.5c5.2 0.3 10.6-0.5 15.6-2.5 5-2.1 9.5-5.3 12.8-9.9 0.8-1.2 1.5-2.4 2.2-3.8 0.6-1.4 1-2.9 1.2-4.5 0.4-3-0.1-6.2-1.4-9s-3.4-5.3-6-6.9c-2.5-1.7-5.4-2.6-8.1-3-3-0.5-6-0.1-8.7 0.6-2.7 0.8-5.3 2-7.6 3.8s-4.3 4.1-5.5 7.2l-0.4 0.5-0.1 0.4-0.1 0.2-0.1 0.3v0.2c-0.1 0.2-0.1 0.4-0.2 0.7-0.2 0.9-0.2 1.9-0.1 2.9 0.2 2 1.1 3.9 2.4 5.3s2.9 2.4 4.6 2.9 3.4 0.6 5 0.5c9.6-1 13.9-8.9 11.5-13.1-1.5-2.6-5.1-3.6-8.7-2.6-0.7 0.2-2.1 0.6-2.6 0.7-0.6 0.1-0.8-0.1-0.5-0.4 2.8-1.9 6.7-2.9 9.8-2.4 3.9 0.6 6.9 2.5 8.3 5.5 0.7 1.5 0.9 3.2 0.8 4.8-0.2 1.7-0.8 3.1-1.9 4.7-2.2 3.1-5.6 5.7-9.4 7.2-3.8 1.6-8 2.2-12.2 2-3.9-0.2-7.7-1.6-10.5-4.2s-4.5-6.2-4.8-10c-0.2-3.8 1-7.7 3.3-11.2 2.2-3.5 5.3-6.6 8.9-8.8s7.7-3.7 12-4.4c1.1-0.2 2.2-0.3 3.2-0.4l0.9-0.1h0.8 1.6c2.2 0 4.3 0.2 6.3 0.7 4.1 0.9 8 2.8 11 5.7s5.1 6.8 6 11c1 4.3 0.8 8.9-0.1 13.4-0.1 0.5 0.2 1 0.7 1.2 0.6 0.2 1.2-0.1 1.4-0.6 1.7-4.7 2.6-9.8 2-14.9z" fill="url(#SVGID_1_)"/>
				<defs>
					<path id="SVGID_2_" d="m65.5 23.2c-0.3-2.5-0.9-5.1-2-7.5-1-2.4-2.5-4.6-4.2-6.6-3.5-4-8.4-6.7-13.4-8-2.5-0.7-5.1-1-7.7-1.1h-1.9-1-0.9c-1.3 0.1-2.6 0.2-3.8 0.4-5 0.8-10 2.4-14.5 5.1-4.6 2.7-8.5 6.5-11.4 10.9-3 4.3-5 9.8-4.7 15.5s2.9 11.2 7 15.1 9.7 6.2 15.2 6.5c5.2 0.3 10.6-0.5 15.6-2.5 5-2.1 9.5-5.3 12.8-9.9 0.8-1.2 1.5-2.4 2.2-3.8 0.6-1.4 1-2.9 1.2-4.5 0.4-3-0.1-6.2-1.4-9s-3.4-5.3-6-6.9c-2.5-1.7-5.4-2.6-8.1-3-3-0.5-6-0.1-8.7 0.6-2.7 0.8-5.3 2-7.6 3.8s-4.3 4.1-5.5 7.2l-0.4 0.5-0.1 0.4-0.1 0.2-0.1 0.3v0.2c-0.1 0.2-0.1 0.4-0.2 0.7-0.2 0.9-0.2 1.9-0.1 2.9 0.2 2 1.1 3.9 2.4 5.3s2.9 2.4 4.6 2.9 3.4 0.6 5 0.5c9.6-1 13.9-8.9 11.5-13.1-1.5-2.6-5.1-3.6-8.7-2.6-0.7 0.2-2.1 0.6-2.6 0.7-0.6 0.1-0.8-0.1-0.5-0.4 2.8-1.9 6.7-2.9 9.8-2.4 3.9 0.6 6.9 2.5 8.3 5.5 0.7 1.5 0.9 3.2 0.8 4.8-0.2 1.7-0.8 3.1-1.9 4.7-2.2 3.1-5.6 5.7-9.4 7.2-3.8 1.6-8 2.2-12.2 2-3.9-0.2-7.7-1.6-10.5-4.2s-4.5-6.2-4.8-10c-0.2-3.8 1-7.7 3.3-11.2 2.2-3.5 5.3-6.6 8.9-8.8s7.7-3.7 12-4.4c1.1-0.2 2.2-0.3 3.2-0.4l0.9-0.1h0.8 1.6c2.2 0 4.3 0.2 6.3 0.7 4.1 0.9 8 2.8 11 5.7s5.1 6.8 6 11c1 4.3 0.8 8.9-0.1 13.4-0.1 0.5 0.2 1 0.7 1.2 0.6 0.2 1.2-0.1 1.4-0.6 1.7-4.7 2.6-9.8 2-14.9z"/>
				</defs>
				<clipPath id="SVGID_3_">
					<use overflow="visible" xlink:href="#SVGID_2_"/>
				</clipPath>
				<path fill="#F4AA56" d="m53.6 26.7c6 12-11.1 24.8-17.5 26.7-10.5 3.2-31.1 11.2-35.1-15.2 9.5 25.2 56.7 14.7 52.6-11.5z" clip-path="url(#SVGID_3_)"/>
				<path fill="#F4AA56" d="m38.3 25c3.9 6.1-4 11.7-7.2 12.7-4.1 1.3-13.8 2.1-15.5-7.6-2.5 6.3 7.9 12.3 16 9.4 8.1-2.7 11.9-12.1 6.7-14.5z" clip-path="url(#SVGID_3_)"/>
				<path fill="#B57120" d="m7.5 30.2c0.4-24.1 41.1-34.2 51.8-12.1-1.4 0.2-30.1-8.9-32.2-8.2-2.1 0.8-19.2 19.3-19.6 20.3z" clip-path="url(#SVGID_3_)"/>
				<path fill="#924534" d="m27.4 23.9c7.1-5.5 15.9-2.7 18 3.1-1 1.6-8.5-8-18-3.1z" clip-path="url(#SVGID_3_)"/>
				<path fill="#FAE3B4" d="m0.4 35.4c-2.8-16.2 13.3-28.6 21.4-31.8 8.7-3.4 30.6-7.4 41.4 11.1-4.3-18.6-31.3-17.8-41.6-14.2-10.4 3.6-27.7 14.8-21.2 34.9z" clip-path="url(#SVGID_3_)"/>
				<path fill="#fff" d="m15.9 27c3.1-12 24.4-18.5 34-7.2-6.2-11.9-31.8-9-34 7.2z" clip-path="url(#SVGID_3_)"/>
				<path fill="#FAE3B4" d="m28.1 23.4c-0.8 0.2-1.7 1.2-1.2 1.5 1.2 0.8 6.5-3.1 10.8-0.5-0.6-1.3-4.4-3.3-9.6-1z" clip-path="url(#SVGID_3_)"/>
				<linearGradient id="SVGID_4_" y2="16.149" gradientUnits="userSpaceOnUse" x2="59.783" y1="35.218" x1="6.0321">
					<stop stop-color="#663923" offset=".012121"/>
					<stop stop-color="#B57120" offset=".1576"/>
					<stop stop-color="#FAE3B4" offset=".2788"/>
					<stop stop-color="#FAE3B4" offset=".5818"/>
					<stop stop-color="#F8C979" offset=".7333"/>
					<stop stop-color="#B57120" offset=".8949"/>
				</linearGradient>
				<path d="m8.6 36.5c0 0.6 0.5 1 0.8 1.5 0.3-3 1.4-6.1 3.2-8.9 1.3-2.1 2.9-4 4.7-5.6 1.2-2.2 2.9-3.9 4.7-5.3 2.3-1.8 4.9-3 7.6-3.8s5.7-1.1 8.7-0.6c2.1 0.3 4.3 0.9 6.3 2 0.6 0.1 1.1 0.2 1.7 0.3 4.1 0.9 8 2.8 11 5.7 2 1.9 3.6 4.3 4.7 6.9 0.2-3.8-10.3-20.7-33.5-14.7-11.3 3-20 15-19.9 22.5z" fill="url(#SVGID_4_)"/>
				<linearGradient id="SVGID_5_" y2="43.044" gradientUnits="userSpaceOnUse" x2="58.947" y1="57.583" x1="8.3038">
					<stop stop-color="#663923" offset=".012121"/>
					<stop stop-color="#B57120" offset=".1758"/>
					<stop stop-color="#F8C979" offset=".3758"/>
					<stop stop-color="#fff" offset=".6"/>
					<stop stop-color="#FAE3B4" offset=".6969"/>
					<stop stop-color="#F8C979" offset=".7898"/>
					<stop stop-color="#B57120" offset=".9091"/>
					<stop stop-color="#663923" offset="1"/>
				</linearGradient>
				<path d="m56.6 36.7c-0.1-0.5-0.3-1-0.5-1.5 0.2 1.4 0.2 2.9 0.1 4.4-0.2 1.5-0.6 3-1.2 4.5s-1.3 2.7-2.2 3.8c-3.3 4.6-7.8 7.8-12.8 9.9s-10.4 2.8-15.6 2.5c-5.5-0.3-11.1-2.5-15.2-6.5-2.5-2.4-2.7-2.8-5.1-6.6 1 3.3 3.1 6.2 5.6 8.6 4.1 3.9 9.7 6.2 15.2 6.5 5.2 0.3 10.6-0.5 15.6-2.5 5-2.1 9.5-5.3 12.8-9.9 0.8-1.2 1.5-2.4 2.2-3.8 0.6-1.4 1-3 1.2-4.5 0.2-1.7 0.2-3.3-0.1-4.9z" fill="url(#SVGID_5_)"/>
				<linearGradient id="SVGID_6_" y2="30.946" gradientUnits="userSpaceOnUse" x2="46.112" y1="30.946" x1="40.216">
					<stop stop-color="#F8C979" offset=".012121"/>
					<stop stop-color="#B57120" offset=".5273"/>
					<stop stop-color="#663923" offset="1"/>
				</linearGradient>
				<path d="m40.2 29c0.2 0.5 0.3 0.9 0.5 1.5 2.1 0.4 3.9 1.2 5.3 2.4 0.1-0.3 0.1-0.5 0.2-0.8-0.7-0.8-2.9-2.6-6-3.1z" fill="url(#SVGID_6_)"/>
		<g fill="#80705D">
			<path d="m24.8 98.7c-0.5 0.5-1.1 0.8-1.6 1.1-0.6 0.3-1.1 0.5-1.6 0.6s-1 0.2-1.4 0.3-0.8 0.1-1.1 0.1c-0.3 0-0.7 0-1.2-0.1s-0.9-0.2-1.3-0.3-0.9-0.4-1.4-0.7-0.9-0.7-1.3-1.3c-0.4-0.6-0.7-1.1-0.9-1.7s-0.2-1.2-0.2-1.8 0.1-1.1 0.2-1.8 0.3-1.2 0.6-1.9c0.3-0.6 0.7-1.2 1.2-1.8s1.1-1.1 1.8-1.5c0.6-0.4 1.2-0.7 1.8-0.9s1.3-0.3 2.1-0.3c0.9 0 1.6 0.1 2.1 0.3s1 0.5 1.4 0.8c0.3 0.2 0.5 0.5 0.7 0.8s0.3 0.6 0.3 0.8c0 0.4-0.1 0.7-0.4 0.9s-0.7 0.4-1.1 0.4c-0.2 0-0.3 0-0.5-0.1s-0.4-0.1-0.6-0.2c0.2-0.2 0.4-0.3 0.4-0.5 0.1-0.2 0.1-0.4 0.1-0.6 0-0.4-0.2-0.7-0.5-1-0.2-0.2-0.5-0.3-0.8-0.5-0.3-0.1-0.7-0.2-1.1-0.2-1.1 0-2.1 0.4-3 1.3-0.3 0.3-0.6 0.6-0.9 1.1s-0.6 0.9-0.8 1.4c-0.2 0.5-0.4 1.1-0.6 1.7-0.1 0.6-0.2 1.3-0.2 2 0 0.4 0 0.9 0.1 1.5s0.2 1 0.4 1.4c0.1 0.2 0.3 0.5 0.5 0.7s0.4 0.5 0.7 0.6c0.3 0.2 0.6 0.3 1 0.5 0.4 0.1 0.8 0.2 1.3 0.2s1.1-0.1 1.5-0.2 0.9-0.3 1.3-0.5c0.4-0.2 0.7-0.5 1-0.7 0.3-0.3 0.6-0.5 0.8-0.8l1.2 0.9z"/>
			<path d="m33.9 99.4c-0.2 0.1-0.4 0.2-0.7 0.3s-0.6 0.3-0.9 0.4c-0.4 0.2-0.8 0.3-1.1 0.3s-0.8 0.1-1.2 0.1c-0.3 0-0.7 0-1-0.1-0.4-0.1-0.7-0.2-1.1-0.4-0.6-0.3-1-0.7-1.3-1.3s-0.4-1.1-0.4-1.7c0-0.5 0.1-1.1 0.3-1.7s0.6-1.2 1.1-1.7c0.4-0.4 0.8-0.8 1.3-1.1s1.1-0.6 1.7-0.7c0.1 0 0.3-0.1 0.4-0.1h0.6c0.3 0 0.6 0 0.9 0.1s0.6 0.2 0.8 0.5c0.2 0.2 0.4 0.4 0.5 0.6 0.1 0.3 0.2 0.5 0.2 0.8 0 0.2 0 0.4-0.1 0.6s-0.2 0.5-0.3 0.7-0.3 0.4-0.4 0.7c-0.2 0.2-0.3 0.4-0.5 0.6-0.5 0.4-1.1 0.8-1.8 1s-1.4 0.3-2.2 0.3h-0.4-0.4v0.5c0 0.2 0.1 0.4 0.1 0.7 0.1 0.3 0.2 0.5 0.4 0.7s0.3 0.3 0.5 0.4 0.4 0.1 0.5 0.2 0.4 0 0.5 0c0.4 0 0.7-0.1 1.1-0.2s0.8-0.3 1.3-0.5l0.6-0.3c0.2-0.1 0.3-0.2 0.4-0.3l0.6 0.6zm-6.1-2.6h0.3 0.3c0.4 0 0.7-0.1 1.1-0.2s0.7-0.3 1.1-0.6 0.8-0.7 1.2-1.1c0.3-0.5 0.5-1 0.5-1.5v-0.4c0-0.1-0.1-0.3-0.2-0.4s-0.2-0.1-0.3-0.2-0.3-0.1-0.5-0.1c-0.3 0-0.7 0.1-1 0.3s-0.6 0.4-0.9 0.7c-0.4 0.4-0.7 1-1 1.6-0.3 0.7-0.5 1.3-0.6 1.9z"/>
			<path d="m40.7 91.8l0.9 6.4c0.7-1.1 1.3-2 1.8-2.8 0.5-0.7 0.9-1.3 1.1-1.8 0.3-0.5 0.5-0.8 0.7-1.1s0.3-0.5 0.4-0.6v-0.2h1.6l-1.6 6.8c0 0.1 0 0.2-0.1 0.3v0.3c0 0.2 0.1 0.4 0.2 0.5s0.3 0.2 0.6 0.2c0.1 0 0.2 0 0.5-0.1 0.3 0 0.6-0.2 0.9-0.4l-0.1 0.8c-0.2 0.1-0.5 0.2-0.7 0.3-0.3 0.1-0.6 0.1-0.9 0.1-0.4 0-0.7 0-0.9-0.1l-0.6-0.3c-0.1-0.1-0.2-0.3-0.3-0.5s-0.1-0.4-0.1-0.5v-0.5c0-0.2 0.1-0.3 0.1-0.5l0.9-4c-0.1 0.2-0.3 0.4-0.4 0.6s-0.2 0.3-0.4 0.5c-0.1 0.2-0.3 0.4-0.4 0.7-0.2 0.3-0.4 0.6-0.6 1-0.3 0.4-0.6 0.9-0.9 1.5-0.4 0.6-0.8 1.3-1.3 2.1l-0.6 0.1-0.8-6c-0.4 1.4-0.8 2.5-1.2 3.2-0.3 0.8-0.6 1.4-0.9 1.8s-0.6 0.7-0.8 0.8-0.6 0.2-0.9 0.2h-0.5c-0.2 0-0.3-0.1-0.5-0.3-0.1-0.1-0.2-0.2-0.2-0.3s-0.1-0.2-0.1-0.4c0-0.3 0.1-0.6 0.4-0.8 0.1-0.1 0.2-0.2 0.3-0.2 0.1-0.1 0.3-0.1 0.4-0.1h0.4s0.2 0.1 0.2 0.1v0.1 0.2c0 0.1 0 0.1 0.1 0.2s0.1 0.1 0.3 0.1c0.2 0 0.3-0.1 0.4-0.2s0.2-0.3 0.3-0.4c0.2-0.2 0.3-0.6 0.5-1s0.4-0.9 0.6-1.4l0.6-1.5c0.2-0.5 0.4-1 0.5-1.4l-0.2-1.6h1.3z"/>
			<path d="m49.5 92.4c0.3-0.1 0.5-0.2 0.7-0.3 0.1-0.1 0.2-0.1 0.3-0.1 0.2-0.1 0.4-0.2 0.7-0.2 0.3-0.1 0.5-0.1 0.8-0.1 0.2 0 0.3 0 0.5 0.1s0.3 0.2 0.4 0.4 0.1 0.3 0.1 0.5 0 0.4-0.1 0.5l-0.4 1.7c0.2-0.1 0.3-0.2 0.6-0.3l0.6-0.3c0.2-0.1 0.4-0.1 0.7-0.2s0.5-0.1 0.7-0.1 0.5 0 0.7 0.1c0.3 0.1 0.5 0.2 0.7 0.4 0.3 0.3 0.4 0.5 0.5 0.8s0.1 0.6 0.1 0.9c0 0.4-0.1 0.7-0.2 1s-0.3 0.6-0.4 0.9-0.5 0.7-0.8 0.9c-0.2 0.2-0.5 0.5-0.7 0.6-0.4 0.3-0.8 0.5-1.2 0.7s-0.9 0.3-1.4 0.3c-0.4 0-0.8-0.1-1-0.2-0.3-0.1-0.5-0.2-0.7-0.4-0.3-0.2-0.4-0.4-0.5-0.7-0.2-0.2-0.2-0.5-0.2-0.7s0-0.4 0.1-0.6c0-0.2 0.1-0.4 0.1-0.5l0.3-0.9c0.1-0.3 0.2-0.6 0.3-1 0.1-0.3 0.2-0.6 0.2-0.8 0.1-0.2 0.1-0.4 0.2-0.7 0-0.1 0.1-0.3 0.1-0.5s0-0.4-0.1-0.5c-0.1-0.1-0.2-0.2-0.4-0.2s-0.4 0.1-0.7 0.2-0.5 0.2-0.6 0.4v-1.1zm2.1 5.6c0 0.1-0.1 0.2-0.1 0.4s0 0.3 0 0.4v0.4c0 0.1 0.1 0.3 0.2 0.4 0.1 0.2 0.2 0.3 0.4 0.3 0.1 0.1 0.3 0.1 0.4 0.1 0.6 0 1.1-0.2 1.5-0.7 0.4-0.4 0.7-0.9 0.9-1.6 0.1-0.2 0.2-0.5 0.2-0.8 0.1-0.3 0.1-0.6 0.1-0.8v-0.4c0-0.2-0.1-0.3-0.2-0.5-0.2-0.3-0.5-0.4-0.8-0.4-0.2 0-0.4 0-0.6 0.1l-0.6 0.3c-0.2 0.1-0.4 0.3-0.5 0.4s-0.3 0.3-0.4 0.5l-0.5 1.9z"/>
			<path d="m57.6 99.6c0.1 0 0.1 0.1 0.2 0.1h0.3c0.4 0 0.6-0.1 0.8-0.4s0.4-0.5 0.5-0.8c0.1-0.2 0.3-0.5 0.4-0.7s0.3-0.5 0.5-0.7c0.1-0.1 0.3-0.2 0.5-0.4s0.6-0.3 1-0.4c-0.3 0-0.7-0.1-1-0.2-0.4-0.1-0.6-0.2-0.9-0.4-0.1-0.1-0.3-0.3-0.4-0.5s-0.2-0.5-0.2-0.8 0.1-0.6 0.2-0.9c0.1-0.4 0.4-0.7 0.9-1s1-0.5 1.6-0.6 1.1-0.1 1.6-0.1h3.6l0.1 0.7h-0.2c-0.2 0-0.5 0.1-0.7 0.2l-1.3 5.7c0 0.1 0 0.2-0.1 0.2v0.3c0 0.2 0.1 0.4 0.2 0.6 0.1 0.1 0.2 0.2 0.3 0.2s0.3 0.1 0.4 0.1c0.3 0 0.5-0.1 0.8-0.2s0.5-0.2 0.7-0.4l-0.1 0.8c-0.3 0.2-0.6 0.4-1 0.4-0.3 0.1-0.6 0.1-1 0.1-0.2 0-0.5 0-0.7-0.1s-0.5-0.2-0.8-0.4c-0.2-0.2-0.3-0.4-0.4-0.6s-0.1-0.4-0.1-0.6v-0.3c0-0.1 0.1-0.3 0.1-0.5 0-0.1 0.1-0.2 0.1-0.5 0-0.2 0.1-0.6 0.3-1.2l-1.2 0.1c-0.3 0.1-0.6 0.3-0.8 0.6-0.1 0.1-0.2 0.3-0.3 0.5s-0.2 0.4-0.3 0.7c-0.2 0.4-0.3 0.7-0.5 0.9-0.1 0.2-0.3 0.4-0.4 0.6-0.3 0.3-0.6 0.5-1 0.6-0.3 0.1-0.6 0.2-0.9 0.2-0.4 0-0.8-0.1-1.2-0.2l0.4-0.7zm7.3-7c-0.2 0-0.4-0.1-0.5-0.1h-0.7c-0.3 0-0.6 0-0.9 0.1-0.3 0-0.6 0.2-0.9 0.4-0.2 0.1-0.3 0.3-0.5 0.6s-0.2 0.5-0.2 0.8c0 0.2 0 0.4 0.1 0.6s0.3 0.3 0.5 0.5c0.3 0.1 0.5 0.2 0.8 0.2h0.7 0.5c0.1 0 0.3 0 0.4-0.1l0.7-3z"/>
			<path d="m82.7 100c-0.3 0.2-0.7 0.3-1 0.4s-0.6 0.1-0.9 0.1-0.6 0-0.8-0.1-0.5-0.3-0.7-0.5-0.4-0.5-0.5-0.8-0.3-0.7-0.4-1-0.2-0.5-0.2-0.6-0.1-0.4-0.2-0.5-0.1-0.2-0.1-0.3-0.1-0.2-0.1-0.2c-0.2-0.3-0.4-0.4-0.7-0.3l-0.7 0.6-0.8 3.6h-1.6l1.3-6.2c0.1-0.4 0.1-0.7 0.1-0.9s-0.1-0.3-0.2-0.3c-0.1-0.1-0.3-0.2-0.5-0.2s-0.4 0.1-0.7 0.2-0.5 0.2-0.6 0.4l0.1-0.9c0.2-0.1 0.3-0.1 0.4-0.2 0.1 0 0.2-0.1 0.2-0.1 0.1 0 0.1-0.1 0.2-0.1 0 0 0.1 0 0.2-0.1 0.2-0.1 0.5-0.2 0.7-0.2s0.5-0.1 0.7-0.1c0.2 0 0.3 0 0.5 0.1s0.4 0.2 0.5 0.4c0.1 0.1 0.1 0.2 0.1 0.4v0.4c0 0.3 0 0.5-0.1 0.7l-0.4 2.2c0.2-0.2 0.4-0.3 0.5-0.4 0.2-0.1 0.3-0.3 0.4-0.4l0.3-0.3s0.2-0.2 0.4-0.3l0.6-0.6c0.2-0.2 0.5-0.4 0.7-0.6s0.5-0.4 0.7-0.6 0.4-0.3 0.6-0.4 0.4-0.3 0.7-0.3c0.3-0.1 0.5-0.1 0.7-0.1 0.3 0 0.6 0.1 0.7 0.2 0.1 0.2 0.2 0.3 0.2 0.5s0 0.4-0.1 0.6-0.2 0.4-0.4 0.6-0.5 0.4-0.7 0.4c-0.2 0.1-0.4 0.1-0.6 0.2 0.1-0.1 0.2-0.3 0.2-0.4s0-0.2-0.1-0.3-0.2-0.1-0.4-0.1c-0.1 0-0.3 0-0.5 0.1s-0.4 0.2-0.8 0.5c-0.1 0.1-0.2 0.1-0.3 0.3-0.1 0.1-0.3 0.2-0.5 0.4-0.2 0.1-0.4 0.3-0.6 0.5s-0.4 0.4-0.6 0.5c0.3-0.1 0.6 0 0.9 0.1s0.5 0.3 0.7 0.6c0.1 0.1 0.2 0.3 0.3 0.5s0.3 0.6 0.5 1.1c0.1 0.2 0.2 0.4 0.2 0.7 0.1 0.2 0.2 0.5 0.3 0.7 0.1 0.1 0.2 0.3 0.3 0.4s0.3 0.2 0.6 0.2c0.2 0 0.4-0.1 0.6-0.2s0.4-0.3 0.6-0.4l0.1 0.4z"/>
			<path d="m91.9 100.2c-0.2 0.1-0.5 0.2-0.8 0.3s-0.6 0.1-0.8 0.1c-0.4 0-0.7-0.1-0.9-0.2s-0.4-0.3-0.5-0.5c-0.1-0.2-0.2-0.5-0.3-0.8s-0.1-0.6-0.1-0.9c0-0.7-0.1-1.3-0.1-1.9v-1.5-0.8l-0.5 1c-0.2 0.5-0.6 1.1-1 2-0.3 0.6-0.6 1-0.8 1.4-0.2 0.3-0.4 0.6-0.5 0.8-0.3 0.5-0.6 0.8-0.9 1.1-0.3 0.2-0.6 0.4-1.1 0.4-0.3 0-0.5-0.1-0.7-0.2-0.2-0.2-0.3-0.4-0.3-0.7 0-0.2 0-0.3 0.1-0.5 0.1-0.1 0.1-0.2 0.2-0.3 0.1-0.2 0.3-0.3 0.5-0.5 0.2-0.1 0.5-0.2 0.7-0.3-0.1 0.1 0 0.3 0.1 0.3 0.1 0.1 0.2 0.1 0.3 0.1 0.2 0 0.4-0.1 0.6-0.4 0.2-0.2 0.4-0.5 0.6-0.8 0.3-0.4 0.5-0.7 0.6-1 0.2-0.3 0.4-0.6 0.5-0.9 0.2-0.3 0.3-0.6 0.5-1 0.2-0.3 0.3-0.6 0.5-0.9 0.1-0.3 0.3-0.5 0.4-0.7s0.2-0.3 0.2-0.4v-0.9h1.6v5.4 0.9s0.1 0.6 0.1 0.9c0.1 0.3 0.1 0.5 0.3 0.6 0.1 0.2 0.3 0.2 0.5 0.2s0.4-0.1 0.6-0.2 0.4-0.3 0.5-0.4l-0.1 1.2z"/>
			<path d="m103.2 99.9c-0.5 0.3-0.9 0.5-1.2 0.6s-0.6 0.1-0.9 0.1c-0.4 0-0.7-0.1-0.9-0.2s-0.4-0.2-0.5-0.4c-0.1-0.1-0.2-0.3-0.3-0.5s-0.1-0.4-0.1-0.6h-0.1c-0.4 0.3-0.7 0.6-1.1 0.8-0.3 0.2-0.6 0.4-0.9 0.5s-0.5 0.2-0.8 0.3c-0.2 0-0.5 0.1-0.7 0.1-0.7 0-1.2-0.2-1.6-0.6-0.3-0.4-0.5-0.9-0.5-1.4 0-0.3 0-0.5 0.1-0.8s0.1-0.7 0.3-1.1l0.6-2.7s0-0.1 0.1-0.3 0-0.3 0-0.4-0.1-0.3-0.2-0.4c-0.1-0.1-0.3-0.2-0.5-0.2s-0.4 0.1-0.6 0.2-0.4 0.2-0.6 0.4l0.1-0.9c0.2-0.1 0.3-0.2 0.5-0.2 0.1-0.1 0.3-0.1 0.5-0.2s0.4-0.2 0.6-0.2 0.5-0.1 0.8-0.1c0.7 0 1.1 0.4 1.1 1.1v0.4s-0.1 0.3-0.1 0.5l-1 4.1c-0.1 0.3-0.1 0.5-0.1 0.7 0 0.4 0.1 0.8 0.4 1s0.5 0.3 0.8 0.3c0.1 0 0.3 0 0.6-0.1s0.6-0.3 1.1-0.6c0.3-0.2 0.5-0.4 0.7-0.6s0.4-0.5 0.6-0.8l1.2-5.7h1.6l-1.3 6.3c0 0.1-0.1 0.3-0.1 0.4v0.4c0 0.2 0.1 0.4 0.2 0.6 0.1 0.1 0.2 0.2 0.3 0.2 0.1 0.1 0.3 0.1 0.4 0.1h0.3c0.1 0 0.3-0.1 0.5-0.2s0.4-0.2 0.5-0.3 0.3-0.2 0.3-0.2l-0.1 0.6z"/>
			<path d="m104.7 92.4c0.3-0.1 0.4-0.2 0.6-0.3 0.1-0.1 0.3-0.1 0.4-0.2 0.2-0.1 0.4-0.2 0.6-0.2 0.2-0.1 0.5-0.1 0.8-0.1s0.5 0.1 0.7 0.2 0.3 0.2 0.3 0.4c0.1 0.1 0.1 0.2 0.1 0.3v0.4 0.4c0 0.1 0 0.3-0.1 0.4l-0.4 1.9 3.7-0.2c0.3-1.2 0.6-2.4 0.9-3.5h1.6c-0.1 0.3-0.1 0.6-0.2 0.8s-0.1 0.5-0.2 0.7-0.1 0.5-0.2 0.7-0.1 0.5-0.2 0.7c-0.1 0.6-0.3 1-0.3 1.4-0.1 0.4-0.2 0.7-0.2 1-0.1 0.3-0.1 0.5-0.2 0.7s-0.1 0.4-0.1 0.5v0.3 0.3c0 0.2 0 0.3 0.1 0.4s0.2 0.2 0.4 0.3c0.1 0 0.2 0 0.3 0.1h0.4c0.2 0 0.4-0.1 0.6-0.2s0.5-0.2 0.7-0.4l-0.1 0.8c-0.3 0.2-0.6 0.3-0.9 0.4s-0.6 0.1-0.9 0.1c-0.4 0-0.6 0-0.9-0.1s-0.4-0.2-0.6-0.3c-0.2-0.2-0.3-0.3-0.4-0.6-0.1-0.2-0.2-0.4-0.2-0.7v-0.3c0-0.1 0-0.3 0.1-0.5 0-0.1 0-0.3 0.1-0.4 0-0.2 0.1-0.4 0.1-0.6s0.1-0.4 0.1-0.6 0.1-0.3 0.1-0.4l-3.7 0.2-1 4.1h-1.6l1.4-6.3c0-0.1 0.1-0.3 0.1-0.5s0-0.4-0.1-0.5c-0.1-0.2-0.3-0.3-0.6-0.3-0.2 0-0.4 0.1-0.6 0.2s-0.5 0.2-0.6 0.4l0.1-0.9z"/>
			<path d="m126.1 99.9c-0.5 0.3-0.9 0.5-1.2 0.6s-0.6 0.1-0.9 0.1c-0.4 0-0.7-0.1-0.9-0.2s-0.4-0.2-0.5-0.4c-0.1-0.1-0.2-0.3-0.3-0.5s-0.1-0.4-0.1-0.6h-0.1c-0.4 0.3-0.7 0.6-1.1 0.8-0.3 0.2-0.6 0.4-0.9 0.5s-0.5 0.2-0.8 0.3c-0.2 0-0.5 0.1-0.7 0.1-0.7 0-1.2-0.2-1.6-0.6-0.3-0.4-0.5-0.9-0.5-1.4 0-0.3 0-0.5 0.1-0.8s0.1-0.7 0.3-1.1l0.6-2.7s0-0.1 0.1-0.3 0-0.3 0-0.4-0.1-0.3-0.2-0.4c-0.1-0.1-0.3-0.2-0.5-0.2s-0.4 0.1-0.6 0.2-0.4 0.2-0.6 0.4l0.1-0.9c0.2-0.1 0.3-0.2 0.5-0.2 0.1-0.1 0.3-0.1 0.5-0.2s0.4-0.2 0.6-0.2 0.5-0.1 0.8-0.1c0.7 0 1.1 0.4 1.1 1.1v0.4s-0.1 0.3-0.1 0.5l-1 4.1c-0.1 0.3-0.1 0.5-0.1 0.7 0 0.4 0.1 0.8 0.4 1s0.5 0.3 0.8 0.3c0.1 0 0.3 0 0.6-0.1s0.6-0.3 1.1-0.6c0.3-0.2 0.5-0.4 0.7-0.6s0.4-0.5 0.6-0.8l1.2-5.7h1.6l-1.3 6.3c0 0.1-0.1 0.3-0.1 0.4v0.4c0 0.2 0.1 0.4 0.2 0.6 0.1 0.1 0.2 0.2 0.3 0.2 0.1 0.1 0.3 0.1 0.4 0.1h0.3c0.1 0 0.3-0.1 0.5-0.2s0.4-0.2 0.5-0.3 0.3-0.2 0.3-0.2l-0.1 0.6z"/>
			<path d="m136.9 100c-0.3 0.2-0.7 0.3-1 0.4s-0.6 0.1-0.9 0.1-0.6 0-0.8-0.1-0.5-0.3-0.7-0.5-0.4-0.5-0.5-0.8-0.3-0.7-0.4-1-0.2-0.5-0.2-0.6-0.1-0.3-0.2-0.4-0.1-0.2-0.1-0.3-0.1-0.2-0.1-0.2c-0.2-0.3-0.4-0.4-0.7-0.3l-0.7 0.6-0.8 3.6h-1.6l1.3-6.2c0.1-0.4 0.1-0.7 0.1-0.9s-0.1-0.3-0.1-0.3c-0.1-0.1-0.3-0.2-0.5-0.2s-0.4 0.1-0.7 0.2-0.5 0.2-0.6 0.4l0.1-0.9c0.2-0.1 0.3-0.1 0.4-0.2 0.1 0 0.2-0.1 0.2-0.1 0.1 0 0.1-0.1 0.2-0.1 0 0 0.1 0 0.2-0.1 0.2-0.1 0.5-0.2 0.7-0.2s0.5-0.1 0.7-0.1c0.2 0 0.3 0 0.5 0.1s0.4 0.2 0.5 0.4c0.1 0.1 0.1 0.2 0.1 0.4v0.4c0 0.3 0 0.5-0.1 0.7l-0.4 2.2c0.2-0.2 0.4-0.3 0.5-0.4 0.2-0.1 0.3-0.3 0.4-0.4l0.3-0.3s0.2-0.2 0.4-0.3l0.6-0.6c0.2-0.2 0.5-0.4 0.7-0.6s0.5-0.4 0.7-0.6 0.4-0.3 0.6-0.4 0.4-0.3 0.7-0.3c0.3-0.1 0.5-0.1 0.7-0.1 0.3 0 0.6 0.1 0.7 0.2 0.1 0.2 0.2 0.3 0.2 0.5s0 0.4-0.1 0.6-0.2 0.4-0.4 0.6-0.5 0.4-0.7 0.4c-0.2 0.1-0.4 0.1-0.6 0.2 0.1-0.1 0.2-0.3 0.2-0.4s0-0.2-0.1-0.3-0.2-0.1-0.4-0.1c-0.1 0-0.3 0-0.5 0.1s-0.4 0.2-0.8 0.5c-0.1 0.1-0.2 0.1-0.3 0.3-0.1 0.1-0.3 0.2-0.5 0.4-0.2 0.1-0.4 0.3-0.6 0.5s-0.4 0.4-0.6 0.5c0.3-0.1 0.6 0 0.9 0.1s0.5 0.3 0.7 0.6c0.1 0.1 0.2 0.3 0.3 0.5s0.3 0.6 0.5 1.1c0.1 0.2 0.2 0.4 0.2 0.7 0.1 0.2 0.2 0.5 0.3 0.7 0.1 0.1 0.2 0.3 0.3 0.4s0.3 0.2 0.6 0.2c0.2 0 0.4-0.1 0.6-0.2s0.4-0.3 0.6-0.4v0.3z"/>
		</g>
</svg>
