<svg version="1" xmlns="http://www.w3.org/2000/svg" width="341.333" height="341.333" viewBox="0 0 256.000000 256.000000"><path d="M113.2 1.2C71 6.5 33.4 33.2 14 71.9 6.4 87.1 1 110.3 1 128c0 18.1 5.4 40.9 13.4 56.8L18 192h8c4.4 0 8-.2 8-.3 0-.2 6.1-28.9 13.5-63.7C54.9 93.1 61 64.5 61 64.3c0-.2-4.5-.3-9.9-.3-11.1 0-10.2.9-8-8.3l1-3.7h49.4l15 47.5c8.1 26.1 15.1 47.5 15.4 47.4.3 0 4.2-4.8 8.6-10.7 4.5-5.9 20.7-27.2 36-47.5l28-36.7h16.7c11.5 0 16.8-.3 16.8-1.1 0-.6-5.1-6.2-11.2-12.4-7.6-7.6-14.4-13.3-20.7-17.4-25.7-16.5-55.8-23.6-84.9-19.9z"/><path d="M221.1 67.7c-1.3 5.2-26.1 122.6-26.1 123.5 0 .5 4.3.8 9.5.8 10.6 0 10.3-.2 8.4 7.6l-1.1 4.4h-31.4c-19.2 0-31.4-.4-31.4-1 0-.5.5-3.2 1.1-6l1.1-5h9.9c5.4 0 9.9-.2 9.9-.4 0-3 24-111.1 26.6-119.9 1.4-4.7-2.2-.5-9.5 11-4.4 7.1-21.2 29.7-37.3 50.3l-29.3 37.5h-14.8L93.8 132c-10.2-30.5-13.4-41.2-15.1-51.5-1.3-7.2-2.7-12.9-3.2-12.8-.6.1-6.7 26.6-13.6 59C55 159 49 187 48.6 188.8l-.8 3.2h9.1c10.2 0 9.9-.2 8 7.6l-1.1 4.4H45.4c-12.6 0-18.4.3-18.4 1.1 0 .6 5.1 6.2 11.3 12.4 22.3 22.4 46.9 34.2 78.8 37.6 19.6 2.2 43-1.6 62.2-10.1 26.6-11.6 50.3-34.2 63.5-60.5 9-17.9 12.6-34.3 12.6-56.5 0-22.5-3.6-38.6-13-57.3L239 64h-16.9l-1 3.7z"/></svg>