<svg width="37" height="37" viewBox="0 0 37 37" fill="none" xmlns="http://www.w3.org/2000/svg">
<path d="M26.94 36.07H20.82L18 35.14L15.24 36.07H9.13C6.70857 36.07 4.38632 35.1081 2.67412 33.3959C0.961908 31.6837 0 29.3614 0 26.94V9.13C0 6.70857 0.961908 4.38632 2.67412 2.67412C4.38632 0.961908 6.70857 0 9.13 0L26.94 0C29.3614 0 31.6837 0.961908 33.3959 2.67412C35.1081 4.38632 36.07 6.70857 36.07 9.13V26.94C36.07 29.3614 35.1081 31.6837 33.3959 33.3959C31.6837 35.1081 29.3614 36.07 26.94 36.07Z" fill="#337FFF"/>
<path d="M15.25 14.11V18H10.73V23.15H15.25V36.07H20.82V23.18H25L25.76 18H20.82V14.69C20.785 14.3057 20.8371 13.9184 20.9723 13.557C21.1075 13.1955 21.3224 12.8691 21.601 12.6021C21.8795 12.335 22.2147 12.1341 22.5815 12.0143C22.9484 11.8945 23.3375 11.8589 23.72 11.91H26V7.52999C24.6771 7.31519 23.3401 7.19821 22 7.17999C17.91 7.17999 15.25 9.63999 15.25 14.11Z" fill="white"/>
</svg>
