<svg width="37" height="37" viewBox="0 0 37 37" fill="none" xmlns="http://www.w3.org/2000/svg">
<path d="M26.94 0H9.13C4.08764 0 0 4.08764 0 9.13V26.94C0 31.9824 4.08764 36.07 9.13 36.07H26.94C31.9824 36.07 36.07 31.9824 36.07 26.94V9.13C36.07 4.08764 31.9824 0 26.94 0Z" fill="url(#paint0_linear)"/>
<path d="M23.5601 11.35C23.3168 11.35 23.079 11.4221 22.8767 11.5573C22.6745 11.6924 22.5168 11.8845 22.4237 12.1093C22.3306 12.334 22.3063 12.5813 22.3537 12.8199C22.4012 13.0585 22.5183 13.2777 22.6903 13.4497C22.8624 13.6217 23.0815 13.7389 23.3201 13.7863C23.5587 13.8338 23.806 13.8094 24.0308 13.7163C24.2555 13.6233 24.4476 13.4656 24.5828 13.2633C24.7179 13.0611 24.7901 12.8232 24.7901 12.58C24.7901 12.4185 24.7583 12.2585 24.6964 12.1093C24.6346 11.96 24.544 11.8245 24.4298 11.7102C24.3156 11.596 24.18 11.5054 24.0308 11.4436C23.8815 11.3818 23.7216 11.35 23.5601 11.35Z" fill="white"/>
<path d="M18.1201 12.92C17.1024 12.918 16.1069 13.2177 15.2594 13.781C14.4118 14.3444 13.7502 15.1463 13.358 16.0854C12.9658 17.0245 12.8606 18.0588 13.0558 19.0576C13.251 20.0564 13.7377 20.975 14.4545 21.6974C15.1714 22.4199 16.0862 22.9137 17.0835 23.1166C18.0807 23.3195 19.1158 23.2224 20.0579 22.8375C21 22.4526 21.807 21.7972 22.3769 20.954C22.9469 20.1108 23.2542 19.1177 23.2601 18.1C23.2628 17.4224 23.1319 16.7509 22.875 16.1238C22.6181 15.4968 22.2402 14.9265 21.7629 14.4455C21.2857 13.9644 20.7183 13.5822 20.0933 13.3204C19.4682 13.0587 18.7977 12.9226 18.1201 12.92ZM18.1201 21.36C17.4653 21.3619 16.8248 21.169 16.2799 20.8058C15.7351 20.4426 15.3106 19.9255 15.0605 19.3204C14.8104 18.7152 14.746 18.0494 14.8755 17.4075C15.005 16.7656 15.3225 16.1768 15.7876 15.7159C16.2527 15.255 16.8445 14.9429 17.4875 14.8193C18.1305 14.6957 18.7958 14.7662 19.3986 15.0219C20.0015 15.2775 20.5146 15.7067 20.8728 16.2548C21.231 16.8029 21.4181 17.4452 21.4101 18.1C21.3996 18.9665 21.0487 19.7942 20.4331 20.4041C19.8175 21.0141 18.9867 21.3574 18.1201 21.36Z" fill="white"/>
<path d="M22.2001 28.51H13.8601C12.1972 28.51 10.6024 27.8494 9.42653 26.6736C8.25067 25.4977 7.59009 23.9029 7.59009 22.24V13.9C7.59009 12.2362 8.25035 10.6403 9.42592 9.46289C10.6015 8.28545 12.1963 7.62264 13.8601 7.62H22.2001C23.8648 7.62264 25.4606 8.28513 26.6378 9.46228C27.815 10.6394 28.4774 12.2353 28.4801 13.9V22.24C28.4774 23.9038 27.8146 25.4986 26.6372 26.6742C25.4597 27.8497 23.8639 28.51 22.2001 28.51ZM13.8601 9.58999C12.7178 9.59263 11.6231 10.0476 10.8154 10.8553C10.0077 11.663 9.55273 12.7577 9.55009 13.9V22.24C9.55274 23.3813 10.008 24.475 10.816 25.2812C11.624 26.0873 12.7187 26.54 13.8601 26.54H22.2001C23.3414 26.54 24.4362 26.0873 25.2442 25.2812C26.0522 24.475 26.5074 23.3813 26.5101 22.24V13.9C26.5101 12.7569 26.056 11.6606 25.2477 10.8524C24.4394 10.0441 23.3432 9.58999 22.2001 9.58999H13.8601Z" fill="white"/>
<defs>
<linearGradient id="paint0_linear" x1="-0.39" y1="-0.4" x2="34.99" y2="34.98" gradientUnits="userSpaceOnUse">
<stop stop-color="#FBE18A"/>
<stop offset="0.21" stop-color="#FCBB45"/>
<stop offset="0.38" stop-color="#F75274"/>
<stop offset="0.52" stop-color="#D53692"/>
<stop offset="0.74" stop-color="#8F39CE"/>
<stop offset="1" stop-color="#5B4FE9"/>
</linearGradient>
</defs>
</svg>
