<svg width="62" height="62" viewBox="0 0 62 62" fill="none" xmlns="http://www.w3.org/2000/svg">
<path d="M58.125 34.875H52.918C53.806 32.332 54.25 29.7487 54.25 27.125H58.125C59.1745 27.125 60.0827 27.5085 60.8496 28.2754C61.6165 29.0423 62 29.9606 62 31.0303C62 32.0999 61.6165 33.0081 60.8496 33.7549C60.0827 34.5016 59.1745 34.875 58.125 34.875ZM56.1875 20.7676L53.7051 22.2207C53.1803 19.6777 52.2116 17.276 50.7988 15.0156L52.373 14.1074C53.3014 13.5423 54.2702 13.401 55.2793 13.6836C56.2884 13.9661 57.0654 14.5716 57.6104 15.5C58.1553 16.4284 58.2865 17.4072 58.0039 18.4365C57.7214 19.4658 57.1159 20.2428 56.1875 20.7676ZM47.3477 10.5957C45.5312 8.7793 43.4121 7.30599 40.9902 6.17578L41.2324 5.8125C41.7572 4.88411 42.5342 4.27865 43.5635 3.99609C44.5928 3.71354 45.5716 3.84473 46.5 4.38965C47.4284 4.93457 48.0339 5.71159 48.3164 6.7207C48.599 7.72982 48.4577 8.69857 47.8926 9.62695L47.3477 10.5957ZM47.8926 52.373C48.4577 53.3014 48.599 54.2702 48.3164 55.2793C48.0339 56.2884 47.4284 57.0654 46.5 57.6104C45.5716 58.1553 44.5928 58.2865 43.5635 58.0039C42.5342 57.7214 41.7572 57.1159 41.2324 56.1875L37.2969 49.4668C39.8398 48.7806 42.181 47.6908 44.3203 46.1973L47.8926 52.373ZM30.9697 62C29.9001 62 28.9919 61.6266 28.2451 60.8799C27.4984 60.1331 27.125 59.2148 27.125 58.125V49.8906C28.4167 50.2135 29.7083 50.375 31 50.375C32.2109 50.375 33.5026 50.2539 34.875 50.0117V58.125C34.875 59.2148 34.4915 60.1331 33.7246 60.8799C32.9577 61.6266 32.0394 62 30.9697 62ZM31 23.25C29.668 23.25 28.6185 22.7051 27.8516 21.6152C24.1784 22.1803 21.2015 23.6234 18.9209 25.9443C16.6403 28.2653 15.5 31.2422 15.5 34.875H3.875C2.82552 34.875 1.91732 34.5016 1.15039 33.7549C0.383464 33.0081 0 32.0999 0 31.0303C0 29.9606 0.383464 29.0423 1.15039 28.2754C1.91732 27.5085 2.82552 27.125 3.875 27.125H16.6504L5.8125 20.7676C4.88411 20.2428 4.27865 19.4658 3.99609 18.4365C3.71354 17.4072 3.84473 16.4284 4.38965 15.5C4.93457 14.5716 5.71159 13.9661 6.7207 13.6836C7.72982 13.401 8.69857 13.5423 9.62695 14.1074L20.2832 20.2832L14.1074 9.62695C13.5423 8.69857 13.401 7.72982 13.6836 6.7207C13.9661 5.71159 14.5716 4.93457 15.5 4.38965C16.4284 3.84473 17.4072 3.71354 18.4365 3.99609C19.4658 4.27865 20.2428 4.88411 20.7676 5.8125L27.125 16.6504V3.875C27.125 2.82552 27.4984 1.91732 28.2451 1.15039C28.9919 0.383464 29.9102 0 31 0C32.0898 0 33.0081 0.383464 33.7549 1.15039C34.5016 1.91732 34.875 2.82552 34.875 3.875V19.375C34.875 20.4648 34.4915 21.3831 33.7246 22.1299C32.9577 22.8766 32.0495 23.25 31 23.25ZM5.8125 41.2324L15.5605 35.541C15.6413 38.2858 16.4082 40.8086 17.8613 43.1094L9.62695 47.8926C8.69857 48.4577 7.72982 48.599 6.7207 48.3164C5.71159 48.0339 4.93457 47.4284 4.38965 46.5C3.84473 45.5716 3.71354 44.5928 3.99609 43.5635C4.27865 42.5342 4.88411 41.7572 5.8125 41.2324ZM18.7695 44.3203C20.4245 46.5 22.4629 48.0944 24.8848 49.1035L20.7676 56.1875C20.2428 57.1159 19.4658 57.7214 18.4365 58.0039C17.4072 58.2865 16.4284 58.1553 15.5 57.6104C14.5716 57.0654 13.9661 56.2884 13.6836 55.2793C13.401 54.2702 13.5423 53.3014 14.1074 52.373L18.7695 44.3203ZM51.3438 38.3867L56.1875 41.2324C57.1159 41.7572 57.7214 42.5342 58.0039 43.5635C58.2865 44.5928 58.1553 45.5716 57.6104 46.5C57.0654 47.4284 56.2884 48.0339 55.2793 48.3164C54.2702 48.599 53.3014 48.4577 52.373 47.8926L46.4395 44.4414C48.4577 42.6654 50.0924 40.6471 51.3438 38.3867Z" fill="#62B0A2"/>
</svg>
