<svg width="37" height="37" viewBox="0 0 37 37" fill="none" xmlns="http://www.w3.org/2000/svg">
<path d="M26.94 0H9.13C4.08764 0 0 4.08765 0 9.13V26.94C0 31.9824 4.08764 36.07 9.13 36.07H26.94C31.9824 36.07 36.07 31.9824 36.07 26.94V9.13C36.07 4.08765 31.9824 0 26.94 0Z" fill="#FF0000"/>
<path d="M19.9101 6.15996C15.0401 5.60996 9.71006 7.42996 6.84006 11.92C4.25006 15.98 4.84006 20.78 6.77006 23.2C7.32576 23.9126 8.06084 24.4648 8.90006 24.8C8.98427 24.8498 9.07925 24.8787 9.17697 24.8842C9.2747 24.8896 9.3723 24.8715 9.46154 24.8313C9.55078 24.7911 9.62903 24.73 9.68969 24.6532C9.75035 24.5764 9.79163 24.4861 9.81006 24.39C9.97006 23.82 10.1001 23.23 10.2501 22.66C10.3501 22.28 10.1201 22.06 9.83006 21.66C7.52006 18.77 8.68006 12.4399 13.8301 10.07C18.2901 8.00995 25.3101 9.39996 25.6901 15.8C25.8801 19.01 24.8701 23.54 22.2601 25.43C19.4301 27.43 16.1301 25.49 16.8401 22.68C17.6901 19.27 18.8401 16.9699 18.3901 15.2099C17.7001 12.3699 13.7901 12.63 12.7001 16.08C12.226 17.6293 12.293 19.2938 12.8901 20.8C12.9495 20.9314 12.9703 21.0771 12.9501 21.22C10.5401 31.33 10.3101 32.9499 10.2501 34.82C10.2501 35.2299 10.2501 35.63 10.2501 36.04H13.1001C14.2001 33.96 14.3701 31.93 15.5201 27.44C15.5201 27.36 15.5201 27.28 15.5901 27.19C15.7801 27.42 15.9301 27.64 16.1201 27.84C18.6101 30.36 23.9801 30.09 27.3001 25.98C30.1801 22.39 30.4101 17.33 30.1001 15.27C29.4101 10.79 25.7301 6.81996 19.9101 6.15996Z" fill="white"/>
</svg>
