<svg width="25" height="25" viewBox="0 0 25 25" fill="none" xmlns="http://www.w3.org/2000/svg">
<path fill-rule="evenodd" clip-rule="evenodd" d="M2.57193 10.3844C2.6445 10.3116 2.73071 10.2539 2.82563 10.2145C2.92054 10.1751 3.02229 10.1548 3.12505 10.1548C3.22782 10.1548 3.32957 10.1751 3.42448 10.2145C3.5194 10.2539 3.60561 10.3116 3.67818 10.3844L12.5001 19.2078L21.3219 10.3844C21.4686 10.2377 21.6676 10.1553 21.8751 10.1553C22.0825 10.1553 22.2815 10.2377 22.4282 10.3844C22.5749 10.5311 22.6573 10.73 22.6573 10.9375C22.6573 11.145 22.5749 11.3439 22.4282 11.4906L13.0532 20.8656C12.9806 20.9384 12.8944 20.9961 12.7995 21.0355C12.7046 21.0749 12.6028 21.0951 12.5001 21.0951C12.3973 21.0951 12.2955 21.0749 12.2006 21.0355C12.1057 20.9961 12.0195 20.9384 11.9469 20.8656L2.57193 11.4906C2.49917 11.418 2.44145 11.3318 2.40207 11.2369C2.36268 11.142 2.34241 11.0403 2.34241 10.9375C2.34241 10.8347 2.36268 10.733 2.40207 10.6381C2.44145 10.5432 2.49917 10.4569 2.57193 10.3844Z" fill="#6C6864"/>
<path fill-rule="evenodd" clip-rule="evenodd" d="M2.57193 4.13437C2.6445 4.06161 2.73071 4.00389 2.82563 3.9645C2.92054 3.92512 3.02229 3.90485 3.12505 3.90485C3.22782 3.90485 3.32957 3.92512 3.42448 3.9645C3.5194 4.00389 3.60561 4.06161 3.67818 4.13437L12.5001 12.9578L21.3219 4.13437C21.3946 4.06173 21.4808 4.00411 21.5757 3.9648C21.6706 3.92549 21.7723 3.90526 21.8751 3.90526C21.9778 3.90526 22.0795 3.92549 22.1744 3.9648C22.2693 4.00411 22.3555 4.06173 22.4282 4.13437C22.5008 4.20701 22.5584 4.29324 22.5977 4.38814C22.6371 4.48305 22.6573 4.58477 22.6573 4.68749C22.6573 4.79022 22.6371 4.89194 22.5977 4.98684C22.5584 5.08175 22.5008 5.16798 22.4282 5.24062L13.0532 14.6156C12.9806 14.6884 12.8944 14.7461 12.7995 14.7855C12.7046 14.8249 12.6028 14.8451 12.5001 14.8451C12.3973 14.8451 12.2955 14.8249 12.2006 14.7855C12.1057 14.7461 12.0195 14.6884 11.9469 14.6156L2.57193 5.24062C2.49917 5.16805 2.44145 5.08183 2.40207 4.98692C2.36268 4.89201 2.34241 4.79025 2.34241 4.68749C2.34241 4.58473 2.36268 4.48298 2.40207 4.38807C2.44145 4.29315 2.49917 4.20694 2.57193 4.13437Z" fill="#6C6864"/>
</svg>
