<svg width="21" height="19" viewBox="0 0 21 19" fill="none" xmlns="http://www.w3.org/2000/svg">
<path fill-rule="evenodd" clip-rule="evenodd" d="M0.571929 7.38438C0.6445 7.31163 0.730712 7.2539 0.825626 7.21452C0.920541 7.17513 1.02229 7.15486 1.12505 7.15486C1.22782 7.15486 1.32957 7.17513 1.42448 7.21452C1.5194 7.2539 1.60561 7.31163 1.67818 7.38438L10.5001 16.2078L19.3219 7.38438C19.4686 7.23768 19.6676 7.15527 19.8751 7.15527C20.0825 7.15527 20.2815 7.23768 20.4282 7.38438C20.5749 7.53108 20.6573 7.73005 20.6573 7.93751C20.6573 8.14497 20.5749 8.34393 20.4282 8.49063L11.0532 17.8656C10.9806 17.9384 10.8944 17.9961 10.7995 18.0355C10.7046 18.0749 10.6028 18.0952 10.5001 18.0952C10.3973 18.0952 10.2955 18.0749 10.2006 18.0355C10.1057 17.9961 10.0195 17.9384 9.94693 17.8656L0.571929 8.49063C0.499174 8.41806 0.441451 8.33185 0.402066 8.23694C0.36268 8.14202 0.342407 8.04027 0.342407 7.93751C0.342407 7.83475 0.36268 7.73299 0.402066 7.63808C0.441451 7.54317 0.499174 7.45695 0.571929 7.38438Z" fill="white"/>
<path fill-rule="evenodd" clip-rule="evenodd" d="M0.571929 1.13438C0.6445 1.06163 0.730712 1.0039 0.825626 0.96452C0.920541 0.925135 1.02229 0.904861 1.12505 0.904861C1.22782 0.904861 1.32957 0.925135 1.42448 0.96452C1.5194 1.0039 1.60561 1.06163 1.67818 1.13438L10.5001 9.95782L19.3219 1.13438C19.3946 1.06175 19.4808 1.00413 19.5757 0.964816C19.6706 0.925504 19.7723 0.905271 19.8751 0.905271C19.9778 0.905271 20.0795 0.925504 20.1744 0.964816C20.2693 1.00413 20.3555 1.06175 20.4282 1.13438C20.5008 1.20702 20.5584 1.29325 20.5977 1.38816C20.6371 1.48306 20.6573 1.58478 20.6573 1.68751C20.6573 1.79023 20.6371 1.89195 20.5977 1.98686C20.5584 2.08176 20.5008 2.168 20.4282 2.24063L11.0532 11.6156C10.9806 11.6884 10.8944 11.7461 10.7995 11.7855C10.7046 11.8249 10.6028 11.8452 10.5001 11.8452C10.3973 11.8452 10.2955 11.8249 10.2006 11.7855C10.1057 11.7461 10.0195 11.6884 9.94693 11.6156L0.571929 2.24063C0.499174 2.16806 0.441451 2.08185 0.402066 1.98694C0.36268 1.89202 0.342407 1.79027 0.342407 1.68751C0.342407 1.58475 0.36268 1.48299 0.402066 1.38808C0.441451 1.29317 0.499174 1.20695 0.571929 1.13438Z" fill="white"/>
</svg>
