<svg width="37" height="37" viewBox="0 0 37 37" fill="none" xmlns="http://www.w3.org/2000/svg">
<path d="M26.94 0H9.13C4.08764 0 0 4.08765 0 9.13V26.94C0 31.9824 4.08764 36.07 9.13 36.07H26.94C31.9824 36.07 36.07 31.9824 36.07 26.94V9.13C36.07 4.08765 31.9824 0 26.94 0Z" fill="black"/>
<path fill-rule="evenodd" clip-rule="evenodd" d="M22.7101 15.21C24.2017 16.2817 25.9934 16.8556 27.8301 16.85V13.18C27.4706 13.1786 27.1122 13.1418 26.7601 13.07V15.96C24.9239 15.9622 23.1333 15.3886 21.6401 14.32V21.82C21.6374 23.6218 20.9198 25.3488 19.6449 26.6219C18.3699 27.895 16.6418 28.61 14.8401 28.61C13.4933 28.6141 12.1764 28.2135 11.0601 27.46C12.0053 28.4219 13.2152 29.081 14.5359 29.3535C15.8567 29.626 17.2287 29.4996 18.4774 28.9905C19.7262 28.4813 20.7953 27.6124 21.549 26.4941C22.3027 25.3758 22.7068 24.0586 22.7101 22.71V15.21ZM24.0001 11.51C23.2421 10.6814 22.7751 9.62813 22.6701 8.51004V8.04004H21.6701C21.7943 8.74916 22.0659 9.42435 22.4672 10.022C22.8685 10.6197 23.3907 11.1266 24.0001 11.51ZM13.4301 24.58C13.077 24.1186 12.8602 23.5676 12.8043 22.9893C12.7484 22.411 12.8556 21.8286 13.1138 21.3081C13.3719 20.7876 13.7707 20.3499 14.2649 20.0444C14.7592 19.739 15.3291 19.5781 15.9101 19.58C16.2294 19.5797 16.5467 19.6303 16.8501 19.73V15.97C16.4923 15.9202 16.1311 15.9001 15.7701 15.91V18.84C15.4667 18.7403 15.1494 18.6897 14.8301 18.69C14.1329 18.6931 13.457 18.9304 12.9108 19.3638C12.3647 19.7971 11.98 20.4014 11.8185 21.0797C11.657 21.7579 11.7281 22.4707 12.0204 23.1037C12.3126 23.7367 12.8091 24.2531 13.4301 24.57V24.58Z" fill="#EE1D52"/>
<path fill-rule="evenodd" clip-rule="evenodd" d="M21.6401 14.32C23.1332 15.3886 24.9239 15.9622 26.7601 15.96V13.07C25.6996 12.8513 24.7344 12.3057 24.0001 11.51C23.387 11.1287 22.861 10.6227 22.4561 10.0249C22.0513 9.42709 21.7766 8.75084 21.6501 8.04004H19.0001V22.71C18.996 23.3585 18.7892 23.9895 18.4088 24.5147C18.0283 25.0399 17.4932 25.4331 16.8783 25.6392C16.2634 25.8452 15.5995 25.8539 14.9794 25.664C14.3593 25.4741 13.8141 25.0951 13.4201 24.58C12.7991 24.2631 12.3026 23.7467 12.0104 23.1137C11.7181 22.4807 11.647 21.7679 11.8085 21.0897C11.97 20.4114 12.3547 19.8071 12.9008 19.3738C13.447 18.9404 14.1229 18.7031 14.8201 18.7C15.1395 18.6977 15.4572 18.7484 15.7601 18.85V15.92C14.4353 15.9475 13.1476 16.3619 12.0555 17.1122C10.9634 17.8625 10.1147 18.916 9.61405 20.1428C9.11336 21.3695 8.98253 22.716 9.23769 24.0162C9.49285 25.3164 10.1229 26.5135 11.0501 27.46C12.1664 28.2135 13.4833 28.6141 14.8301 28.61C16.6318 28.61 18.3599 27.895 19.6348 26.6219C20.9098 25.3488 21.6274 23.6218 21.6301 21.82L21.6401 14.32Z" fill="white"/>
<path fill-rule="evenodd" clip-rule="evenodd" d="M26.76 13.0699V12.2799C25.7854 12.2917 24.8277 12.0246 24 11.5099C24.7335 12.3067 25.6991 12.8524 26.76 13.0699ZM21.69 8.06993C21.69 7.92993 21.69 7.78992 21.64 7.63992V7.16992H17.94V21.8499C17.9371 22.3795 17.799 22.8995 17.5389 23.3607C17.2787 23.822 16.9051 24.2091 16.4534 24.4856C16.0017 24.762 15.4869 24.9185 14.9578 24.9403C14.4287 24.962 13.9028 24.8483 13.43 24.6099C13.8268 25.1229 14.374 25.499 14.9952 25.6857C15.6163 25.8723 16.2802 25.86 16.894 25.6506C17.5079 25.4413 18.0409 25.0452 18.4185 24.5179C18.7961 23.9906 18.9994 23.3585 19 22.7099V8.03993L21.69 8.06993ZM15.77 15.9499V15.1199C15.4616 15.08 15.1509 15.06 14.84 15.0599C13.3842 15.0601 11.9671 15.5281 10.7975 16.395C9.62803 17.2618 8.76807 18.4816 8.34452 19.8744C7.92098 21.2672 7.95627 22.7592 8.44519 24.1304C8.93411 25.5016 9.85078 26.6793 11.06 27.4899C10.1328 26.5434 9.50277 25.3463 9.24761 24.0461C8.99245 22.7458 9.12328 21.3994 9.62397 20.1727C10.1247 18.9459 10.9734 17.8924 12.0654 17.1421C13.1575 16.3918 14.4453 15.9773 15.77 15.9499Z" fill="#69C9D0"/>
</svg>
