<svg width="37" height="37" viewBox="0 0 37 37" fill="none" xmlns="http://www.w3.org/2000/svg">
<path d="M26.94 0H9.13C4.08764 0 0 4.08764 0 9.13V26.94C0 31.9824 4.08764 36.07 9.13 36.07H26.94C31.9824 36.07 36.07 31.9824 36.07 26.94V9.13C36.07 4.08764 31.9824 0 26.94 0Z" fill="#33CCFF"/>
<path d="M27.8701 12.05C27.2317 12.3258 26.5589 12.5142 25.8701 12.61C26.1901 12.55 26.6501 11.98 26.8701 11.75C27.1614 11.3989 27.3821 10.9949 27.5201 10.56C27.5267 10.5535 27.532 10.5457 27.5356 10.5371C27.5392 10.5285 27.5411 10.5193 27.5411 10.51C27.5411 10.5007 27.5392 10.4915 27.5356 10.4829C27.532 10.4743 27.5267 10.4665 27.5201 10.46C27.5053 10.4501 27.4879 10.4448 27.4701 10.4448C27.4523 10.4448 27.4349 10.4501 27.4201 10.46C26.6851 10.856 25.9019 11.1552 25.0901 11.35C25.0661 11.3651 25.0384 11.3731 25.0101 11.3731C24.9818 11.3731 24.954 11.3651 24.9301 11.35C24.8686 11.2753 24.8018 11.2051 24.7301 11.14C24.3904 10.8543 24.0094 10.6217 23.6001 10.45C23.0512 10.2299 22.4604 10.1343 21.8701 10.17C21.2947 10.2106 20.7335 10.3671 20.2201 10.63C19.7144 10.9013 19.2662 11.2681 18.9001 11.71C18.5257 12.1772 18.2562 12.7194 18.1101 13.3C17.9952 13.8508 17.9952 14.4193 18.1101 14.97C18.1101 15.07 18.1101 15.08 18.0301 15.07C14.9504 14.747 12.0999 13.2933 10.0301 10.99C9.94009 10.88 9.89009 10.88 9.81009 10.99C9.39576 11.7567 9.23915 12.6364 9.36341 13.4991C9.48767 14.3617 9.88621 15.1614 10.5001 15.78C10.6601 15.93 10.8201 16.08 11.0001 16.22C10.4589 16.18 9.93157 16.0303 9.45009 15.78C9.36343 15.7333 9.31343 15.7633 9.30009 15.87C9.28551 16.0197 9.28551 16.1704 9.30009 16.32C9.39262 17.0421 9.67576 17.7266 10.1204 18.303C10.565 18.8795 11.1552 19.3271 11.8301 19.6C11.9953 19.665 12.166 19.7152 12.3401 19.75C11.8433 19.8526 11.3326 19.8695 10.8301 19.8C10.7201 19.8 10.6701 19.8 10.7201 19.94C10.9775 20.6199 11.4051 21.2223 11.9618 21.6898C12.5186 22.1573 13.1859 22.4741 13.9001 22.61C14.0401 22.61 14.1901 22.61 14.3301 22.66C13.7084 23.2158 12.9599 23.6107 12.1501 23.81C11.0937 24.1882 9.96754 24.3315 8.85009 24.23C8.67009 24.23 8.64009 24.23 8.59009 24.23C8.54009 24.23 8.59009 24.31 8.59009 24.35C8.81294 24.4984 9.04324 24.6352 9.28009 24.76C9.9796 25.1317 10.7172 25.4268 11.4801 25.64C13.4484 26.2336 15.5381 26.3003 17.5403 25.8336C19.5425 25.3668 21.3872 24.3828 22.8901 22.98C23.9715 21.8065 24.808 20.4291 25.3506 18.9283C25.8932 17.4276 26.131 15.8338 26.0501 14.24C26.0501 14.11 26.2001 14.04 26.2901 13.98C26.8832 13.5187 27.4055 12.9729 27.8401 12.36C27.9078 12.2711 27.9431 12.1617 27.9401 12.05C27.9401 12.05 28.0001 12.01 27.8701 12.05Z" fill="white"/>
</svg>
