<svg width="37" height="37" viewBox="0 0 37 37" fill="none" xmlns="http://www.w3.org/2000/svg">
<path d="M26.94 0H9.13C4.08764 0 0 4.08765 0 9.13V26.94C0 31.9824 4.08764 36.07 9.13 36.07H26.94C31.9824 36.07 36.07 31.9824 36.07 26.94V9.13C36.07 4.08765 31.9824 0 26.94 0Z" fill="#2C64A6"/>
<path d="M27.9601 21.2358C27.9601 21.2358 30.2285 23.4741 30.7876 24.5122C30.8037 24.5342 30.8097 24.5542 30.8157 24.5623C31.0421 24.943 31.1002 25.2436 30.986 25.464C30.7976 25.8307 30.1564 26.0151 29.938 26.0311H25.9322C25.6517 26.0311 25.0705 25.959 24.3652 25.472C23.8241 25.0953 23.2891 24.4721 22.7681 23.8649C21.9906 22.9632 21.3172 22.1816 20.6399 22.1816C20.554 22.1814 20.4687 22.1957 20.3874 22.2237C19.8724 22.388 19.2192 23.1195 19.2192 25.0733C19.2192 25.6844 18.7382 26.0331 18.3976 26.0331H16.562C15.9368 26.0331 12.6805 25.8147 9.79689 22.7708C6.25802 19.0436 3.07985 11.567 3.0518 11.5009C2.85141 11.018 3.26621 10.7555 3.71709 10.7555H7.76495C8.308 10.7555 8.48234 11.0841 8.60658 11.3787C8.74685 11.7133 9.27588 13.0639 10.1416 14.5829C11.5503 17.0537 12.418 18.0596 13.1093 18.0596C13.2386 18.0589 13.3655 18.0251 13.478 17.9614C14.3818 17.4625 14.2135 14.2402 14.1734 13.5749C14.1734 13.4487 14.1714 12.1341 13.7105 11.5029C13.3778 11.046 12.8147 10.8717 12.4741 10.8056C12.613 10.6142 12.7958 10.4589 13.0071 10.3527C13.6263 10.0441 14.7425 10 15.8526 10H16.4698C17.6742 10.016 17.9868 10.0942 18.4216 10.2044C19.3013 10.4148 19.3194 10.9859 19.2412 12.9297C19.2192 13.4828 19.1951 14.11 19.1951 14.8454C19.1951 15.0037 19.1891 15.178 19.1891 15.3584C19.1611 16.3523 19.129 17.4765 19.8304 17.9374C19.9211 17.9942 20.0259 18.0247 20.1329 18.0256C20.3774 18.0256 21.1088 18.0256 23.0907 14.625C23.9624 13.1241 24.6337 11.3526 24.6798 11.2204C24.7498 11.0774 24.8512 10.952 24.9763 10.8537C25.079 10.8003 25.1933 10.7735 25.309 10.7755H30.0682C30.5892 10.7755 30.9419 10.8537 31.0081 11.052C31.1223 11.3707 30.986 12.3425 28.8118 15.2802L27.8439 16.5627C25.8721 19.1437 25.8721 19.276 27.9601 21.2358Z" fill="white"/>
</svg>
