<svg width="37" height="37" viewBox="0 0 37 37" fill="none" xmlns="http://www.w3.org/2000/svg">
<path d="M26.94 0H9.13C4.08764 0 0 4.08765 0 9.13V26.94C0 31.9824 4.08764 36.07 9.13 36.07H26.94C31.9824 36.07 36.07 31.9824 36.07 26.94V9.13C36.07 4.08765 31.9824 0 26.94 0Z" fill="#00D95F"/>
<path d="M8.40991 28.42L9.88991 22.88C8.68781 20.7208 8.30461 18.2005 8.81062 15.7816C9.31663 13.3626 10.6779 11.2073 12.6447 9.71093C14.6115 8.2146 17.0519 7.47766 19.5182 7.63531C21.9844 7.79296 24.3112 8.83464 26.0714 10.5692C27.8317 12.3038 28.9075 14.6149 29.1014 17.0786C29.2953 19.5423 28.5943 21.9932 27.127 23.9818C25.6598 25.9704 23.5247 27.3633 21.1135 27.9048C18.7022 28.4463 16.1766 28.1002 13.9999 26.93L8.40991 28.42ZM14.2599 24.85L14.6099 25.06C15.8878 25.8262 17.3499 26.2306 18.8399 26.23C20.6834 26.238 22.4774 25.6343 23.941 24.5134C25.4046 23.3925 26.455 21.8178 26.9276 20.036C27.4003 18.2541 27.2686 16.3658 26.5531 14.6669C25.8375 12.9679 24.5787 11.5543 22.9736 10.6475C21.3686 9.74072 19.5081 9.39197 17.6836 9.65588C15.8591 9.91979 14.1737 10.7815 12.8914 12.1059C11.6092 13.4304 10.8024 15.1428 10.5977 16.9748C10.3929 18.8069 10.8017 20.6551 11.7599 22.23L11.9699 22.58L11.1399 25.67L14.2599 24.85Z" fill="white"/>
<path fill-rule="evenodd" clip-rule="evenodd" d="M22.6501 19.36C22.4466 19.1964 22.2082 19.0815 21.9534 19.0243C21.6986 18.9671 21.4341 18.969 21.1801 19.0299C20.8001 19.1799 20.5601 19.78 20.3101 20.08C20.2579 20.1515 20.1818 20.202 20.0955 20.2221C20.0093 20.2423 19.9187 20.2309 19.8401 20.1899C18.4493 19.6416 17.2834 18.6413 16.5301 17.35C16.4612 17.2729 16.4232 17.1733 16.4232 17.07C16.4232 16.9666 16.4612 16.867 16.5301 16.79C16.8164 16.5167 17.0237 16.1712 17.1301 15.79C17.1557 15.3852 17.0618 14.9818 16.8601 14.63C16.7039 14.1285 16.4092 13.6814 16.0101 13.3399C15.8024 13.2468 15.5724 13.2153 15.3473 13.2489C15.1222 13.2826 14.9115 13.3801 14.7401 13.5299C14.4481 13.7835 14.2166 14.0993 14.0626 14.454C13.9086 14.8088 13.836 15.1935 13.8501 15.58C13.8471 15.796 13.874 16.0113 13.9301 16.2199C14.0613 16.729 14.2705 17.2148 14.5501 17.6599C14.745 18.0069 14.9621 18.341 15.2001 18.6599C15.9586 19.7067 16.9129 20.5964 18.0101 21.2799C18.5613 21.6263 19.1522 21.905 19.7701 22.11C20.3958 22.3952 21.086 22.5091 21.7701 22.4399C22.1687 22.3778 22.5463 22.2198 22.8703 21.9794C23.1943 21.739 23.4551 21.4234 23.6301 21.0599C23.7264 20.8364 23.7543 20.5893 23.7101 20.35C23.7001 19.88 23.0001 19.59 22.6501 19.36Z" fill="white"/>
</svg>
